<?xml version="1.0" standalone="no"?>
<!DOCTYPE svg PUBLIC "-//W3C//DTD SVG 20010904//EN"
 "http://www.w3.org/TR/2001/REC-SVG-20010904/DTD/svg10.dtd">
<svg version="1.0" xmlns="http://www.w3.org/2000/svg"
 width="1280.000000pt" height="975.000000pt" viewBox="0 0 1280.000000 975.000000"
 preserveAspectRatio="xMidYMid meet">
<metadata>
Created by potrace 1.15, written by Peter Selinger 2001-2017
</metadata>
<g transform="translate(0.000000,975.000000) scale(0.100000,-0.100000)"
fill="#000000" stroke="none">
<path d="M6315 9735 c-22 -8 -41 -15 -42 -15 -2 0 -3 -4 -3 -9 0 -5 9 -13 21
-16 33 -11 18 -15 -82 -25 -100 -10 -226 -37 -234 -50 -3 -4 26 -11 63 -16
l67 -8 -70 -7 c-38 -4 -83 -10 -100 -13 l-30 -6 25 19 c20 16 22 22 11 34 -20
25 -66 30 -100 12 -39 -20 -39 -42 0 -59 l31 -13 -59 -17 c-118 -33 -99 -38
142 -34 127 2 221 3 210 1 -11 -2 -54 -11 -95 -20 l-75 -17 40 -7 c22 -4 82
-8 134 -8 105 -1 113 -8 23 -21 -33 -4 -87 -14 -119 -21 l-58 -12 35 -8 c19
-5 152 -12 295 -16 236 -6 255 -8 207 -19 -30 -7 -56 -15 -59 -17 -3 -3 17
-12 43 -21 l49 -15 -115 0 c-161 -1 -406 -33 -395 -51 3 -4 64 -11 137 -16 73
-4 126 -9 118 -10 -8 -2 -62 -10 -120 -19 -58 -9 -109 -20 -113 -24 -10 -10
115 -19 366 -28 108 -3 197 -10 197 -15 0 -4 -12 -8 -27 -9 -16 0 -37 -4 -48
-9 -19 -7 -18 -9 8 -19 16 -6 36 -12 45 -13 9 -1 -59 -4 -153 -8 -246 -11
-403 -41 -274 -54 35 -3 98 -9 139 -13 l75 -7 -70 -8 c-83 -10 -178 -28 -173
-34 6 -5 306 -31 468 -40 122 -7 130 -8 85 -16 -68 -12 -75 -23 -26 -39 38
-13 28 -14 -126 -14 -164 0 -340 -20 -311 -35 7 -4 67 -14 133 -21 66 -7 107
-15 90 -16 -103 -10 -195 -26 -188 -33 4 -5 71 -16 148 -24 293 -33 667 -54
650 -38 -12 12 -165 61 -198 64 -12 1 28 4 88 7 l110 6 -75 24 c-111 35 -123
41 -75 39 74 -3 135 2 135 11 0 12 -89 49 -141 58 -41 7 -38 8 41 13 81 5 84
6 55 19 -16 7 -75 23 -130 36 l-100 24 120 1 c134 1 136 8 8 39 l-78 18 88 7
c48 4 87 11 87 16 0 11 -77 38 -151 55 l-64 13 100 2 c96 2 99 2 67 16 -17 8
-83 24 -145 37 l-112 22 135 5 135 5 -90 22 c-49 12 -99 24 -110 26 -11 2 22
7 73 11 50 4 92 11 92 15 0 11 -86 40 -165 55 l-70 14 93 1 c50 1 92 5 92 10
0 10 -186 51 -230 51 -17 0 -30 5 -30 10 0 6 38 10 95 10 52 0 95 4 95 8 0 9
-135 42 -171 42 -36 0 -11 18 36 24 25 4 45 11 45 16 0 17 -88 43 -160 47 -74
4 -160 -12 -163 -31 -1 -5 14 -15 33 -22 33 -12 29 -13 -61 -13 -53 -1 -125
-3 -160 -6 -53 -4 -49 -2 26 10 50 7 101 18 115 23 24 9 23 10 -15 17 -107 20
-113 23 -37 24 85 1 261 20 280 30 12 7 -42 23 -123 36 l-40 7 38 13 c48 16
55 24 37 36 -48 30 -150 37 -215 14z"/>
<path d="M5797 9490 c-41 -11 -121 -49 -115 -55 2 -3 22 -8 44 -13 l39 -9 -52
-23 c-29 -12 -53 -26 -53 -30 0 -10 52 -20 109 -21 l46 0 -78 -24 c-43 -12
-81 -26 -84 -29 -4 -3 34 -6 83 -7 l89 -1 -55 -14 c-30 -7 -77 -23 -103 -36
-55 -25 -46 -36 33 -38 l45 -1 -64 -24 c-35 -13 -68 -28 -73 -33 -13 -13 81
-24 140 -17 54 6 41 0 -76 -36 -40 -12 -74 -25 -76 -28 -2 -3 39 -5 92 -4 l97
3 -53 -15 c-29 -8 -76 -25 -104 -37 l-52 -22 35 -9 c19 -5 53 -7 76 -4 24 2
40 1 37 -4 -3 -5 -12 -9 -19 -9 -23 0 -125 -44 -125 -54 0 -5 49 -7 110 -4 61
3 110 4 108 3 -2 -1 -46 -15 -98 -30 -139 -39 -142 -47 -15 -40 l110 5 -83
-25 c-46 -14 -100 -34 -120 -45 l-37 -21 97 4 c54 1 96 2 95 1 -1 -1 -45 -16
-97 -34 -134 -44 -137 -54 -15 -46 55 4 116 9 135 11 30 4 32 4 10 -4 -14 -5
-65 -21 -115 -34 -105 -29 -150 -46 -143 -52 2 -2 60 2 129 10 166 20 171 18
54 -14 -171 -48 -254 -88 -160 -77 28 3 84 8 125 11 l75 5 -75 -23 c-41 -13
-95 -33 -120 -44 -57 -27 -43 -28 142 -7 132 14 190 14 116 -1 -52 -10 -202
-56 -210 -64 -5 -4 45 -1 110 5 170 18 189 16 81 -11 -90 -22 -234 -74 -227
-81 4 -3 177 11 253 21 22 3 -16 -14 -85 -36 -69 -23 -119 -44 -112 -46 7 -3
94 3 193 12 100 9 183 14 187 11 3 -3 -3 -6 -14 -6 -26 0 -217 -49 -226 -58
-4 -4 34 -4 85 0 51 3 117 6 147 6 55 1 55 0 -32 -18 -151 -32 -303 -89 -203
-76 22 3 90 7 150 10 l110 5 -90 -24 c-49 -13 -108 -31 -130 -39 -39 -16 -35
-16 105 -11 80 3 170 7 200 10 47 4 41 1 -45 -20 -55 -14 -104 -30 -109 -35
-7 -7 28 -10 100 -11 l109 -1 -100 -18 c-101 -19 -233 -54 -244 -66 -3 -3 64
-4 149 0 l155 6 -90 -20 c-49 -10 -117 -28 -150 -39 l-60 -20 195 5 c107 3
215 7 240 9 59 6 27 -9 -55 -25 -72 -15 -54 -28 39 -29 33 -1 57 -3 55 -6 -3
-2 -57 -11 -120 -20 -116 -15 -246 -45 -303 -69 -28 -13 -16 -14 109 -10 l140
4 -64 -15 c-92 -22 -201 -55 -201 -62 0 -3 48 -3 108 0 l107 6 -80 -22 c-79
-23 -145 -52 -145 -64 0 -6 265 3 330 12 19 3 -1 -4 -45 -14 -142 -34 -143
-38 -3 -46 70 -4 132 -4 139 1 8 4 10 3 5 -4 -4 -7 -16 -12 -27 -12 -34 0
-149 -32 -149 -41 0 -5 39 -9 88 -10 l87 -1 -90 -13 c-49 -7 -108 -16 -130
-19 l-40 -7 33 22 c40 27 32 39 -32 46 -45 5 -46 6 -30 24 16 18 15 20 -20 34
-31 13 -41 13 -68 2 -18 -8 -39 -21 -47 -31 -12 -15 -11 -18 17 -28 l32 -12
-28 -23 c-23 -19 -25 -24 -12 -33 8 -5 40 -10 70 -10 l55 -1 -50 -18 c-106
-40 -106 -40 -20 -41 l80 -2 -59 -14 c-32 -8 -88 -29 -125 -47 l-66 -32 70 -5
70 -5 -65 -13 c-230 -48 -542 -200 -700 -341 l-45 -41 114 56 c216 106 557
240 584 231 6 -2 -12 -11 -39 -21 -52 -20 -164 -74 -164 -80 0 -2 53 10 118
25 148 36 171 36 62 0 -170 -56 -377 -163 -470 -242 l-35 -30 40 17 c138 57
304 123 325 128 14 4 -16 -15 -66 -41 -91 -49 -207 -123 -201 -130 2 -2 37 11
78 28 194 80 524 178 655 193 48 6 48 6 -11 -9 -69 -17 -208 -66 -202 -71 2
-2 59 3 126 12 68 8 126 12 129 9 3 -3 -3 -5 -14 -5 -40 0 -232 -52 -319 -87
-76 -30 -265 -128 -265 -138 0 -1 48 13 108 32 122 39 303 86 308 80 2 -2 -22
-12 -54 -21 -65 -21 -207 -86 -237 -109 -13 -10 30 -2 130 24 82 21 204 48
270 59 124 20 413 46 422 37 2 -3 -31 -8 -74 -12 -78 -7 -213 -31 -222 -40 -2
-3 46 -5 108 -5 62 0 110 -4 107 -8 -3 -5 -47 -12 -98 -15 -51 -3 -138 -18
-193 -32 -96 -24 -260 -84 -252 -91 2 -2 56 5 120 16 63 10 153 22 199 25 l83
5 -65 -15 c-79 -17 -229 -65 -234 -74 -3 -4 39 0 92 7 149 21 482 20 622 -2
63 -9 131 -21 150 -26 l35 -9 -35 5 c-19 2 -96 7 -170 9 l-135 5 124 -30 c68
-16 127 -33 130 -36 3 -4 -5 -4 -19 -1 -14 3 -76 11 -137 18 -122 13 -277 3
-378 -25 l-50 -14 61 -1 c78 -1 296 -19 352 -29 32 -5 11 -7 -80 -9 -67 -1
-143 -6 -168 -11 l-45 -9 35 -6 c19 -3 85 -11 145 -17 317 -34 660 -173 922
-375 47 -37 87 -64 90 -61 11 10 -225 234 -284 271 -35 21 -63 40 -63 42 0 8
147 -71 247 -133 47 -29 -77 93 -134 133 -66 45 -68 54 -5 18 97 -57 217 -146
342 -255 55 -48 70 -57 56 -35 -126 202 -367 389 -631 491 -103 39 -43 26 89
-20 69 -24 126 -42 126 -41 0 1 -28 21 -62 43 -76 49 -188 102 -281 132 -114
37 -69 33 92 -8 83 -21 151 -38 151 -36 0 7 -115 65 -177 89 -40 16 -71 30
-70 32 11 11 312 -98 471 -172 97 -44 84 -25 -37 56 -191 128 -389 203 -615
234 -129 17 -49 18 98 1 63 -8 116 -13 118 -11 14 13 -221 77 -343 94 -60 9
-48 9 88 7 86 -1 157 -2 157 0 0 5 -114 36 -180 49 -50 10 -57 13 -30 14 51 1
298 -36 424 -65 60 -13 111 -22 113 -20 7 7 -107 57 -208 91 -149 51 -328 81
-509 86 -69 2 -53 5 100 16 l95 6 -70 14 c-38 8 -133 17 -210 21 l-140 7 120
13 c66 7 138 16 160 19 l40 7 -45 7 c-25 4 -72 8 -105 9 -33 1 -69 6 -80 11
-13 6 89 8 280 6 l300 -3 -60 18 c-173 54 -490 76 -673 48 -41 -7 -75 -10 -78
-8 -5 5 210 48 246 49 21 1 19 2 -10 11 -20 6 -84 8 -150 5 -78 -3 -104 -2
-80 4 168 43 211 68 117 69 -76 0 -25 17 70 23 197 13 354 30 346 38 -4 4 -42
14 -83 22 -73 15 -69 15 155 11 218 -4 228 -3 195 12 -19 9 -75 27 -125 40
l-90 24 118 -4 c64 -2 117 -1 117 4 0 4 -37 18 -82 29 -46 12 -87 24 -93 26
-5 2 28 4 75 4 114 2 129 13 55 40 -32 12 -80 27 -107 32 -26 6 -48 12 -48 15
0 2 48 1 108 -2 71 -3 102 -2 92 4 -19 13 -123 40 -215 57 l-70 13 150 2 150
2 -85 23 c-47 12 -105 27 -130 33 -39 8 -26 10 90 12 123 1 132 3 105 15 -16
8 -64 21 -105 31 -129 29 -128 31 10 27 86 -3 130 -1 120 5 -20 12 -135 41
-230 57 l-75 13 145 2 145 2 -60 19 c-34 10 -97 25 -140 34 l-80 15 170 -5
c101 -3 165 -1 160 4 -16 15 -213 61 -289 67 -113 10 -112 23 2 24 57 0 101 4
98 8 -5 9 -149 37 -256 50 -63 8 -61 8 69 16 144 9 151 16 31 36 -41 6 -82 14
-90 16 -17 4 313 -4 453 -11 l92 -5 -45 16 c-25 8 -81 23 -125 33 l-80 18 149
-5 c154 -5 172 0 99 30 -21 9 -49 20 -63 26 -20 9 -9 11 58 11 51 1 81 5 77
11 -11 18 -190 68 -289 80 -98 13 -221 9 -267 -9 -22 -8 -19 -10 31 -24 30 -8
73 -19 95 -23 l40 -7 -60 -9 c-33 -5 -64 -13 -68 -17 -5 -5 24 -18 65 -30 l73
-21 -65 6 c-36 4 -119 10 -185 13 l-120 7 91 8 c158 14 137 23 -121 52 l-60 7
105 13 c58 7 112 13 120 14 33 3 -37 21 -114 29 l-81 8 100 3 c55 2 192 3 305
2 194 -1 203 -1 160 13 -98 33 -349 64 -530 66 -86 1 -90 2 -45 10 28 4 66 11
85 15 l35 7 -35 8 c-19 4 -82 11 -140 15 -58 4 -98 9 -90 10 157 25 213 38
195 45 -11 4 -40 8 -65 9 -25 1 -54 5 -65 9 -12 5 58 11 165 15 302 10 401 18
360 27 -105 24 -270 39 -433 40 l-182 1 73 15 c39 9 72 19 72 23 0 5 -39 11
-87 15 -49 3 -99 7 -113 8 -14 1 13 10 60 20 46 9 88 21 93 26 6 6 -18 12 -62
17 -39 3 -70 8 -69 9 2 1 118 10 258 20 140 10 264 21 275 25 44 16 -161 35
-374 35 -194 0 -209 1 -165 13 27 7 56 16 64 19 25 10 -27 21 -105 23 -77 2
-72 7 30 36 48 13 56 18 40 25 -11 4 -40 8 -64 8 -24 1 -42 3 -40 5 2 2 110
14 239 26 129 12 251 25 270 29 l35 7 -35 7 c-135 26 -341 33 -475 18 -38 -5
-71 -7 -73 -6 -2 2 20 11 49 20 61 20 53 29 -36 40 l-60 7 40 13 c23 6 50 17
60 23 22 12 22 11 -45 29 -30 8 -19 10 73 16 106 8 318 31 387 44 31 5 32 7
12 14 -52 19 -280 30 -398 19 -64 -6 -119 -9 -121 -6 -2 2 12 9 31 16 20 6 36
15 36 20 0 5 -24 12 -52 17 l-53 9 36 16 c69 30 57 45 -40 53 -31 2 -73 0 -94
-5z m986 -1227 c-7 -2 -21 -2 -30 0 -10 3 -4 5 12 5 17 0 24 -2 18 -5z m-345
-647 c-69 -15 -80 -23 -42 -31 78 -18 78 -23 -1 -24 -44 -1 -105 -3 -135 -6
l-55 -5 58 15 c32 8 66 19 75 24 14 8 12 11 -13 16 -92 19 -85 23 40 23 127 0
129 0 73 -12z m-141 -642 c-3 -3 -12 -4 -19 -1 -8 3 -5 6 6 6 11 1 17 -2 13
-5z m-150 -20 c-3 -3 -12 -4 -19 -1 -8 3 -5 6 6 6 11 1 17 -2 13 -5z m778
-495 c14 -6 9 -7 -15 -3 -19 4 -44 11 -55 15 -14 6 -9 7 15 3 19 -4 44 -11 55
-15z"/>
<path d="M6813 8683 c-33 -6 -28 -19 15 -36 43 -19 40 -19 -98 -7 -107 9 -298
-2 -329 -19 -17 -10 3 -15 144 -36 l80 -12 -67 -7 c-37 -4 -80 -11 -95 -15
l-28 -8 40 -11 c88 -24 339 -54 495 -58 150 -5 163 -4 139 10 -14 8 -59 24
-99 35 -40 11 -74 22 -76 24 -2 1 43 1 99 -1 115 -5 119 4 15 38 -38 12 -68
22 -68 23 0 1 27 2 59 3 33 1 67 4 77 8 16 6 16 8 -2 21 -53 41 -209 66 -301
48z"/>
<path d="M6995 8455 c-5 -2 -22 -6 -37 -9 -16 -4 -28 -10 -28 -14 0 -14 75
-51 116 -57 44 -7 98 9 92 27 -8 24 -112 62 -143 53z"/>
<path d="M5517 8380 c-7 -26 16 -55 37 -47 19 7 21 38 4 55 -18 18 -35 15 -41
-8z"/>
<path d="M5676 8204 c-19 -19 -20 -36 -4 -52 26 -26 58 -8 58 33 0 25 -36 37
-54 19z"/>
<path d="M6750 8184 c-8 -3 -22 -8 -30 -11 -23 -7 23 -41 67 -49 l36 -7 -26
-14 c-37 -19 -34 -28 16 -52 49 -24 89 -26 137 -9 l34 11 -34 29 -34 28 34 0
c51 0 67 13 38 31 -48 30 -85 41 -153 45 -38 2 -77 1 -85 -2z"/>
<path d="M5790 7995 c-25 -27 -25 -27 7 -44 34 -17 59 -13 93 16 30 25 31 27
14 40 -30 22 -87 16 -114 -12z"/>
<path d="M6902 7934 c-10 -19 -4 -54 9 -54 14 0 29 37 23 54 -8 21 -21 20 -32
0z"/>
<path d="M5884 7796 c-28 -13 -55 -29 -58 -35 -20 -32 162 -26 242 9 57 25 64
35 30 44 -57 15 -163 6 -214 -18z"/>
<path d="M6643 7380 c-29 -12 -29 -16 2 -33 22 -11 8 -13 -107 -12 -125 0
-262 -18 -273 -35 -3 -4 48 -13 113 -20 64 -7 135 -16 157 -20 40 -8 40 -8
-15 -9 -74 -2 -160 -12 -160 -20 0 -3 74 -16 165 -29 202 -29 447 -77 658
-131 87 -23 161 -41 165 -41 14 1 -94 63 -153 90 -72 32 -197 74 -280 94 l-60
14 70 2 c66 1 69 2 45 15 -14 8 -54 25 -90 37 l-65 23 48 5 c26 3 48 10 49 15
1 6 -20 21 -47 34 -53 27 -181 39 -222 21z"/>
<path d="M6930 7089 c135 -51 210 -83 207 -86 -2 -2 -22 3 -45 11 -119 42
-413 82 -502 68 -29 -4 -16 -9 88 -33 149 -34 284 -70 280 -75 -2 -2 -46 4
-97 12 -51 8 -121 14 -155 12 l-61 -3 110 -29 c135 -35 309 -94 435 -148 109
-46 310 -146 310 -153 0 -3 -21 5 -47 19 -99 49 -295 122 -268 98 6 -5 53 -34
105 -64 131 -78 151 -96 49 -45 -109 55 -278 111 -393 131 -49 9 -91 14 -93
12 -2 -2 59 -29 134 -60 117 -48 300 -137 253 -122 -8 3 -56 18 -107 35 -51
17 -111 33 -135 37 -38 5 -32 0 57 -44 350 -172 610 -367 875 -657 l73 -80
-33 60 c-50 91 -122 192 -197 275 -74 83 -65 76 80 -54 53 -48 97 -85 97 -81
0 11 -61 96 -118 165 -48 57 -42 53 47 -35 56 -55 143 -150 194 -212 50 -61
94 -110 96 -108 1 2 -19 45 -45 95 -108 204 -302 418 -503 552 -58 39 -108 73
-111 76 -12 13 105 -58 215 -131 115 -77 118 -79 87 -40 -39 49 -143 143 -232
207 -36 27 -67 50 -70 53 -10 10 96 -45 174 -91 43 -26 80 -45 83 -43 3 4 -79
78 -168 150 -102 83 172 -100 330 -221 97 -74 119 -87 100 -61 -68 96 -247
261 -372 344 -52 35 -56 40 -38 47 24 9 25 9 10 42 -22 47 -105 62 -103 18 0
-12 0 -22 -1 -22 -1 0 -45 20 -96 44 -166 78 -402 147 -496 145 l-28 0 25 -10z"/>
<path d="M5190 7011 c-73 -22 -163 -88 -194 -141 l-19 -33 29 7 c63 15 170 76
219 125 l49 51 -29 -1 c-17 0 -41 -4 -55 -8z"/>
<path d="M5410 6946 c-184 -71 -353 -172 -503 -299 l-82 -69 106 106 c58 58
103 106 100 106 -24 0 -200 -124 -291 -204 l-45 -40 35 39 c19 22 80 87 135
144 55 58 88 97 73 88 -71 -43 -87 -54 -146 -100 -35 -27 -65 -47 -67 -45 -2
2 61 64 140 138 79 74 142 137 139 139 -5 6 -160 -86 -224 -133 -30 -22 -77
-61 -104 -86 -77 -71 -50 -30 43 65 46 47 82 88 79 90 -8 9 -161 -104 -250
-185 l-83 -75 80 93 c170 198 164 189 130 168 -59 -37 -144 -106 -223 -181
-79 -75 -80 -75 -61 -34 11 22 18 43 15 46 -11 12 -99 -51 -135 -97 -40 -50
-76 -129 -69 -150 2 -7 13 -4 31 10 15 12 27 20 27 17 0 -2 -30 -48 -66 -102
-70 -105 -152 -261 -189 -360 -31 -82 -57 -171 -47 -160 5 6 48 76 96 158 86
146 118 190 72 100 -27 -54 -90 -223 -100 -268 -4 -16 31 33 76 110 87 145
262 410 279 421 5 3 -5 -19 -22 -48 -17 -29 -40 -73 -51 -98 l-19 -45 54 60
c30 33 66 74 81 90 15 17 -3 -14 -39 -68 -35 -53 -89 -148 -120 -210 -51 -106
-111 -265 -102 -273 2 -2 41 58 86 133 105 177 133 211 77 98 -40 -83 -96
-232 -96 -258 0 -6 31 42 70 107 82 138 197 308 287 423 80 103 101 118 35 26
-27 -37 -64 -95 -82 -128 l-32 -60 102 105 c57 59 82 81 57 50 -108 -133 -216
-325 -271 -478 -37 -105 -32 -108 23 -15 52 85 147 231 163 248 5 6 -11 -28
-36 -75 -40 -77 -111 -258 -103 -266 1 -2 32 45 67 104 78 128 174 262 285
397 94 115 144 162 68 65 -54 -70 -123 -174 -123 -187 0 -4 48 40 107 97 59
58 89 85 67 60 -70 -76 -150 -186 -203 -278 -47 -83 -127 -270 -118 -278 2 -2
26 31 52 74 59 93 165 242 172 242 3 0 -2 -11 -11 -25 -54 -82 -144 -280 -133
-291 2 -2 38 47 80 109 102 151 189 257 314 385 75 76 89 88 51 42 -72 -85
-137 -177 -118 -165 8 5 49 38 90 75 115 101 123 103 30 5 -130 -137 -226
-283 -279 -425 -24 -64 -32 -72 93 95 41 55 91 118 111 140 31 34 28 29 -16
-38 -48 -74 -135 -245 -127 -252 2 -2 37 42 78 97 89 121 249 290 363 385 115
96 134 108 52 31 -76 -71 -165 -173 -128 -148 119 82 203 138 183 120 -165
-141 -254 -243 -326 -372 -61 -106 -66 -135 -13 -68 23 30 90 102 148 160 58
58 91 89 74 70 -55 -63 -110 -144 -149 -215 l-37 -70 71 76 c190 203 327 315
517 419 77 43 69 34 -25 -28 -41 -27 -95 -68 -120 -91 l-45 -42 65 35 c72 39
180 88 180 82 0 -2 -26 -19 -57 -36 -86 -49 -160 -106 -236 -183 -65 -66 -176
-217 -159 -217 4 0 32 25 62 56 57 57 155 140 225 189 30 20 24 13 -22 -31
-62 -58 -173 -191 -173 -207 0 -4 34 22 76 58 85 75 228 171 324 220 77 38
240 100 290 109 19 4 -3 -8 -50 -27 -80 -30 -180 -82 -180 -92 0 -3 12 0 28 6
38 15 225 59 229 55 2 -2 -29 -14 -69 -26 -90 -27 -218 -94 -295 -153 -60 -47
-163 -147 -150 -147 3 0 41 23 82 51 69 46 250 139 271 139 4 0 -24 -20 -64
-44 -65 -41 -186 -136 -179 -142 1 -2 59 25 128 60 219 110 468 157 674 127
39 -6 20 -8 -90 -12 -180 -6 -219 -23 -73 -32 155 -10 178 -22 40 -23 -88 0
-136 -6 -195 -22 -82 -23 -185 -70 -227 -102 -25 -20 -24 -20 33 0 85 28 189
48 292 54 76 4 83 3 45 -5 -25 -6 -72 -17 -105 -24 -61 -14 -160 -53 -153 -61
2 -2 22 2 44 8 23 7 102 12 194 12 139 0 164 -3 243 -27 247 -76 429 -225 548
-450 45 -84 48 -77 15 27 -33 104 -87 196 -164 279 -89 94 -28 53 81 -55 42
-42 77 -74 77 -71 0 16 -78 130 -123 180 l-52 58 43 -34 c80 -62 186 -195 256
-321 42 -76 46 -61 12 40 -56 166 -180 325 -330 424 -74 50 -216 116 -247 116
-7 0 -10 3 -6 6 9 9 114 -24 196 -62 41 -19 76 -32 78 -30 7 6 -116 91 -172
118 -52 26 -156 62 -213 73 -18 4 -31 9 -29 11 6 6 164 -21 237 -41 30 -8 56
-12 58 -10 6 6 -95 55 -168 82 -54 19 -58 22 -25 17 75 -10 249 -75 364 -134
l115 -60 -35 36 c-149 156 -422 262 -688 265 -117 2 -96 7 69 17 l125 8 -98
18 c-73 14 -129 17 -223 14 -69 -2 -117 -1 -106 3 26 10 224 39 270 40 66 1
-2 17 -113 27 l-100 8 120 8 c107 8 307 -2 420 -20 52 -8 -50 35 -135 57 -189
49 -399 47 -595 -5 -49 -13 -92 -23 -94 -21 -1 2 50 20 115 40 179 55 180 56
82 50 -99 -6 -201 -25 -284 -55 -32 -11 -59 -18 -61 -16 -4 4 120 58 222 96
72 26 76 29 43 30 -32 0 -63 -6 -198 -35 l-25 -6 25 12 c89 40 358 103 492
116 38 3 71 9 73 14 8 11 -175 22 -257 14 -179 -17 -341 -62 -493 -137 -128
-64 -71 -24 76 53 88 46 122 68 99 64 -60 -11 -235 -72 -302 -106 -94 -47 -58
-18 93 72 74 45 127 79 119 77 -8 -3 -41 -13 -74 -22 -32 -10 -83 -28 -114
-42 -30 -13 -57 -23 -59 -21 -1 2 59 33 135 70 116 55 271 116 422 165 31 10
26 11 -39 7 -209 -15 -453 -99 -644 -224 -115 -75 -86 -47 45 44 141 98 142
99 88 80 -77 -27 -205 -93 -277 -141 -103 -71 -49 -19 92 87 68 51 122 95 120
97 -2 3 -55 -21 -117 -52 -62 -30 -102 -47 -88 -37 61 48 235 149 378 221 87
44 151 80 144 80 -24 0 -167 -39 -237 -66 -119 -44 -278 -131 -384 -209 -55
-41 -101 -73 -101 -71 0 2 49 45 110 96 60 52 108 95 107 97 -7 6 -168 -86
-229 -131 -35 -25 -76 -55 -93 -67 -34 -24 54 61 168 162 42 38 75 69 72 69
-13 0 -106 -52 -168 -93 -101 -68 -69 -36 62 62 99 74 190 134 391 259 50 31
19 26 -80 -12z m887 -852 c-3 -3 -12 -4 -19 -1 -8 3 -5 6 6 6 11 1 17 -2 13
-5z m-110 -20 c-3 -3 -12 -4 -19 -1 -8 3 -5 6 6 6 11 1 17 -2 13 -5z m456
-221 c-7 -2 -21 -2 -30 0 -10 3 -4 5 12 5 17 0 24 -2 18 -5z m44 -9 c-3 -3
-12 -4 -19 -1 -8 3 -5 6 6 6 11 1 17 -2 13 -5z"/>
<path d="M4820 6932 c0 -21 18 -42 37 -42 16 0 17 32 1 48 -18 18 -38 15 -38
-6z"/>
<path d="M7875 6775 l120 -116 -90 64 c-49 36 -126 83 -170 107 l-80 42 35
-33 c20 -19 93 -85 162 -147 228 -205 411 -420 598 -702 82 -124 86 -127 55
-47 -31 83 -96 214 -143 287 -48 76 -20 49 68 -64 41 -53 76 -93 78 -91 3 3
-20 54 -50 115 -30 60 -54 110 -52 110 5 0 174 -259 229 -353 32 -54 59 -96
61 -94 8 8 -57 182 -102 273 -49 100 -140 246 -203 324 l-36 45 53 -43 c57
-48 63 -43 31 21 -39 76 -106 162 -187 238 -76 71 -187 148 -198 136 -3 -3 25
-42 62 -88 57 -70 61 -78 28 -51 -58 49 -154 117 -199 143 -33 18 -21 3 63
-83 56 -58 102 -108 102 -112 0 -3 -30 19 -67 50 -73 62 -173 129 -243 163
-40 20 -33 10 75 -94z"/>
<path d="M11750 6846 c0 -56 162 -672 229 -871 l31 -90 -5 110 c-3 61 -8 126
-10 145 -3 19 12 -18 34 -83 21 -65 42 -121 46 -125 8 -7 0 140 -11 221 -3 28
7 7 31 -63 20 -58 40 -109 46 -115 11 -11 11 75 0 153 -9 62 -2 57 23 -18 11
-30 26 -68 35 -85 l16 -30 6 60 c3 33 6 53 7 45 1 -8 13 -28 26 -45 22 -27 22
-31 8 -52 -9 -16 -21 -22 -32 -18 -11 4 -25 -3 -36 -17 -12 -15 -27 -22 -42
-20 -17 3 -25 -2 -29 -17 -3 -13 -14 -21 -27 -21 -31 0 -50 -16 -43 -34 8 -20
56 -21 63 -1 4 10 14 13 29 9 17 -4 27 0 36 14 10 17 17 19 33 10 15 -8 22 -6
35 11 11 14 23 19 38 15 15 -4 25 0 34 14 10 16 16 18 31 8 16 -9 22 -7 37 14
17 21 21 22 35 11 14 -12 19 -11 31 5 8 10 15 23 15 27 0 4 9 3 19 -3 27 -14
27 -14 40 19 9 21 17 27 35 24 16 -3 25 2 34 21 7 17 17 24 27 20 20 -8 45 13
45 38 0 10 -10 22 -22 27 -15 5 -18 10 -9 15 7 5 22 -1 36 -14 20 -19 27 -21
40 -10 8 7 15 21 15 31 0 21 15 25 25 8 10 -16 45 20 45 46 0 23 -28 55 -48
55 -6 0 -16 -9 -22 -20 -9 -17 -14 -18 -31 -7 -17 10 -22 9 -35 -7 -8 -11 -14
-26 -14 -33 0 -7 -11 -13 -24 -13 -13 0 -29 -7 -36 -15 -10 -12 -9 -16 8 -22
18 -7 19 -11 8 -26 -8 -10 -24 -16 -37 -15 -15 2 -26 -4 -34 -18 -8 -16 -14
-19 -27 -11 -19 13 -48 -6 -48 -31 0 -13 -2 -13 -18 1 -16 15 -17 23 -8 61
l10 44 19 -30 c24 -40 36 -24 37 47 l1 50 27 -50 27 -50 3 73 c3 67 -7 147
-23 197 -4 11 4 3 16 -17 13 -21 27 -38 32 -38 6 0 7 37 5 88 -6 96 -34 185
-74 230 l-23 27 -2 -30 c-2 -44 1 -96 7 -130 5 -30 5 -30 -17 8 -28 46 -39 47
-39 5 0 -37 17 -156 27 -197 l6 -26 -25 30 -26 30 -7 -47 c-4 -26 -4 -60 -1
-75 l7 -28 -19 24 c-23 29 -37 22 -46 -20 -6 -32 -6 -32 -27 -13 -17 16 -22
16 -29 4 -6 -8 -10 -24 -10 -34 0 -18 -2 -18 -26 4 -21 21 -27 22 -34 10 -5
-8 -10 -24 -11 -35 0 -11 -9 18 -20 65 -10 47 -29 114 -40 150 -24 70 -75 180
-86 180 -3 0 -3 -33 0 -72 l6 -73 -38 100 c-72 189 -106 230 -82 99 18 -95 12
-94 -28 6 -48 121 -100 221 -100 195 -1 -11 10 -69 24 -130 14 -60 25 -112 25
-115 0 -3 -18 36 -39 85 -55 130 -91 198 -91 171z m652 -781 c-12 -16 -22 -20
-33 -14 -14 7 -14 14 -5 43 l11 35 22 -21 c21 -20 21 -22 5 -43z m-68 -31 c-9
-13 -22 -20 -30 -17 -16 6 -16 9 -8 52 l7 32 23 -22 c21 -20 22 -23 8 -45z"/>
<path d="M11683 6753 c3 -38 9 -77 13 -88 5 -14 0 -11 -16 9 -20 25 -24 26
-32 11 -11 -19 -1 -103 19 -160 17 -48 59 -115 73 -115 13 0 13 95 0 140 l-10
34 30 -35 29 -34 1 56 c0 71 -21 142 -61 202 -43 65 -53 61 -46 -20z"/>
<path d="M12536 6754 c-12 -31 -6 -74 14 -94 25 -25 37 -25 50 -1 16 32 12 60
-15 86 -28 29 -40 31 -49 9z"/>
<path d="M676 6728 c-40 -53 -66 -137 -66 -213 0 -36 4 -65 8 -65 5 0 22 24
38 53 l29 52 3 -37 c2 -21 8 -38 13 -38 5 0 22 20 38 46 l29 45 7 -31 c6 -27
9 -29 23 -18 8 7 24 27 34 43 18 29 18 29 24 8 8 -30 25 -29 54 2 12 13 27 22
32 19 5 -4 1 -16 -10 -28 -32 -35 -42 -62 -42 -115 0 -58 10 -69 36 -40 19 21
19 21 24 -22 3 -23 10 -44 17 -46 6 -3 24 14 39 37 22 32 28 54 28 95 1 65 -7
75 -38 46 l-24 -22 -4 40 c-3 34 -1 41 14 41 30 0 20 20 -13 27 -32 6 -33 8
-44 56 -6 28 -6 28 -30 13 l-25 -16 0 45 c0 61 -13 59 -64 -10 -14 -19 -15
-17 -16 23 0 23 -4 42 -9 42 -4 0 -21 -18 -36 -40 -30 -44 -40 -50 -30 -21 3
10 2 28 -3 41 -8 23 -9 23 -36 -12z"/>
<path d="M11605 6575 c11 -69 35 -199 40 -220 3 -11 -15 22 -39 73 -25 50 -47
92 -50 92 -6 0 0 -42 20 -159 8 -46 13 -85 11 -87 -2 -2 -18 32 -36 76 -18 44
-36 80 -40 80 -6 0 -5 -23 13 -180 l6 -55 -14 36 c-21 55 -57 121 -62 116 -5
-4 13 -175 22 -212 3 -11 -13 16 -36 60 l-40 80 6 -90 c3 -49 7 -101 10 -115
3 -14 -9 8 -26 48 -18 39 -37 72 -42 72 -10 0 -7 -60 8 -175 5 -40 5 -40 -19
15 -46 108 -49 107 -43 -25 l4 -120 -20 43 c-24 50 -37 42 -38 -23 l-1 -40
-20 28 c-27 35 -35 34 -49 -8 -13 -41 -1 -92 30 -120 18 -16 19 -15 33 10 14
27 14 27 24 -34 5 -33 8 -61 7 -61 -2 0 -10 14 -19 30 -9 17 -20 30 -25 30 -6
0 -10 -13 -10 -30 0 -38 -16 -39 -23 -2 -10 47 -48 142 -58 142 -5 0 -9 -37
-9 -82 l-1 -83 -28 60 -27 60 -7 -34 c-4 -18 -7 -52 -7 -75 l0 -41 -20 43
c-10 23 -23 42 -28 42 -13 0 -25 -104 -17 -131 4 -12 3 -19 -2 -16 -5 3 -16
24 -23 47 -7 23 -17 43 -21 45 -10 7 -22 -135 -15 -181 l6 -39 -20 44 c-24 52
-37 46 -42 -19 -4 -48 -4 -48 -39 49 -25 72 -37 65 -39 -24 l-1 -50 -20 40
c-10 22 -23 43 -28 48 -9 9 -30 -49 -32 -88 0 -15 -4 -12 -16 13 -9 17 -20 32
-24 32 -11 0 -19 -40 -20 -105 l-1 -60 -21 63 c-11 34 -24 62 -29 62 -4 0 -9
-42 -10 -92 l-3 -93 -23 74 c-13 40 -26 70 -30 66 -4 -3 -9 -46 -12 -93 -6
-92 -7 -92 -35 2 -22 78 -34 58 -36 -59 -1 -98 1 -99 -37 35 -14 49 -16 52
-23 30 -4 -14 -8 -63 -9 -110 -2 -92 -1 -94 -37 39 -8 29 -17 50 -21 47 -3 -4
-9 -55 -12 -114 -5 -89 -7 -100 -14 -67 -4 22 -15 65 -24 95 -15 53 -16 54
-23 25 -3 -16 -7 -50 -9 -75 l-1 -45 -15 46 c-29 97 -68 76 -68 -36 0 -57 26
-135 44 -135 4 0 13 14 19 32 6 17 12 29 14 27 2 -2 0 -40 -3 -84 -5 -75 -6
-77 -13 -37 -9 53 -25 54 -33 2 -9 -58 -24 -49 -24 14 0 56 -21 182 -38 226
-10 27 -13 12 -28 -160 l-7 -75 -13 70 c-18 93 -25 108 -34 70 -4 -16 -8 -53
-9 -82 -1 -69 -17 -76 -24 -10 -3 28 -11 70 -18 92 -10 34 -13 37 -19 20 -4
-11 -11 -42 -15 -70 l-7 -50 -12 35 c-7 19 -17 44 -23 55 -11 19 -12 18 -23
-10 -6 -16 -15 -48 -19 -70 l-7 -40 -13 47 c-7 26 -17 45 -21 43 -8 -5 -27
-104 -33 -170 -2 -19 -8 -3 -16 48 -8 42 -17 77 -21 77 -4 0 -14 -53 -21 -117
l-13 -118 -13 94 c-7 52 -17 99 -23 105 -6 6 -10 6 -10 0 -1 -25 -29 -207 -33
-210 -2 -2 -7 31 -10 74 -5 61 -23 147 -26 122 -11 -86 -43 -295 -46 -299 -3
-2 -5 18 -6 45 0 27 -4 67 -8 89 -7 37 -8 38 -15 15 -3 -14 -12 -54 -20 -90
l-13 -65 -7 98 c-8 126 -17 187 -26 187 -4 0 -13 -46 -20 -102 -20 -157 -26
-166 -33 -50 -9 143 -21 156 -38 41 l-14 -94 -7 90 c-10 120 -29 221 -38 204
-4 -8 -11 -43 -16 -79 l-8 -65 -8 65 c-10 87 -38 201 -48 195 -4 -3 -11 -38
-16 -77 l-7 -73 -13 79 c-7 43 -21 111 -30 150 l-18 71 -7 -45 c-4 -25 -8
-119 -10 -210 -1 -91 -3 -154 -6 -140 -2 14 -8 55 -14 93 -6 37 -14 65 -19 62
-4 -2 -11 -42 -15 -87 l-9 -83 -8 90 c-8 94 -41 275 -57 316 -7 17 -10 -34
-11 -166 -2 -192 -5 -199 -31 -68 -6 35 -15 60 -19 58 -5 -3 -12 -58 -16 -122
l-9 -118 -6 165 c-8 188 -36 344 -93 512 -35 105 -104 264 -110 257 -3 -2 9
-58 25 -124 16 -66 28 -124 28 -130 0 -5 -15 32 -34 83 -18 51 -54 135 -79
185 -46 94 -115 211 -122 205 -2 -2 25 -87 60 -188 69 -202 94 -295 53 -200
-35 81 -98 203 -102 198 -2 -2 14 -68 36 -148 57 -210 131 -618 108 -605 -3 3
-9 22 -13 42 -4 21 -13 52 -20 68 -14 30 -14 30 -15 -25 -1 -63 -21 -109 -21
-50 0 66 -82 351 -97 337 -4 -4 13 -238 22 -307 5 -39 -1 -29 -31 55 -18 50
-18 50 -25 20 -4 -16 -8 -55 -9 -85 -3 -54 -3 -53 -11 24 -12 112 -36 222 -70
323 -16 47 -27 88 -25 90 4 4 6 0 73 -182 l44 -120 -6 65 c-11 118 -34 213
-101 410 -15 42 20 -25 67 -130 29 -63 55 -119 59 -123 11 -13 -8 84 -35 177
-13 44 -22 82 -20 84 5 5 95 -232 142 -373 l43 -130 -4 81 c-21 357 -240 802
-520 1055 -56 50 -57 51 36 -91 38 -58 54 -87 36 -65 -103 126 -346 345 -383
345 -5 0 13 -24 41 -52 64 -67 155 -174 218 -258 l49 -65 -64 65 c-67 68 -172
160 -182 160 -4 0 28 -44 70 -97 124 -159 248 -356 344 -547 49 -98 89 -183
89 -190 0 -6 -22 32 -48 84 -46 92 -121 214 -128 207 -2 -1 15 -51 36 -111 22
-59 40 -110 40 -114 0 -4 -22 34 -48 83 -62 118 -131 220 -198 292 l-54 58 36
-65 c36 -66 139 -277 155 -317 14 -38 3 -26 -29 30 -32 57 -113 169 -119 164
-1 -2 14 -41 33 -88 57 -133 122 -321 159 -463 40 -150 42 -166 14 -113 -24
46 -39 47 -39 2 0 -19 -4 -35 -10 -35 -5 0 -10 12 -10 28 0 64 -63 225 -98
255 -13 10 -14 3 -9 -63 3 -41 9 -92 13 -113 6 -32 4 -37 -10 -31 -42 16 -63
-53 -24 -80 20 -14 24 -14 39 0 16 14 19 9 44 -65 15 -45 30 -81 35 -81 4 0
11 24 15 53 l8 52 7 -55 c8 -64 38 -160 50 -160 12 0 19 24 27 88 l7 57 12
-70 c6 -38 15 -92 19 -120 l9 -50 7 45 c4 25 8 99 9 165 l2 120 13 -70 c7 -38
19 -115 26 -170 16 -126 26 -99 29 80 2 156 13 128 30 -80 6 -77 14 -160 17
-185 l6 -45 13 60 c7 33 14 85 15 115 l2 55 8 -45 c4 -25 8 -76 9 -115 1 -38
5 -88 9 -110 l8 -40 12 30 c7 17 19 59 26 95 l13 65 2 -70 c1 -38 5 -95 9
-125 l6 -55 17 60 c9 33 20 80 25 105 6 36 9 18 13 -95 l5 -140 24 70 c13 38
30 105 37 150 l12 80 1 -129 c1 -71 4 -126 7 -123 20 20 46 197 51 347 7 179
16 175 28 -10 7 -99 23 -170 25 -110 1 14 7 77 14 140 l12 115 7 -161 c4 -89
4 -210 1 -270 -3 -70 -2 -104 4 -94 12 19 52 219 52 261 0 18 3 30 6 27 3 -3
-2 -90 -10 -193 -9 -103 -16 -212 -16 -243 1 -55 1 -56 15 -31 8 15 26 65 40
110 l26 84 -6 -85 c-3 -47 -8 -107 -10 -135 l-5 -50 20 42 c11 23 31 81 44
130 14 48 25 84 25 78 1 -5 -6 -73 -14 -149 -8 -77 -13 -142 -10 -144 12 -12
65 137 94 268 l19 85 2 -95 2 -95 24 75 c13 41 29 107 36 145 14 92 27 115 28
50 1 -80 14 -86 39 -19 12 33 19 48 17 34 -9 -46 -19 -365 -12 -359 4 4 18 38
31 75 30 84 30 84 4 -116 -11 -89 -18 -167 -16 -173 5 -15 39 61 68 153 13 38
24 68 26 66 2 -1 -4 -56 -13 -120 -8 -65 -13 -120 -11 -123 6 -5 62 130 77
186 16 63 22 45 10 -35 -5 -38 -10 -89 -10 -114 l0 -45 22 45 c11 25 34 83 49
130 l29 85 -6 -95 c-4 -67 -2 -91 5 -80 15 21 61 160 82 245 l17 70 1 -80 c2
-94 11 -87 47 35 l22 75 -5 -140 c-3 -77 -2 -137 1 -133 4 3 21 46 36 95 l29
88 1 -82 c0 -46 4 -83 9 -83 9 0 57 101 63 135 2 11 7 -4 11 -33 4 -29 11 -51
16 -48 4 3 16 30 26 60 l19 55 15 -35 16 -36 25 27 c20 22 25 37 25 80 0 64
-15 87 -42 63 -17 -16 -18 -10 -18 127 0 211 -24 217 -60 16 -8 -46 -16 -86
-18 -88 -3 -2 -7 15 -11 37 -7 46 -21 45 -31 0 -4 -16 -11 -33 -17 -37 -8 -4
-9 0 -5 11 4 10 7 54 7 99 1 83 11 89 24 13 4 -21 11 -35 15 -30 16 17 35 90
41 159 l6 70 15 -35 16 -35 15 29 c14 27 15 20 21 -124 8 -181 18 -210 42
-125 9 33 18 65 20 70 2 6 4 -45 4 -112 1 -67 5 -124 10 -128 12 -7 28 41 51
153 l18 87 2 -75 c1 -41 5 -86 9 -100 6 -23 8 -21 19 20 7 25 19 74 26 110
l13 65 7 -72 c4 -40 11 -75 16 -78 11 -7 39 78 47 143 7 64 23 50 23 -20 0
-26 4 -49 9 -52 10 -7 41 115 41 161 0 15 5 35 10 43 7 11 10 3 10 -30 1 -25
4 -63 8 -85 10 -56 21 -34 43 89 9 55 18 92 18 82 2 -38 23 -147 28 -142 10 9
32 131 33 176 2 57 14 30 24 -52 4 -32 11 -58 16 -58 9 0 24 66 36 160 l7 55
9 -40 c18 -89 19 -91 29 -74 4 9 11 43 15 75 7 62 23 108 24 67 0 -38 21 -123
30 -123 5 0 12 28 17 63 l9 62 19 -37 c10 -21 22 -38 26 -38 11 0 39 65 39 92
1 22 2 21 17 -7 l16 -30 15 35 c21 49 20 136 -1 193 -30 77 -46 62 -56 -52 -6
-70 -7 -74 -20 -52 -10 18 -10 33 -2 66 6 24 11 68 11 97 l1 53 16 -30 16 -30
16 34 15 33 12 -79 c6 -43 19 -105 29 -138 20 -69 28 -61 40 45 l8 65 16 -47
c9 -26 19 -49 23 -53 7 -8 28 82 29 128 l0 32 15 -40 c26 -72 26 -72 34 -45 5
14 9 41 9 60 l2 35 14 -26 c25 -46 51 -44 68 4 8 23 -9 66 -29 74 -11 4 -23
-2 -33 -16 -16 -21 -17 -20 -18 41 l-1 63 15 -37 c9 -21 19 -38 24 -38 4 0 11
23 16 52 l8 52 24 -82 c13 -45 27 -82 31 -82 8 0 20 72 21 129 0 38 2 36 29
-36 14 -38 30 -34 30 6 0 16 3 43 6 60 l7 32 19 -43 c17 -37 21 -41 29 -25 6
10 14 46 18 80 5 34 9 56 10 49 0 -7 8 -29 18 -50 l16 -37 7 30 c4 17 9 57 10
90 l2 60 20 -57 c11 -32 24 -58 29 -58 5 0 9 42 10 93 l1 92 26 -75 26 -75 8
50 c5 28 6 74 2 103 -3 28 -3 52 -1 52 2 0 14 -30 27 -67 12 -38 26 -72 31
-78 5 -5 9 34 9 95 l1 105 26 -77 c14 -43 30 -78 36 -78 6 0 8 38 4 108 l-6
107 29 -85 c16 -47 32 -89 34 -95 3 -5 4 40 3 102 -1 62 1 109 4 105 4 -4 14
-32 23 -63 8 -31 23 -71 31 -90 15 -32 16 -28 12 91 l-4 125 32 -103 c18 -57
36 -106 40 -110 4 -4 5 35 4 86 -2 50 -3 89 -1 85 44 -116 59 -148 67 -148 6
0 11 27 13 60 l3 60 22 -44 c12 -24 27 -43 32 -42 6 1 10 40 10 94 -1 80 -5
100 -29 150 -15 31 -31 57 -36 57 -5 0 -12 -17 -16 -37 l-7 -38 -12 36 c-7 19
-23 55 -35 79 -24 47 -39 42 -40 -15 -1 -18 -10 6 -25 60 -39 147 -104 317
-141 369 -14 20 -15 18 -9 -19z m-919 -1390 c12 -31 13 -39 0 -63 -14 -26 -14
-25 -17 36 -2 34 -3 62 -1 62 2 0 10 -16 18 -35z"/>
<path d="M831 6467 c-16 -36 -37 -91 -47 -121 -10 -31 -19 -54 -21 -52 -2 2 1
42 7 90 7 47 10 91 7 98 -5 14 -36 -50 -73 -152 l-24 -65 6 70 c3 39 8 82 10
98 3 15 3 27 0 27 -9 0 -47 -79 -72 -150 l-23 -65 5 95 c5 93 5 95 -12 65 -45
-79 -122 -345 -125 -435 -1 -33 -2 -32 -11 13 -6 26 -13 47 -17 47 -4 0 -16
-18 -28 -40 l-20 -41 -7 51 c-4 27 -11 50 -15 50 -5 0 -18 -19 -30 -42 l-21
-43 -1 50 c0 28 -4 59 -8 70 -7 18 -10 16 -30 -20 -18 -34 -21 -36 -16 -12 3
15 1 46 -5 68 l-11 41 -23 -21 -23 -21 5 30 c2 17 -1 44 -8 60 -12 28 -14 29
-30 15 -16 -15 -18 -14 -24 9 -3 13 -9 31 -12 40 -4 11 -1 16 11 16 27 0 11
25 -18 28 -20 3 -27 9 -27 26 0 12 -7 31 -15 42 -15 19 -16 18 -40 -9 -27 -30
-31 -57 -15 -88 6 -10 7 -19 3 -19 -4 0 -15 -4 -23 -10 -12 -7 -12 -12 3 -28
11 -12 26 -18 38 -15 16 5 19 0 19 -33 0 -22 4 -46 10 -54 7 -12 12 -12 29 4
21 19 21 19 21 -25 0 -24 5 -51 10 -59 9 -13 13 -12 28 6 17 20 18 19 17 -37
0 -72 15 -92 45 -58 19 21 21 21 15 4 -4 -11 -9 -43 -12 -72 -6 -52 -6 -52
-23 -30 l-18 22 -24 -21 c-17 -16 -31 -21 -56 -17 -20 3 -32 1 -32 -6 0 -10 6
-12 49 -15 8 -1 19 -16 23 -34 10 -38 23 -40 55 -10 l23 21 0 -34 c0 -62 15
-65 41 -7 22 50 24 52 26 23 9 -86 23 -91 52 -21 l18 41 7 -47 c4 -27 11 -48
15 -48 9 0 47 82 60 130 8 30 9 24 11 -45 1 -77 2 -79 15 -50 8 17 25 66 38
110 l24 80 -5 -107 c-3 -60 -2 -108 2 -108 9 0 24 40 51 135 l24 80 1 -110 2
-110 37 113 37 112 -3 -127 -2 -128 29 85 28 85 1 -97 c1 -54 5 -98 9 -98 5 0
16 17 24 38 39 93 37 92 37 27 1 -33 5 -66 10 -73 9 -16 10 -15 47 88 l24 65
0 -80 c0 -43 4 -75 8 -70 9 11 47 127 59 185 6 26 9 6 13 -80 l5 -115 30 102
30 103 5 -103 5 -102 33 100 c19 55 34 101 35 102 1 1 0 -43 -1 -98 -2 -57 0
-99 5 -99 6 0 22 41 37 90 16 50 30 90 31 90 2 0 1 -33 -2 -74 -3 -40 -1 -81
4 -90 8 -15 12 -11 26 26 9 24 24 70 34 103 l18 60 3 -62 c3 -61 14 -81 25
-45 3 9 19 53 36 97 23 62 30 73 31 50 0 -16 4 -36 9 -44 11 -17 52 58 71 129
10 36 14 41 21 27 14 -23 35 -21 53 5 20 28 20 68 3 93 -13 17 -15 17 -35 -3
l-22 -22 -1 28 c0 15 -4 36 -8 46 -7 17 -9 16 -29 -11 -12 -17 -22 -36 -22
-41 0 -6 -4 -13 -8 -16 -5 -3 -6 21 -4 53 7 99 -1 104 -42 21 -34 -70 -36 -72
-32 -35 15 113 18 155 12 155 -4 0 -20 -28 -35 -62 -42 -95 -52 -115 -47 -97
3 10 7 50 11 90 3 41 8 85 11 99 9 43 -14 10 -52 -76 -30 -68 -35 -73 -30 -39
3 22 8 72 11 110 l6 70 -25 -45 c-14 -25 -32 -67 -42 -93 -9 -27 -18 -47 -19
-45 -2 2 3 46 11 98 24 162 17 167 -40 30 -40 -96 -42 -92 -21 35 21 125 19
139 -10 85 -36 -69 -94 -244 -116 -350 -27 -125 -32 -135 -39 -75 l-6 50 -24
-49 -25 -49 -5 79 -5 79 -28 -50 c-22 -39 -27 -44 -22 -21 45 215 57 276 70
365 8 57 13 106 10 109 -2 3 -18 -25 -34 -61z m-731 -197 c-11 -11 -26 -17
-35 -13 -14 5 -13 9 6 29 16 17 26 21 35 13 10 -8 9 -14 -6 -29z"/>
<path d="M7166 6472 c5 -5 61 -45 124 -90 63 -45 142 -107 175 -138 41 -38 48
-47 20 -26 -46 34 -142 89 -200 115 -45 21 -41 17 55 -63 137 -113 297 -281
396 -415 l29 -40 -44 38 c-25 20 -48 37 -52 37 -5 0 1 -21 12 -46 l19 -46 -72
78 c-71 75 -186 169 -196 160 -3 -4 60 -95 172 -246 6 -8 -13 5 -42 29 -28 24
-55 42 -58 39 -3 -3 9 -32 26 -64 l31 -59 -28 35 c-57 72 -180 194 -243 241
-111 84 -301 174 -410 193 l-35 7 40 -22 c66 -35 195 -111 195 -114 0 -2 -33
12 -73 30 -99 46 -222 80 -337 95 -117 15 -168 10 -100 -8 143 -39 378 -128
367 -139 -2 -2 -24 4 -48 12 -55 20 -172 45 -207 45 -18 0 7 -14 70 -39 351
-143 605 -372 791 -716 42 -79 48 -85 42 -50 -16 94 -76 233 -147 340 -39 57
-39 59 -9 31 17 -16 56 -64 88 -107 32 -43 59 -76 61 -74 6 6 -64 151 -98 202
l-31 48 31 -35 c51 -57 138 -192 201 -313 32 -62 59 -107 59 -102 0 19 -37
150 -58 203 -11 28 -19 52 -17 52 2 0 29 -46 59 -102 30 -57 62 -112 71 -123
15 -19 16 -17 10 33 -3 29 -14 81 -25 114 -11 34 -18 63 -16 65 1 1 22 -32 46
-75 25 -42 46 -70 47 -62 3 14 -24 128 -42 175 -4 11 15 -11 41 -50 42 -61 49
-67 52 -46 3 21 -6 69 -23 127 -10 31 55 -94 102 -196 48 -106 56 -94 23 36
-26 103 -64 203 -107 284 -47 90 -7 37 72 -94 36 -60 65 -104 65 -98 0 16 -59
181 -82 227 -13 29 -14 34 -3 20 25 -32 149 -282 185 -375 42 -107 49 -116 38
-43 -28 185 -112 396 -224 565 -89 136 -264 312 -393 396 -52 34 -98 62 -102
62 -4 0 38 -46 94 -102 104 -103 104 -105 7 -26 -83 66 -200 136 -301 179 -89
39 -111 46 -93 31z"/>
<path d="M8481 6385 c2 -5 48 -98 101 -205 150 -302 250 -570 325 -872 37
-149 38 -152 41 -98 3 50 -13 229 -24 268 -2 10 5 -3 16 -27 46 -99 53 -112
57 -107 11 11 2 175 -12 231 -19 71 -70 177 -97 202 -19 17 -19 16 -13 -37 l6
-55 -34 90 c-85 227 -197 423 -331 576 -21 24 -37 40 -35 34z"/>
<path d="M4201 6085 c-85 -127 -150 -259 -203 -410 -44 -127 -48 -121 -14 20
14 55 23 102 20 104 -7 7 -75 -148 -109 -252 -19 -56 -34 -98 -35 -94 0 7 26
129 76 357 10 47 -59 -95 -98 -200 -29 -79 -37 -94 -33 -62 3 24 8 71 11 105
6 58 5 61 -10 42 -21 -26 -73 -161 -97 -250 l-19 -70 5 90 5 90 -21 -45 c-12
-25 -35 -101 -51 -170 -47 -197 -46 -194 -47 -110 -1 46 -5 70 -10 65 -20 -20
-52 -164 -62 -280 -6 -66 -13 -122 -15 -124 -2 -2 -4 22 -5 55 0 32 -3 77 -8
99 l-7 40 -11 -60 c-7 -33 -15 -87 -19 -120 -4 -33 -10 -51 -12 -40 -8 44 -24
85 -34 85 -5 0 -17 -18 -25 -39 -16 -40 -16 -40 -33 -19 l-17 21 -16 -24 c-23
-32 -22 -101 1 -129 l19 -23 16 23 16 23 17 -42 c9 -22 20 -41 24 -41 4 0 14
17 23 38 l15 37 1 -81 c1 -45 3 -97 6 -115 3 -19 -5 -2 -18 36 -27 83 -37 72
-37 -42 0 -42 -2 -74 -4 -72 -3 3 -15 50 -26 104 -29 134 -37 144 -45 59 -3
-38 -7 -78 -8 -89 -1 -11 -13 60 -26 158 -16 119 -27 175 -34 168 -5 -5 -12
-76 -16 -158 l-6 -148 -18 100 c-10 55 -21 107 -24 115 -9 21 -21 -62 -22
-144 -1 -38 -3 -67 -6 -65 -2 3 -12 52 -20 110 -9 58 -19 118 -24 135 l-8 29
-6 -35 c-3 -19 -9 -66 -13 -105 l-8 -70 -12 125 c-6 69 -15 154 -19 190 -8 63
-8 64 -17 31 -5 -19 -15 -88 -21 -155 l-13 -121 -13 123 c-7 67 -17 122 -22
122 -5 0 -9 -8 -10 -17 0 -10 -6 -61 -13 -113 l-12 -95 -13 138 c-7 75 -17
140 -22 143 -5 3 -9 -1 -9 -8 -1 -7 -7 -51 -14 -98 l-13 -85 -6 75 c-4 41 -10
113 -13 159 -8 94 -16 90 -34 -19 -25 -157 -28 -163 -30 -80 -3 107 -15 198
-23 180 -4 -9 -16 -58 -26 -110 l-19 -95 -2 85 c-1 47 -5 112 -9 145 -8 71
-13 61 -40 -77 l-19 -93 -2 90 c-1 50 -5 110 -9 135 l-7 45 -13 -45 c-7 -25
-19 -74 -26 -110 l-13 -65 -2 90 c0 50 -5 108 -9 130 l-8 40 -11 -40 c-6 -22
-18 -67 -25 -100 l-15 -60 -2 100 c-1 55 -5 109 -9 120 -9 22 -13 10 -45 -120
l-14 -60 -1 112 c-1 61 -5 114 -10 118 -5 3 -16 -18 -24 -47 -36 -131 -35
-131 -36 -10 -1 62 -5 111 -9 108 -5 -3 -17 -33 -26 -68 -25 -87 -38 -114 -33
-68 3 19 1 69 -2 110 -7 72 -8 74 -20 45 -7 -16 -19 -52 -26 -80 l-14 -50 -2
70 c-1 39 -4 84 -8 100 l-7 30 -16 -45 c-9 -25 -21 -58 -27 -75 -8 -24 -10
-13 -10 63 -1 50 -5 92 -10 92 -9 0 -22 -32 -50 -115 -7 -24 -10 -10 -10 70
-1 109 -9 114 -40 25 l-20 -55 -1 65 c-1 36 -5 76 -9 90 -7 23 -9 19 -29 -33
-12 -32 -23 -63 -24 -70 -1 -7 -4 31 -8 83 l-5 95 -23 -50 c-43 -94 -42 -93
-36 -47 3 23 3 66 -2 95 l-7 52 -28 -60 c-25 -52 -28 -56 -24 -25 3 19 2 58
-3 85 l-8 50 -27 -52 c-15 -29 -28 -53 -30 -53 -1 0 0 23 1 50 2 28 1 63 -3
78 -7 26 -9 24 -36 -33 l-28 -60 -1 90 -2 90 -28 -59 -29 -60 -3 90 -3 89 -25
-53 -25 -53 -5 83 -5 83 -33 -67 c-17 -37 -32 -76 -33 -85 -1 -30 -17 16 -19
52 -1 29 -1 29 -16 10 -23 -28 -52 -98 -60 -142 -7 -35 -8 -36 -17 -15 -6 12
-15 21 -21 19 -21 -7 -48 -55 -53 -96 -6 -40 -6 -41 -25 -24 -18 16 -20 16
-39 -4 -39 -38 3 -92 43 -56 17 15 20 15 28 3 6 -8 10 -19 10 -23 0 -14 21 4
41 37 l19 31 1 -30 c0 -16 4 -39 9 -50 7 -17 11 -12 34 35 l26 55 1 -55 c0
-30 4 -64 9 -75 7 -19 8 -19 18 5 5 14 17 41 25 60 l15 35 1 -82 c1 -46 5 -83
10 -83 5 0 19 24 30 53 l20 52 1 -65 c1 -36 5 -76 10 -90 l7 -25 10 25 c6 14
17 41 26 60 l14 35 2 -79 c0 -44 5 -84 11 -90 5 -5 10 -8 10 -6 0 3 11 37 24
75 l24 70 7 -47 c9 -56 20 -60 39 -15 l14 32 1 -64 1 -64 -21 27 c-17 22 -24
24 -36 15 -27 -23 -34 -46 -21 -73 14 -32 40 -33 61 -3 16 22 16 22 17 -13 1
-19 5 -44 10 -55 9 -23 12 -18 35 57 l12 43 8 -75 c12 -118 19 -126 43 -50
l20 65 7 -60 c3 -33 10 -71 14 -85 7 -22 11 -17 28 40 l19 65 6 -90 c4 -49 11
-101 16 -115 8 -22 12 -15 28 55 l19 80 7 -93 c4 -51 12 -100 17 -109 9 -18
13 -7 38 102 9 37 10 33 15 -50 4 -49 11 -101 16 -115 9 -24 10 -24 20 15 6
22 14 58 19 80 9 38 10 35 16 -45 8 -98 21 -153 31 -130 3 8 12 47 20 85 12
61 14 65 15 29 1 -42 17 -144 29 -179 4 -15 9 -8 18 30 7 28 13 68 14 90 2 36
3 34 11 -20 16 -115 31 -185 39 -180 5 3 12 39 15 81 7 75 25 86 25 16 0 -18
8 -65 17 -105 l17 -72 8 40 c4 22 11 67 16 100 8 53 10 55 11 19 1 -50 18
-147 34 -194 l11 -35 7 40 c4 22 9 67 10 100 2 68 0 74 34 -106 9 -47 21 -92
25 -99 5 -8 11 30 16 91 8 103 8 103 16 49 10 -67 38 -190 48 -209 4 -8 11 31
15 85 l8 99 12 -70 c7 -38 21 -99 31 -135 17 -60 19 -63 25 -35 4 17 7 62 9
100 l1 70 19 -87 c10 -48 26 -111 37 -140 l18 -53 6 105 c3 58 6 94 7 80 3
-42 51 -209 67 -238 15 -25 16 -20 11 83 l-5 110 24 -90 c26 -98 63 -205 72
-205 3 0 2 51 -1 113 l-6 112 15 -55 c22 -80 66 -203 78 -215 6 -7 7 -3 4 10
-3 11 -8 63 -11 115 l-6 95 20 -68 c29 -99 84 -235 87 -217 2 8 -3 62 -10 120
-8 58 -13 106 -12 108 2 2 13 -27 25 -65 28 -82 69 -178 74 -172 3 2 -2 56 -9
119 -8 62 -13 115 -12 117 2 1 13 -29 26 -67 12 -39 33 -94 46 -123 29 -64 31
-45 11 93 -16 103 -14 127 4 59 12 -43 75 -189 82 -189 5 0 -10 158 -18 190
-9 40 1 21 31 -55 27 -67 55 -119 61 -113 2 3 -6 80 -21 208 -5 38 0 31 28
-45 35 -98 56 -140 57 -115 0 8 -7 60 -15 115 -7 55 -12 101 -11 102 2 2 9
-16 16 -39 14 -49 67 -158 76 -158 4 0 4 37 0 83 l-7 82 25 -51 c40 -86 49
-80 44 30 -2 53 -3 96 -3 96 1 0 15 -34 30 -75 27 -71 51 -101 41 -52 -12 56
-16 141 -6 127 5 -8 10 -22 10 -30 0 -19 51 -100 62 -100 5 0 8 24 8 52 l0 53
26 -39 c32 -47 44 -36 43 44 0 58 -15 113 -44 156 -19 30 -25 27 -34 -18 l-8
-33 -22 48 c-13 26 -27 47 -32 47 -4 0 -11 -17 -14 -37 -11 -61 -11 -61 -19 7
-28 271 -61 509 -68 502 -26 -26 -35 -358 -13 -477 3 -17 -4 -7 -16 24 -25 62
-39 54 -39 -22 0 -54 -14 -55 -24 -2 -9 44 -35 109 -43 102 -3 -3 -8 -30 -12
-59 -6 -50 -7 -47 -19 67 -7 66 -14 154 -16 195 -2 41 -2 59 0 40 7 -60 25
-153 37 -190 l11 -35 7 40 c4 22 8 65 9 95 1 84 16 92 24 13 3 -37 12 -90 20
-118 11 -43 14 -47 19 -25 3 14 11 131 18 260 11 228 27 344 29 215 1 -88 15
-101 31 -29 6 32 15 62 18 66 3 4 5 -59 3 -140 -2 -81 2 -190 8 -242 12 -98
34 -208 44 -218 3 -3 7 80 7 184 l2 189 12 -106 c14 -128 45 -289 55 -289 3 0
5 25 2 55 -5 61 16 513 28 590 5 38 8 15 9 -90 1 -81 5 -134 10 -125 5 8 16
68 26 133 9 65 19 116 21 114 2 -2 -1 -60 -6 -129 -13 -143 -2 -313 30 -469
34 -168 40 -161 36 41 -5 193 -5 193 30 -10 7 -47 22 -112 32 -144 l18 -59 -4
259 c-2 142 1 300 6 349 l9 90 2 -85 c2 -47 6 -105 10 -130 l7 -45 7 35 c3 19
11 73 17 120 15 107 25 119 17 20 -11 -132 24 -433 54 -464 5 -6 9 66 10 175
l1 184 13 -90 c13 -99 35 -208 40 -203 1 2 8 89 15 193 15 245 27 310 29 165
1 -58 5 -123 10 -145 6 -35 10 -21 28 105 19 136 20 141 22 75 1 -84 21 -235
31 -235 3 0 12 50 20 111 21 176 25 187 33 79 4 -52 11 -98 15 -102 4 -4 22
65 39 155 l31 162 1 -110 c2 -126 9 -123 39 15 12 52 28 115 36 140 l14 45 -5
-52 c-3 -28 -2 -68 2 -90 l7 -38 13 25 c38 73 150 464 143 499 -3 11 -13 3
-32 -27 -88 -130 13 98 171 388 l25 45 -64 -66 c-103 -107 -210 -284 -268
-440 -21 -57 -20 -45 4 59 13 56 13 62 0 51 -9 -7 -37 -58 -65 -113 -27 -56
-49 -98 -49 -94 0 3 11 54 25 112 14 58 25 109 25 113 0 12 -30 -34 -62 -95
-75 -144 34 147 138 368 62 131 63 134 28 95 -92 -103 -200 -294 -260 -460
-38 -105 -42 -100 -14 20 11 47 20 89 20 93 0 19 -48 -74 -87 -168 -23 -58
-43 -99 -43 -92 0 7 11 64 25 125 14 62 27 123 29 137 3 14 -17 -20 -44 -75
-27 -55 -50 -95 -50 -89 0 37 146 417 207 537 13 27 22 51 20 54 -8 7 -81 -93
-137 -188 -63 -106 -126 -247 -161 -364 -36 -118 -36 -90 0 58 15 64 26 117
24 117 -9 0 -84 -172 -112 -256 -17 -49 -30 -84 -30 -79 -1 12 53 268 68 319
5 20 8 36 5 36 -6 0 -70 -132 -84 -173 -6 -21 -14 -36 -17 -33 -12 11 126 391
206 570 17 38 30 71 27 73 -2 2 -36 -44 -75 -102z"/>
<path d="M5162 5951 c-118 -98 -228 -273 -271 -431 -34 -122 -28 -137 22 -53
55 92 64 101 32 32 -28 -62 -45 -179 -27 -179 7 0 19 11 28 25 9 14 18 24 21
22 2 -2 -1 -34 -6 -71 -5 -37 -6 -77 -2 -89 7 -19 13 -13 45 48 20 39 34 59
31 45 -3 -14 -9 -45 -15 -70 -8 -40 -13 -220 -5 -195 2 6 16 52 31 103 15 50
29 91 30 89 2 -2 -3 -38 -11 -81 -18 -92 -19 -224 -4 -313 12 -70 29 -75 30
-10 0 23 3 60 8 82 6 33 8 22 14 -65 8 -133 46 -282 97 -385 22 -44 38 -69 35
-55 -3 14 -15 66 -26 115 -24 105 -37 433 -21 525 9 51 10 46 11 -62 1 -128
15 -163 25 -65 4 34 12 86 19 116 11 50 12 40 13 -125 0 -165 2 -186 27 -267
26 -83 104 -251 92 -197 -26 122 -44 226 -49 285 l-5 70 14 -65 c9 -36 24 -92
36 -125 22 -66 83 -185 74 -145 -28 130 -45 229 -50 305 -7 97 7 255 30 345
12 44 14 47 10 15 -13 -108 -17 -185 -10 -202 5 -13 11 -2 20 42 16 73 46 178
50 173 2 -2 -4 -34 -12 -73 -18 -87 -12 -282 12 -370 17 -62 83 -210 91 -203
2 3 -5 40 -17 84 -11 43 -22 122 -25 174 l-4 95 14 -70 c17 -88 46 -171 80
-227 32 -53 32 -49 4 49 -19 66 -22 102 -22 238 0 145 3 168 27 248 15 49 37
105 48 125 11 21 18 30 15 22 -29 -91 -45 -153 -50 -195 -7 -56 5 -51 24 10
14 43 77 175 85 175 2 0 -8 -26 -22 -57 -51 -117 -66 -257 -39 -384 14 -63 72
-207 80 -198 3 2 -2 31 -10 64 -19 81 -29 253 -16 285 9 21 11 13 11 -46 1
-39 8 -95 17 -125 15 -50 60 -149 68 -149 2 0 -3 24 -11 53 -39 151 -22 314
47 454 41 82 121 181 184 226 17 12 1 -7 -35 -43 -62 -61 -141 -191 -126 -206
3 -3 11 5 18 17 16 31 106 125 144 152 17 13 8 0 -22 -31 -31 -31 -67 -82 -90
-129 -37 -76 -38 -79 -38 -192 0 -106 2 -121 27 -171 l27 -55 -7 45 c-13 84
-6 202 17 264 11 33 25 64 30 69 5 5 2 -10 -6 -34 -22 -61 -22 -181 0 -246 26
-73 35 -73 24 -1 -27 163 64 337 211 406 49 23 70 27 152 27 114 0 162 -18
241 -92 50 -46 109 -147 109 -185 0 -9 5 -20 11 -24 19 -11 -1 106 -28 168
-31 70 -111 149 -185 183 -64 29 -48 33 22 5 49 -19 97 -48 155 -92 l30 -23
-22 31 c-35 49 -84 94 -138 126 -60 35 -20 27 45 -9 104 -59 190 -156 238
-268 17 -41 21 -45 22 -23 0 42 -35 144 -69 197 -107 166 -315 261 -505 231
-36 -6 -77 -15 -92 -20 -15 -6 -29 -8 -31 -6 -12 12 181 56 251 57 60 1 17 16
-70 24 -81 8 -187 -11 -272 -50 -31 -14 -48 -18 -37 -9 32 25 125 70 185 88
30 10 61 20 69 22 8 2 11 7 8 10 -8 8 -162 -15 -210 -32 -23 -8 -37 -10 -32
-5 17 17 158 60 236 72 68 11 211 7 294 -6 45 -8 -46 33 -115 51 -71 18 -238
18 -320 -2 -92 -21 -213 -83 -295 -150 -61 -50 -65 -52 -30 -16 22 24 74 68
117 99 42 32 75 59 72 62 -2 2 -46 -17 -98 -42 -67 -34 -116 -67 -172 -119
l-78 -73 49 64 c28 35 82 93 120 129 l70 65 -61 -32 c-33 -18 -89 -55 -125
-83 -56 -45 -60 -47 -29 -14 98 106 264 214 424 277 66 26 68 28 35 28 -57 1
-186 -36 -275 -79 -129 -63 -249 -166 -347 -300 -10 -14 -9 -8 4 15 12 22 49
76 82 119 55 73 57 78 26 56 -59 -41 -164 -154 -204 -218 -21 -34 -39 -62 -41
-62 -14 0 73 159 132 243 19 26 30 47 26 47 -10 0 -110 -103 -156 -160 l-28
-35 20 35 c74 123 236 300 362 394 72 54 53 54 -50 0 -174 -91 -322 -241 -422
-429 -58 -109 -45 -62 20 68 32 64 55 117 52 117 -13 -2 -100 -118 -142 -192
-27 -45 -48 -79 -48 -75 0 11 70 187 92 230 25 50 11 46 -34 -11 -76 -96 -81
-100 -52 -47 65 119 166 261 260 367 24 27 44 51 44 54 0 10 -64 -33 -128 -86
-83 -69 -171 -173 -229 -270 -25 -41 -42 -64 -39 -50 4 14 9 39 13 55 l6 30
-23 -20 c-13 -11 -36 -38 -53 -60 l-29 -40 7 35 c4 19 9 46 12 59 5 21 4 22
-15 12 -11 -6 -33 -26 -47 -43 -37 -45 -34 -40 110 195 70 114 125 210 122
213 -2 3 -32 -17 -65 -45z"/>
<path d="M6910 5866 c0 -2 33 -29 74 -60 77 -59 204 -186 245 -246 18 -26 6
-17 -45 31 -64 61 -154 129 -169 129 -4 0 20 -29 54 -65 269 -288 376 -664
301 -1054 -5 -30 -8 -56 -7 -58 7 -7 55 112 72 177 10 36 20 121 24 190 l6
125 13 -91 c6 -50 12 -108 13 -130 1 -83 21 9 28 131 l7 120 8 -89 c9 -97 3
-359 -9 -391 -6 -14 -5 -17 3 -10 36 35 92 330 78 416 -8 47 -2 49 20 7 l16
-32 14 25 c24 43 17 130 -13 189 -16 29 -32 53 -38 52 -5 -1 -13 -16 -16 -34
l-5 -33 -8 30 c-45 180 -148 357 -286 489 -104 99 -139 118 -76 40 26 -33 66
-86 88 -119 41 -60 41 -60 -41 27 -84 90 -206 180 -294 217 -50 22 -57 24 -57
17z"/>
<path d="M11991 5856 c-9 -11 -8 -15 5 -20 23 -9 54 2 54 20 0 18 -44 19 -59
0z"/>
<path d="M11938 5813 c6 -2 18 -2 25 0 6 3 1 5 -13 5 -14 0 -19 -2 -12 -5z"/>
<path d="M10846 5629 c-17 -25 -12 -45 16 -60 14 -7 23 -7 34 2 20 17 17 56
-5 69 -26 14 -28 13 -45 -11z"/>
<path d="M4846 5611 c-33 -34 -59 -115 -50 -154 l6 -29 34 33 c21 20 40 53 49
83 29 96 13 122 -39 67z"/>
<path d="M6700 5566 c0 -2 28 -24 63 -49 34 -25 85 -69 112 -98 l50 -52 -55
45 c-116 97 -269 152 -405 146 l-70 -3 90 -22 c111 -28 235 -89 301 -149 l49
-44 -58 39 c-33 22 -87 49 -120 60 -70 22 -107 31 -107 26 0 -2 33 -21 73 -42
48 -25 98 -63 148 -113 179 -179 229 -433 129 -657 -33 -73 -78 -141 -126
-188 -48 -48 -28 -44 43 9 97 71 185 215 200 324 3 26 9 54 14 62 11 21 0 -92
-17 -169 -8 -35 -13 -66 -11 -68 2 -2 18 27 35 64 26 60 38 102 56 203 3 14 3
-13 1 -60 -6 -103 -34 -211 -80 -304 -19 -38 -33 -71 -31 -73 8 -9 90 107 121
172 52 107 68 190 63 320 -10 226 -113 415 -296 539 -58 39 -172 93 -172 82z"/>
<path d="M9020 5478 c0 -122 54 -388 79 -388 23 0 27 166 6 263 -15 72 -62
187 -76 187 -5 0 -9 -28 -9 -62z"/>
<path d="M7590 5433 c0 -66 59 -251 99 -312 l15 -24 7 24 c4 13 7 38 8 56 1
26 4 30 21 26 22 -6 50 12 50 33 0 7 -9 18 -21 24 -16 9 -24 8 -39 -5 -17 -15
-18 -13 -30 35 -12 50 -83 170 -101 170 -5 0 -9 -12 -9 -27z"/>
<path d="M7175 5304 c49 -115 84 -353 67 -454 l-10 -55 -1 74 c-1 65 -22 177
-39 208 -4 6 -5 -28 -4 -75 11 -283 -119 -559 -341 -724 -86 -63 -194 -119
-269 -140 -27 -6 -48 -15 -48 -18 0 -10 121 6 185 24 107 31 235 111 313 195
l34 36 -22 -33 c-13 -19 -57 -68 -99 -109 -63 -62 -70 -72 -41 -58 56 28 121
75 180 130 52 48 53 48 23 10 -53 -68 -164 -171 -243 -225 -79 -55 -67 -58 39
-9 132 60 285 198 360 323 45 75 97 216 110 297 22 133 8 312 -31 408 -12 31
-13 20 -11 -110 l2 -144 -14 96 c-16 112 -54 231 -96 306 -30 53 -60 85 -44
47z"/>
<path d="M2720 5200 c0 -12 45 -24 60 -15 5 3 8 11 5 16 -8 12 -65 12 -65 -1z"/>
<path d="M6332 5192 c-61 -22 -97 -49 -47 -35 51 14 167 8 205 -10 19 -10 26
-14 15 -11 -11 4 -47 9 -81 12 -79 5 -150 -24 -203 -84 -43 -49 -61 -100 -60
-170 1 -64 17 -107 18 -49 3 128 102 236 216 234 l40 -1 -42 -8 c-57 -12 -98
-34 -122 -68 -26 -37 -42 -108 -31 -136 8 -19 9 -19 9 7 2 88 96 155 186 133
105 -26 98 -196 -8 -196 -38 0 -77 34 -77 66 0 52 60 83 94 48 20 -20 20 -38
0 -58 -19 -20 -59 -3 -50 20 3 9 1 12 -4 9 -14 -8 -13 -38 2 -53 19 -19 66
-14 88 8 12 12 20 33 20 53 0 92 -117 128 -185 57 -38 -39 -45 -111 -16 -157
26 -41 58 -61 112 -72 l44 -9 -38 -1 c-52 -1 -96 19 -135 63 -38 43 -43 26 -7
-26 49 -73 147 -105 232 -75 24 8 40 11 37 6 -11 -18 -117 -41 -162 -35 -56 8
-137 51 -164 89 -27 38 -35 26 -10 -15 28 -45 70 -84 117 -107 22 -11 34 -20
27 -21 -29 -1 -112 52 -150 95 -49 56 -72 119 -72 200 0 78 22 142 66 194 44
51 28 53 -28 4 -155 -140 -124 -407 61 -525 25 -15 40 -28 35 -28 -20 0 -129
77 -161 114 -37 41 -41 40 -17 -6 31 -60 107 -130 179 -164 79 -39 73 -44 -12
-13 -78 29 -149 76 -200 132 -24 26 -43 44 -43 41 0 -22 54 -99 103 -148 33
-32 49 -52 36 -46 -13 7 -54 43 -90 80 -115 116 -164 250 -157 424 l4 100 -18
-40 c-78 -180 -16 -424 145 -571 42 -37 45 -43 19 -27 -19 10 -65 52 -103 92
-38 39 -69 69 -69 65 0 -5 13 -31 29 -58 39 -69 112 -148 172 -186 56 -37 64
-47 17 -23 -71 36 -146 95 -211 163 -37 39 -67 69 -67 66 0 -16 46 -95 79
-135 61 -75 67 -87 27 -50 -134 123 -237 335 -253 517 -4 51 -9 71 -16 64 -14
-14 -13 -215 2 -271 33 -123 93 -237 173 -327 29 -32 37 -44 19 -28 -33 29
-92 90 -145 150 l-27 30 29 -60 c37 -75 110 -173 165 -221 38 -32 38 -34 7
-13 -47 31 -173 152 -223 214 -29 36 -38 43 -32 25 12 -41 65 -129 113 -189
41 -51 42 -53 9 -22 -128 121 -268 401 -294 589 -3 23 -10 42 -16 42 -16 0 -1
-194 21 -275 11 -38 31 -98 44 -132 23 -53 44 -88 134 -223 28 -42 -62 61
-108 122 -23 32 -44 56 -46 53 -15 -14 94 -199 161 -272 33 -37 35 -42 12 -25
-38 29 -145 149 -202 226 -24 32 -43 54 -43 48 0 -20 58 -138 94 -191 20 -30
30 -48 21 -41 -25 21 -119 168 -160 250 -49 98 -80 181 -116 310 l-29 105 4
-110 c7 -178 59 -340 161 -496 42 -65 47 -75 20 -44 -20 22 -59 75 -87 117
-29 42 -54 76 -55 74 -12 -12 70 -180 131 -270 25 -36 44 -66 42 -66 -8 0
-133 158 -187 237 -32 48 -59 82 -59 76 0 -19 68 -174 93 -212 77 -117 69
-113 -43 22 -40 48 -74 86 -76 84 -13 -13 71 -186 128 -262 16 -22 -9 1 -57
50 l-87 90 41 -81 c23 -44 64 -108 91 -142 28 -34 47 -62 44 -62 -4 0 -49 42
-102 93 -91 89 -94 91 -72 47 12 -25 40 -72 62 -105 l40 -60 -38 36 c-45 41
-103 83 -109 77 -8 -8 38 -95 78 -148 l41 -55 -49 40 c-92 75 -92 75 -58 16
17 -30 51 -77 74 -105 47 -54 42 -53 -41 9 -82 62 -86 63 -59 16 70 -125 211
-250 359 -320 135 -63 145 -61 70 9 l-65 61 55 -27 c46 -23 154 -64 167 -64
14 0 -28 35 -188 156 -98 75 -182 140 -185 145 -3 5 16 -2 42 -16 26 -14 49
-23 52 -20 3 2 -7 23 -22 45 l-27 41 81 -64 c102 -81 249 -158 364 -191 49
-15 91 -25 93 -22 2 2 -44 32 -102 66 -58 34 -104 64 -102 66 2 3 29 -7 60
-21 55 -26 238 -77 246 -69 5 5 15 -1 -99 58 -112 58 -271 156 -320 197 l-35
29 69 -35 c39 -19 72 -32 75 -29 3 3 -22 30 -54 60 -63 58 -59 61 15 8 134
-95 390 -185 519 -184 31 1 23 6 -54 34 -102 37 -217 87 -212 92 2 2 30 -6 63
-17 81 -29 194 -49 267 -49 l62 1 -105 33 c-58 18 -139 47 -181 64 -85 36
-246 126 -269 150 -8 8 5 4 30 -10 53 -30 180 -81 186 -75 2 2 -29 24 -69 50
-39 25 -90 62 -112 82 l-40 36 50 -34 c179 -123 419 -189 622 -172 103 9 94
15 -59 39 -59 9 -126 23 -150 31 -24 8 -32 12 -18 9 102 -22 389 -11 406 17 3
5 -31 9 -78 9 -155 1 -336 40 -462 101 -33 16 -52 26 -41 23 65 -21 146 -42
185 -47 l45 -6 -35 16 c-160 76 -201 96 -205 104 -3 4 23 -5 57 -21 202 -95
460 -98 668 -9 28 12 49 23 47 25 -1 2 -39 -3 -82 -11 -44 -8 -116 -14 -160
-13 l-80 1 63 8 c87 11 164 35 241 74 107 54 117 67 30 40 -124 -39 -199 -48
-353 -42 -77 3 -154 10 -171 15 -22 7 -4 8 66 4 53 -2 114 -1 135 3 36 7 31 9
-66 26 -58 10 -116 23 -130 28 -20 9 -16 10 20 4 25 -5 99 -8 165 -8 99 0 133
4 190 23 98 33 192 91 264 163 68 69 81 96 24 51 -58 -45 -243 -143 -243 -128
0 3 28 20 62 38 76 40 173 134 216 210 18 30 32 58 32 61 0 3 -33 -27 -72 -66
-40 -40 -100 -89 -133 -109 -73 -44 -198 -88 -269 -93 -49 -4 -50 -4 -11 5 79
17 225 83 213 95 -2 2 -29 -5 -61 -16 -32 -11 -95 -22 -140 -24 l-82 -4 63 9
c132 19 241 75 320 165 91 104 140 265 115 386 -6 30 -8 26 -20 -44 -11 -65
-63 -207 -76 -207 -2 0 8 33 21 73 32 96 28 205 -13 295 -40 89 -55 95 -34 14
22 -84 23 -151 4 -227 -21 -78 -58 -144 -108 -191 l-41 -39 37 44 c43 52 77
136 77 189 l0 37 -24 -58 c-28 -68 -81 -135 -127 -161 -28 -16 -25 -11 17 27
70 63 98 128 98 227 0 59 -6 86 -24 125 -69 143 -237 217 -378 167z m65 -598
c-3 -3 -12 -4 -19 -1 -8 3 -5 6 6 6 11 1 17 -2 13 -5z"/>
<path d="M10021 5171 c-19 -12 -5 -31 24 -31 13 0 27 5 31 11 7 11 -12 29 -31
29 -5 0 -16 -4 -24 -9z"/>
<path d="M1910 5121 c0 -13 30 -22 52 -16 10 4 16 11 13 16 -8 12 -65 12 -65
0z"/>
<path d="M2867 5115 c-19 -19 -12 -42 15 -51 29 -9 57 20 42 44 -15 23 -38 26
-57 7z"/>
<path d="M2936 5068 c-25 -35 7 -78 44 -58 22 12 27 49 8 68 -18 18 -35 15
-52 -10z"/>
<path d="M3087 4992 c-21 -23 -22 -62 -3 -88 13 -16 18 -17 35 -6 18 11 21 10
21 -6 0 -11 9 -27 20 -37 15 -14 23 -15 34 -6 23 19 28 59 11 91 -16 31 -29
37 -40 20 -9 -14 -25 -12 -25 3 0 8 -8 21 -18 31 -18 15 -20 15 -35 -2z"/>
<path d="M9373 4973 c-20 -7 -15 -31 7 -38 10 -3 29 -1 41 6 22 11 22 12 4 25
-19 14 -31 16 -52 7z"/>
<path d="M9520 4945 c-18 -22 -15 -62 5 -85 17 -19 19 -19 37 -4 20 19 23 55
8 85 -13 23 -33 25 -50 4z"/>
<path d="M3890 4829 c-27 -156 7 -402 71 -517 l20 -37 -5 140 c-5 137 -47 440
-65 472 -6 12 -12 -4 -21 -58z"/>
<path d="M10540 4850 c-19 -12 -7 -22 25 -22 14 0 29 3 33 6 7 8 -16 26 -33
26 -5 0 -17 -4 -25 -10z"/>
<path d="M4109 4788 c-17 -66 -7 -203 21 -265 12 -29 26 -53 31 -53 14 0 22
89 16 169 -7 79 -31 176 -47 186 -5 3 -14 -14 -21 -37z"/>
<path d="M8351 4814 c-18 -13 -20 -19 -10 -30 16 -20 63 -14 67 8 5 26 -31 40
-57 22z"/>
<path d="M4327 4772 c-22 -25 -21 -45 3 -67 19 -17 21 -17 40 0 25 23 26 47 2
68 -23 21 -25 21 -45 -1z"/>
<path d="M7462 4663 c-37 -107 -97 -229 -157 -318 -66 -99 -103 -135 -46 -44
36 58 105 218 83 194 -5 -5 -32 -44 -61 -86 -103 -152 -260 -289 -426 -373
-153 -77 -295 -113 -488 -125 l-112 -7 55 -13 c151 -35 346 -20 496 38 139 54
74 15 -85 -51 l-96 -39 61 5 c52 5 116 22 229 60 11 4 4 -2 -15 -13 -59 -34
-181 -83 -280 -113 l-95 -28 91 4 c49 2 119 12 153 21 35 9 65 14 67 12 9 -8
-160 -48 -268 -63 -165 -24 -415 -9 -563 33 -45 12 4 -17 75 -46 113 -45 201
-62 350 -70 l135 -6 -91 -13 c-50 -6 -101 -12 -115 -13 l-24 0 25 -11 c14 -6
87 -11 163 -11 75 -1 137 -2 137 -3 0 -7 -190 -28 -300 -33 -127 -6 -133 -7
-95 -19 22 -7 74 -15 115 -18 115 -10 119 -25 5 -18 -203 11 -467 68 -619 134
-27 11 -51 19 -53 17 -7 -8 121 -86 199 -121 87 -41 225 -82 313 -95 l60 -9
-50 0 c-27 -1 -84 3 -125 8 -41 4 -76 7 -78 5 -7 -6 157 -55 233 -70 l80 -15
-106 5 c-58 3 -146 12 -195 20 -49 8 -96 14 -104 14 -23 -1 66 -38 155 -64
106 -32 70 -32 -55 0 -180 46 -364 118 -521 205 -51 28 -94 49 -95 47 -6 -6
97 -91 170 -141 89 -61 168 -101 281 -142 113 -42 91 -43 -50 -4 -59 17 -109
29 -111 27 -6 -6 164 -87 235 -112 36 -13 59 -24 50 -24 -19 -1 -241 60 -323
88 -33 12 -61 19 -63 17 -6 -5 117 -76 175 -101 80 -35 34 -26 -54 10 -132 54
-304 147 -434 233 -63 43 -128 86 -145 97 -24 16 -21 9 18 -35 102 -115 237
-220 389 -300 51 -27 90 -50 86 -50 -4 0 -63 24 -132 54 -69 29 -126 52 -126
50 0 -9 115 -87 196 -133 48 -28 85 -51 82 -51 -13 0 -206 84 -292 127 -80 40
-88 42 -67 19 13 -14 58 -49 100 -77 134 -92 119 -88 -59 14 -58 33 -156 93
-218 134 -62 40 -108 65 -103 55 15 -29 162 -166 231 -216 73 -54 84 -63 55
-48 -22 11 -172 98 -220 126 -53 32 100 -110 176 -163 40 -28 70 -51 66 -51
-8 0 -204 112 -289 166 l-73 45 80 -78 c44 -43 96 -91 115 -106 44 -35 23 -25
-109 52 -58 33 -107 58 -110 55 -3 -3 36 -47 88 -96 99 -96 98 -96 -41 -12
-48 30 -88 50 -88 45 0 -8 73 -79 150 -145 58 -49 43 -41 -110 59 -69 45 -138
90 -155 101 l-30 19 33 -42 c18 -23 58 -65 90 -94 69 -64 54 -56 -53 26 -122
94 -225 166 -225 156 0 -11 63 -96 109 -145 l36 -40 -40 31 c-34 26 -149 123
-234 197 -51 44 52 -96 139 -188 90 -97 10 -32 -147 118 -77 75 -144 136 -147
136 -9 0 87 -142 125 -185 66 -75 14 -28 -126 113 l-147 147 37 -70 c20 -38
59 -101 87 -140 l49 -70 -63 65 c-35 36 -89 93 -121 128 -31 35 -57 59 -57 54
0 -11 99 -170 152 -242 l39 -55 -60 65 c-33 36 -100 111 -148 167 -49 55 -89
100 -91 98 -4 -4 78 -150 120 -215 35 -54 20 -37 -125 143 -62 75 -115 137
-119 137 -11 0 58 -147 102 -217 22 -35 38 -63 36 -63 -2 0 -52 63 -112 140
-59 77 -109 140 -110 140 -10 0 60 -143 117 -238 36 -61 37 -64 9 -32 -17 19
-74 94 -127 167 -52 73 -97 133 -99 133 -7 0 22 -68 67 -156 26 -52 46 -94 44
-94 -2 0 -45 60 -94 133 -50 72 -102 146 -116 162 l-25 30 24 -70 c13 -38 40
-104 61 -145 49 -99 35 -83 -74 85 -50 77 -91 135 -91 130 0 -18 58 -161 94
-234 20 -39 34 -71 32 -71 -3 0 -53 77 -112 170 -58 94 -108 170 -110 170 -6
0 46 -139 77 -207 15 -35 26 -63 25 -63 -2 0 -43 63 -91 141 -48 77 -89 138
-92 135 -7 -6 43 -169 64 -209 8 -16 13 -31 10 -33 -2 -3 -36 50 -76 116 -40
66 -74 120 -75 120 -9 0 50 -168 87 -252 14 -32 24 -58 23 -58 -2 0 -43 67
-92 150 -48 82 -89 148 -92 146 -4 -5 30 -118 52 -171 28 -65 12 -49 -44 45
-29 49 -61 97 -70 105 -16 15 -17 13 -8 -36 5 -29 20 -82 33 -118 13 -36 19
-59 14 -51 -5 8 -35 56 -65 105 -45 74 -54 84 -49 55 6 -29 35 -121 70 -215 8
-22 -10 4 -80 118 -26 43 -49 76 -52 73 -4 -3 19 -99 33 -143 4 -10 -7 2 -23
27 -17 25 -40 54 -51 64 l-22 19 0 -47 c0 -26 7 -63 15 -83 22 -53 19 -52 -22
7 -52 74 -55 38 -7 -107 4 -10 -2 -7 -12 8 -34 46 -75 92 -79 87 -11 -11 37
-164 71 -228 39 -74 143 -196 144 -169 0 9 -7 36 -15 60 l-15 44 23 -30 c61
-82 121 -147 125 -136 7 22 -93 247 -156 345 l-25 41 37 -32 c20 -18 39 -33
43 -33 3 0 3 21 -1 48 -6 45 -4 42 47 -60 71 -139 155 -264 239 -352 68 -70
68 -70 53 -31 -9 22 -32 69 -52 105 -40 73 -37 72 34 -20 28 -36 77 -90 109
-120 l57 -55 -39 70 c-21 39 -76 135 -121 215 l-84 145 50 -55 c28 -30 50 -50
51 -44 0 5 -11 38 -24 72 -14 34 -23 62 -22 62 2 0 24 -36 49 -79 83 -142 246
-344 345 -427 l47 -39 -25 40 c-13 22 -50 81 -83 130 l-59 90 53 -60 c63 -73
221 -225 232 -225 5 0 -7 21 -26 48 -52 72 -242 345 -251 362 -5 8 19 -12 53
-45 33 -33 61 -56 61 -52 0 4 -15 36 -32 70 -18 34 -35 67 -37 72 -2 6 30 -35
71 -90 120 -160 257 -297 412 -415 31 -23 14 0 -90 126 -123 150 -124 155 -8
43 87 -83 187 -167 234 -194 18 -11 0 11 -162 201 -177 208 -184 219 -113 159
33 -28 69 -57 79 -65 24 -18 23 -17 -47 90 l-49 75 48 -55 c72 -83 211 -219
289 -281 76 -61 219 -159 232 -159 4 0 -48 57 -117 126 l-125 126 81 -65 c90
-71 173 -129 249 -171 42 -24 16 5 -150 169 -136 134 -181 182 -140 152 77
-56 115 -81 115 -74 0 3 -23 34 -52 69 -28 35 -58 72 -67 83 -9 11 23 -17 71
-62 106 -100 260 -216 369 -277 80 -46 169 -88 169 -81 0 1 -53 45 -117 96
-175 141 -175 139 -8 36 77 -49 237 -127 257 -127 6 0 -34 32 -88 72 -100 72
-334 256 -334 263 0 2 37 -19 82 -46 44 -27 86 -49 92 -49 6 0 -21 32 -59 71
l-70 71 90 -67 c161 -119 305 -198 474 -259 41 -15 76 -25 78 -23 2 3 -57 42
-131 88 -75 45 -134 84 -133 85 1 1 42 -17 90 -41 83 -41 290 -115 319 -115 7
0 -31 25 -86 55 -105 58 -346 204 -346 210 0 2 30 -10 68 -26 88 -37 106 -36
57 4 -101 83 -103 90 -6 29 72 -46 217 -113 318 -146 79 -26 264 -69 270 -62
2 2 -50 27 -114 56 -124 55 -169 82 -93 55 96 -34 356 -85 333 -65 -5 4 -72
32 -150 64 -130 52 -334 145 -288 131 44 -14 139 -34 143 -31 2 2 -24 21 -57
41 -67 42 -76 58 -14 27 54 -28 212 -78 318 -102 82 -19 317 -40 305 -28 -3 3
-66 22 -140 43 -74 20 -142 41 -150 46 -11 8 -10 9 6 4 76 -20 205 -35 304
-34 97 1 109 3 75 11 -22 5 -96 23 -164 39 -134 32 -325 89 -319 95 3 2 37 -3
78 -12 127 -26 138 -14 28 30 -54 22 -97 41 -95 42 1 1 40 -9 87 -22 158 -46
253 -58 440 -58 96 0 193 5 215 10 36 9 22 12 -125 28 -91 10 -166 19 -168 21
-1 1 71 5 160 8 90 3 190 13 223 20 33 9 49 15 35 16 -241 12 -536 43 -550 58
-3 3 33 3 80 0 47 -4 103 -4 125 0 l40 6 -65 14 c-127 25 -211 45 -208 49 2 2
42 -4 88 -12 190 -35 466 -17 649 41 79 26 129 50 81 40 -39 -8 -228 -25 -264
-24 -17 1 10 9 59 19 119 24 346 102 333 115 -2 2 -32 -3 -68 -10 -104 -22
-286 -44 -410 -49 l-115 -5 107 18 c178 31 183 39 23 42 -77 1 -117 4 -90 6
220 15 399 56 545 124 88 41 214 118 206 126 -2 3 -13 0 -23 -5 -26 -14 -253
-92 -267 -92 -6 0 23 15 65 34 43 18 101 48 130 66 62 37 190 132 185 137 -1
2 -54 -21 -117 -51 -114 -53 -246 -102 -361 -131 -69 -18 -89 -15 -26 4 50 15
200 82 195 88 -2 2 -54 -8 -115 -22 -140 -32 -175 -31 -58 1 92 25 223 82 310
135 65 39 51 25 -43 -45 -41 -31 -70 -56 -65 -56 53 0 221 76 299 135 l48 37
-23 -36 c-12 -21 -20 -39 -17 -42 3 -3 21 2 41 10 32 13 25 4 -50 -67 -47 -44
-81 -83 -76 -85 6 -2 38 8 71 21 34 14 61 23 61 22 0 -2 -35 -24 -77 -48 -116
-68 -332 -171 -468 -222 l-120 -46 80 6 c94 6 203 32 309 73 42 17 76 29 76
27 0 -1 -27 -19 -60 -39 -32 -20 -62 -41 -65 -46 -5 -9 91 11 138 29 58 22 21
0 -113 -70 -77 -40 -138 -74 -136 -76 4 -4 46 3 141 21 17 4 -21 -12 -84 -34
-134 -46 -342 -94 -491 -111 -58 -7 -109 -16 -113 -20 -14 -12 177 -22 276
-15 51 4 125 14 166 22 40 9 75 13 77 11 2 -2 -44 -19 -104 -38 -145 -46 -114
-49 143 -14 l40 5 -45 -15 c-61 -21 -311 -85 -332 -85 -10 0 -18 -5 -18 -12 0
-11 94 -8 246 7 l49 4 -45 -9 c-163 -36 -496 -56 -700 -42 -74 5 -137 8 -138
6 -2 -1 25 -11 60 -22 107 -33 256 -54 395 -56 139 -1 141 -9 7 -20 -43 -4
-92 -10 -109 -13 -29 -7 -28 -7 15 -14 25 -4 99 -8 165 -9 169 -2 110 -16
-136 -32 -109 -6 -197 -14 -195 -16 2 -2 44 -10 92 -18 115 -18 367 -18 492 1
227 34 453 116 630 228 35 21 61 41 60 43 -2 2 -59 -17 -127 -41 -68 -25 -128
-45 -134 -45 -5 0 37 24 95 53 100 51 245 144 268 173 7 7 -49 -14 -124 -46
-117 -51 -355 -140 -375 -140 -3 0 45 25 107 56 62 31 111 58 109 61 -3 2 -60
-12 -128 -31 -158 -46 -184 -46 -49 0 58 19 152 60 210 89 58 30 95 46 83 36
-12 -10 -37 -31 -54 -45 -17 -15 -29 -29 -26 -32 17 -17 181 51 266 109 41 28
43 28 28 6 -24 -33 -21 -39 15 -39 l33 0 -40 -26 c-47 -31 -125 -104 -125
-117 0 -8 45 -4 88 9 45 13 -266 -139 -431 -211 -103 -45 -190 -85 -194 -89
-23 -23 266 41 359 79 97 41 98 41 18 -10 -41 -26 -77 -49 -80 -52 -8 -8 67 8
132 28 32 9 56 14 54 10 -2 -3 -73 -40 -156 -81 -84 -41 -148 -76 -143 -77 5
-2 53 8 108 22 54 13 100 23 103 21 6 -7 -294 -102 -428 -136 -69 -17 -179
-42 -244 -56 -66 -13 -122 -26 -124 -29 -3 -3 42 -5 99 -5 111 0 233 12 339
35 36 7 79 16 95 19 17 3 -26 -14 -95 -39 l-125 -45 80 5 c44 3 109 12 145 20
36 7 66 12 68 10 5 -4 -135 -47 -283 -85 -66 -18 -131 -36 -145 -41 -39 -14
171 -2 274 16 48 9 90 14 92 12 5 -5 -134 -31 -276 -52 -137 -21 -399 -45
-499 -46 -47 -1 -113 -4 -146 -8 l-60 -7 65 -12 c122 -23 275 -34 398 -29 67
3 122 4 122 3 0 -2 -61 -12 -135 -22 -74 -10 -132 -21 -127 -26 4 -4 75 -9
157 -10 l150 -3 -90 -12 c-49 -7 -154 -18 -232 -25 -79 -7 -143 -15 -143 -19
0 -7 63 -15 255 -30 68 -5 24 -6 -135 -3 -241 5 -369 13 -594 40 -71 8 -130
13 -133 10 -7 -7 177 -64 277 -85 52 -11 127 -23 165 -27 123 -12 104 -23 -30
-18 -87 4 -125 2 -115 -5 16 -10 127 -34 235 -51 46 -7 21 -8 -100 -4 -88 2
-194 7 -235 9 l-75 5 42 -15 c22 -9 90 -27 150 -40 59 -13 99 -24 87 -24 -61
-3 -507 87 -743 150 -62 16 -115 28 -117 26 -7 -7 207 -104 296 -135 47 -16
118 -37 158 -47 40 -9 71 -19 69 -21 -2 -3 -58 4 -123 15 -65 10 -121 17 -123
15 -8 -7 177 -74 249 -89 19 -5 30 -10 24 -12 -6 -2 -105 15 -219 37 -114 23
-209 39 -212 37 -6 -6 156 -73 239 -98 38 -12 67 -23 65 -25 -13 -14 -489 149
-834 285 -29 11 -53 19 -53 17 0 -7 143 -98 225 -142 48 -26 133 -66 188 -90
56 -24 98 -44 92 -44 -5 1 -62 16 -125 35 -62 19 -116 33 -118 31 -5 -5 113
-67 194 -103 36 -15 61 -29 57 -30 -5 -2 -103 28 -218 67 -232 77 -239 71 -38
-32 67 -35 120 -64 119 -66 -3 -3 -171 73 -336 151 -52 25 -185 92 -295 150
l-200 106 60 -55 c65 -61 254 -191 353 -244 34 -18 61 -35 59 -37 -2 -2 -55
19 -117 47 -62 28 -115 49 -117 46 -6 -5 89 -72 182 -128 44 -26 77 -48 73
-48 -3 0 -98 43 -209 95 -111 52 -204 94 -206 92 -4 -5 125 -101 200 -147 37
-23 67 -44 67 -46 0 -14 -320 185 -567 353 -117 79 -213 139 -213 134 0 -26
247 -241 430 -374 29 -21 9 -10 -115 60 -38 22 -81 46 -95 53 l-25 13 20 -23
c11 -12 65 -58 120 -103 55 -44 102 -82 105 -85 7 -8 -52 28 -234 140 -87 54
-161 97 -163 94 -7 -7 141 -137 252 -220 219 -164 458 -291 697 -370 206 -68
221 -66 76 11 -70 37 -126 69 -124 70 1 2 38 -11 82 -28 78 -30 343 -103 350
-96 2 2 -111 57 -252 122 -249 116 -327 158 -203 109 66 -25 199 -65 199 -59
0 2 -59 36 -130 75 -71 39 -130 73 -130 75 0 2 51 -20 113 -49 152 -72 311
-129 459 -165 121 -29 285 -57 293 -50 2 3 -58 26 -133 53 -75 27 -140 52
-145 56 -4 3 33 -4 83 -17 96 -24 290 -54 343 -52 34 1 44 -3 -320 116 -95 32
-171 59 -169 61 2 2 23 -2 46 -8 53 -14 203 -41 207 -37 1 2 -68 32 -155 67
-230 92 -272 118 -64 39 219 -83 450 -129 687 -135 88 -2 156 -2 150 1 -5 3
-70 18 -144 33 l-134 28 234 -4 c129 -2 232 -2 229 1 -3 3 -50 13 -105 22
-158 26 -429 76 -433 80 -2 2 52 1 120 -2 68 -3 121 -3 118 -1 -3 3 -65 20
-138 38 -73 18 -131 35 -128 37 2 3 51 -5 108 -16 170 -34 308 -44 493 -37 94
3 199 12 235 19 l65 13 -70 7 c-38 4 -108 10 -155 14 l-85 7 116 7 c115 7 306
34 344 50 12 4 -42 8 -130 10 -82 0 -208 4 -280 8 -141 7 -140 7 70 27 36 4
64 8 62 10 -2 2 -71 11 -153 19 -203 21 -205 23 -14 17 258 -7 497 23 690 89
l85 29 -65 -5 c-36 -2 -101 -7 -145 -10 l-80 -5 87 19 c107 23 269 74 323 101
37 18 38 19 10 15 -122 -19 -393 -55 -450 -60 l-70 -5 100 24 c169 41 168 46
-10 41 -151 -4 -154 -3 -61 6 136 13 322 52 452 94 106 35 362 151 352 160 -2
3 -67 -13 -144 -35 -147 -42 -195 -51 -104 -19 74 25 328 153 363 181 23 19
-25 6 -223 -60 -139 -45 -258 -81 -264 -79 -6 2 7 10 29 17 44 14 207 91 203
96 -2 1 -66 -13 -143 -32 -178 -43 -204 -43 -53 1 223 65 427 166 607 300 54
40 102 79 106 85 9 15 17 19 -132 -58 -68 -34 -126 -62 -129 -62 -4 0 40 31
97 69 104 69 285 219 275 228 -2 3 -64 -31 -138 -74 -148 -88 -322 -183 -335
-183 -4 0 15 14 42 31 61 38 186 131 181 136 -1 2 -59 -24 -128 -57 -148 -71
-177 -78 -60 -15 131 70 228 142 344 254 60 57 106 106 104 109 -3 2 -56 -30
-119 -71 -162 -106 -167 -107 -75 -18 46 44 81 82 78 85 -3 3 -48 -20 -100
-50 -163 -95 -189 -109 -160 -84 97 83 140 123 136 127 -3 3 -43 -15 -91 -41
-47 -25 -85 -44 -85 -42 0 2 19 16 42 32 40 28 98 97 98 116 0 8 -14 6 -60
-10 -10 -3 -8 3 6 19 12 13 25 34 29 47 5 19 3 22 -20 22 -14 0 -36 -5 -47
-11 -15 -8 -11 2 16 37 20 26 34 49 32 51 -4 5 -128 -56 -190 -94 l-41 -24 40
33 c22 18 69 61 105 96 65 64 58 66 -35 7 -68 -43 -185 -108 -185 -102 0 2 17
16 38 29 59 40 168 136 198 176 l28 36 -39 -24 c-22 -13 -51 -31 -65 -40 -41
-28 -238 -140 -246 -140 -4 0 24 22 62 49 38 27 96 74 129 106 65 61 68 62
-80 -22 -91 -52 -115 -65 -115 -60 0 3 30 24 67 48 70 46 211 177 232 217 12
23 12 23 -11 11 -13 -7 -48 -29 -78 -49 -88 -59 -89 -58 -13 22 66 71 102 118
88 118 -3 0 -45 -26 -93 -58 -121 -81 -124 -82 -62 -21 59 58 130 141 130 153
0 4 -17 -5 -37 -21 -21 -16 -63 -47 -93 -68 l-55 -39 61 62 c33 34 73 85 89
113 l27 51 -23 -12 c-13 -7 -37 -22 -54 -34 l-30 -21 17 25 c27 38 70 121 65
126 -2 3 -28 -11 -57 -31 -60 -41 -72 -44 -43 -12 25 27 86 128 80 133 -2 3
-62 -44 -133 -103 -187 -156 -230 -187 -139 -101 44 41 96 97 115 124 l34 49
-44 -36 c-43 -34 -169 -125 -199 -143 -7 -5 33 38 91 95 93 92 165 185 185
234 3 10 -27 -15 -68 -55 -90 -88 -210 -183 -302 -239 -87 -53 -94 -52 -21 3
33 24 79 65 104 91 47 50 45 50 -35 -1 -54 -34 -190 -104 -202 -104 -4 0 28
20 71 45 99 56 134 82 225 169 l73 71 -36 -57 c-20 -32 -33 -58 -28 -58 32 0
151 105 209 185 21 28 22 29 23 8 0 -41 63 -22 81 24 14 38 2 66 -27 60 -13
-2 -24 -4 -24 -3 0 0 9 30 20 64 11 35 20 76 20 90 0 23 -7 17 -50 -43 -88
-122 -92 -125 -59 -54 29 66 77 218 58 189 -5 -8 -32 -54 -60 -101 -71 -121
-109 -165 -59 -69 45 88 87 223 96 315 4 36 5 65 3 65 -2 0 -15 -30 -27 -67z
m-582 -863 c-8 -5 -19 -10 -25 -10 -5 0 -3 5 5 10 8 5 20 10 25 10 6 0 3 -5
-5 -10z m330 -64 c0 -2 -8 -10 -17 -17 -16 -13 -17 -12 -4 4 13 16 21 21 21
13z m-613 -92 c-3 -3 -12 -4 -19 -1 -8 3 -5 6 6 6 11 1 17 -2 13 -5z m116
-131 c-7 -2 -19 -2 -25 0 -7 3 -2 5 12 5 14 0 19 -2 13 -5z m-116 -9 c-3 -3
-12 -4 -19 -1 -8 3 -5 6 6 6 11 1 17 -2 13 -5z m-390 -210 c-3 -3 -12 -4 -19
-1 -8 3 -5 6 6 6 11 1 17 -2 13 -5z m1443 -328 c0 -2 -7 -7 -16 -10 -8 -3 -12
-2 -9 4 6 10 25 14 25 6z m-683 -62 c-3 -3 -12 -4 -19 -1 -8 3 -5 6 6 6 11 1
17 -2 13 -5z m443 -304 c-8 -5 -19 -10 -25 -10 -5 0 -3 5 5 10 8 5 20 10 25
10 6 0 3 -5 -5 -10z m-1242 -847 c-10 -2 -26 -2 -35 0 -10 3 -2 5 17 5 19 0
27 -2 18 -5z m-443 -153 c25 -11 -1 -11 -35 0 -20 6 -21 8 -5 8 11 0 29 -3 40
-8z m-995 -116 c0 -2 -13 2 -30 11 -16 9 -30 18 -30 21 0 2 14 -2 30 -11 17
-9 30 -18 30 -21z"/>
<path d="M8787 4693 c-23 -55 -37 -112 -37 -157 0 -38 -1 -39 -19 -22 -25 23
-64 6 -59 -26 5 -34 33 -45 57 -24 21 19 21 19 21 -17 0 -55 16 -53 47 5 25
48 28 63 28 155 0 117 -12 145 -38 86z"/>
<path d="M9196 4480 c-14 -39 -29 -89 -32 -111 -8 -46 -19 -58 -27 -28 -8 30
-28 19 -54 -31 -23 -43 -29 -106 -14 -144 6 -17 10 -15 34 14 15 17 28 37 29
43 1 7 4 -15 7 -48 l6 -60 25 41 25 41 1 -48 c0 -27 4 -52 8 -56 13 -13 64 54
72 92 7 40 -2 105 -16 105 -5 0 -17 -11 -26 -25 -23 -36 -26 -27 -8 30 18 58
23 230 7 246 -7 7 -18 -12 -37 -61z"/>
<path d="M8834 4472 c-32 -21 -44 -85 -21 -115 30 -42 84 52 58 102 -12 22
-20 25 -37 13z"/>
<path d="M5132 4458 c-13 -13 -16 -57 -4 -74 4 -6 17 -16 30 -23 20 -10 23 -9
34 14 20 44 -30 113 -60 83z"/>
<path d="M4004 4405 c-16 -25 -16 -27 3 -52 29 -39 42 -39 58 1 12 27 21 36
40 36 13 0 27 5 31 11 5 9 -3 10 -29 5 -26 -5 -44 -2 -61 9 -24 16 -25 15 -42
-10z"/>
<path d="M9601 4264 c-41 -52 -16 -139 28 -100 26 24 34 64 20 98 -14 35 -22
35 -48 2z"/>
<path d="M7532 4133 c-41 -20 -71 -62 -79 -108 -7 -41 4 -44 52 -15 39 24 68
76 63 112 -3 27 -3 27 -36 11z"/>
<path d="M9484 4108 c-4 -6 1 -17 11 -25 22 -16 25 -16 45 -3 13 9 12 12 -4
25 -24 18 -42 19 -52 3z"/>
<path d="M3114 4026 c-18 -14 -18 -15 -1 -22 21 -8 67 10 67 26 0 15 -43 12
-66 -4z"/>
<path d="M5067 3623 c-14 -4 -17 -13 -15 -36 3 -29 6 -32 38 -32 30 0 35 3 35
24 0 27 -31 50 -58 44z"/>
<path d="M9220 3525 c33 -19 49 -19 24 0 -10 8 -26 14 -34 14 -9 0 -4 -6 10
-14z"/>
<path d="M9207 3395 c-53 -81 -97 -143 -97 -140 0 3 13 31 29 63 34 68 82 184
78 189 -2 1 -47 -63 -101 -142 -54 -80 -102 -147 -106 -150 -4 -2 10 29 32 69
38 73 92 206 83 206 -2 0 -50 -63 -106 -140 -56 -77 -103 -140 -104 -140 -1 0
25 54 58 120 33 67 57 123 55 126 -3 2 -37 -38 -77 -91 -39 -52 -74 -95 -76
-95 -3 0 6 22 19 48 13 26 28 66 31 88 l7 39 -46 -45 c-41 -39 -46 -42 -46
-22 0 31 -27 38 -58 15 -44 -33 -52 -111 -11 -100 24 6 24 2 0 -31 -28 -41
-93 -172 -89 -183 2 -6 23 7 47 28 24 20 42 32 40 26 -7 -20 -273 -324 -394
-450 -64 -68 -114 -123 -110 -123 17 0 190 128 279 206 l99 87 -71 -88 c-39
-49 -69 -91 -67 -93 5 -5 59 36 150 113 l60 50 -65 -74 c-36 -41 -109 -120
-162 -177 -54 -56 -98 -105 -98 -109 0 -10 125 80 217 158 111 92 231 221 321
342 41 55 77 102 79 105 3 3 -16 -35 -43 -85 -48 -88 -48 -89 -18 -68 40 28
102 96 158 173 25 34 46 60 46 56 0 -3 -9 -28 -20 -56 -11 -27 -17 -50 -13
-50 4 0 27 19 52 43 24 23 41 38 39 32 -3 -5 -31 -52 -62 -103 -59 -97 -106
-186 -106 -199 0 -4 32 24 72 62 l71 70 -49 -65 c-97 -129 -271 -333 -434
-510 -52 -57 -86 -98 -74 -92 54 29 199 145 294 236 58 56 98 92 89 81 -9 -11
-53 -66 -98 -122 -45 -57 -80 -103 -77 -103 9 0 119 91 180 149 l60 56 -41
-50 c-35 -42 -89 -104 -302 -339 -46 -52 116 66 226 163 114 101 237 237 325
359 33 45 62 82 64 82 2 0 -14 -29 -35 -63 -21 -35 -46 -78 -56 -96 -15 -31
-15 -32 2 -22 23 12 95 88 158 166 27 33 53 65 58 70 4 6 -6 -21 -22 -58 -17
-38 -31 -72 -31 -75 0 -4 25 18 56 48 l56 55 -53 -85 c-109 -176 -148 -244
-143 -250 4 -3 50 40 102 95 110 114 109 113 -55 -85 -106 -128 -199 -233
-438 -497 l-60 -67 62 42 c86 58 173 130 272 226 94 89 91 83 -18 -49 -41 -49
-82 -99 -90 -109 -27 -33 78 45 152 114 111 102 63 41 -122 -155 -93 -99 -168
-181 -166 -183 5 -6 147 98 231 170 96 80 253 242 325 333 28 36 52 65 54 65
2 0 -18 -36 -46 -80 -27 -44 -46 -80 -43 -80 15 0 121 99 182 169 115 134 247
356 267 446 l6 30 -31 -35 c-17 -19 -65 -80 -107 -135 -41 -55 -79 -104 -84
-110 -5 -5 18 44 52 108 33 64 58 117 55 117 -3 0 -44 -49 -91 -110 -48 -60
-89 -110 -90 -110 -2 0 21 39 52 88 78 123 213 405 176 367 -6 -5 -65 -88
-132 -182 -67 -95 -124 -173 -127 -173 -3 0 3 15 14 33 31 49 114 218 110 222
-2 2 -48 -54 -102 -126 -54 -71 -100 -129 -102 -129 -2 0 27 44 63 98 71 104
172 304 197 390 8 28 14 52 12 52 -2 0 -30 -38 -62 -84 -62 -89 -78 -103 -46
-39 23 45 66 182 60 189 -3 2 -33 -35 -68 -83 -35 -49 -59 -79 -55 -68 26 65
75 209 72 212 -4 3 -191 -278 -246 -369 -41 -68 -31 -40 26 77 31 63 54 117
51 120 -2 2 -39 -45 -82 -105 -42 -61 -79 -110 -82 -110 -2 0 10 24 27 53 70
118 205 428 180 413 -5 -3 -30 -41 -57 -83 -72 -118 -206 -323 -209 -323 -2 0
15 37 38 83 45 88 88 187 82 187 -2 0 -36 -45 -75 -100 -40 -55 -74 -100 -76
-100 -2 0 13 28 32 61 61 103 153 333 140 346 -2 3 -28 -31 -57 -74 -65 -97
-75 -109 -54 -58 20 50 45 155 37 155 -4 0 -33 -37 -64 -81 -59 -83 -65 -89
-49 -46 21 55 39 127 32 127 -4 0 -51 -65 -104 -145z"/>
<path d="M5040 3523 c0 -5 16 -32 35 -61 20 -28 33 -52 30 -52 -3 0 -20 7 -36
16 -37 19 -46 13 -31 -21 32 -69 156 -165 215 -165 17 0 17 2 -3 35 l-21 34
55 -25 c31 -14 63 -24 72 -22 38 7 -163 191 -267 244 -27 13 -49 21 -49 17z"/>
<path d="M7632 3508 c-7 -7 -12 -25 -12 -40 0 -23 4 -28 23 -28 40 0 62 26 58
68 -1 15 -53 16 -69 0z"/>
<path d="M9502 3484 c-12 -8 -29 -28 -37 -44 -16 -31 -21 -110 -6 -110 38 0
100 106 86 149 -8 25 -14 26 -43 5z"/>
<path d="M3659 3451 c-13 -11 -21 -22 -17 -26 9 -9 60 17 66 33 6 18 -23 14
-49 -7z"/>
<path d="M3759 3410 l-24 -19 26 -1 c24 0 49 16 49 32 0 15 -27 8 -51 -12z"/>
<path d="M9618 3393 c-40 -43 -59 -90 -56 -135 l3 -41 34 29 c39 33 70 95 71
142 0 40 -17 42 -52 5z"/>
<path d="M3968 3369 c-26 -15 -22 -39 6 -39 22 0 36 16 36 41 0 12 -20 11 -42
-2z"/>
<path d="M8645 3318 c-46 -41 -95 -123 -95 -161 0 -16 2 -16 29 -3 64 34 130
126 131 184 0 31 -10 28 -65 -20z"/>
<path d="M4060 3331 c-14 -28 -13 -31 15 -31 21 0 45 24 45 44 0 15 -50 4 -60
-13z"/>
<path d="M4994 3266 c-12 -31 0 -51 31 -51 27 0 30 3 30 30 0 25 -4 30 -28 33
-17 2 -29 -2 -33 -12z"/>
<path d="M8451 3182 c-79 -73 -90 -81 -69 -47 14 22 28 50 32 63 l7 22 -38
-22 c-20 -13 -69 -52 -108 -88 -44 -41 -63 -54 -51 -36 10 16 28 45 39 64 l20
35 -21 -12 c-92 -49 -437 -349 -420 -366 11 -11 150 62 212 113 98 79 103 81
68 33 -18 -24 -30 -46 -28 -48 2 -3 28 8 58 22 l53 27 -110 -111 c-60 -61
-105 -111 -100 -111 6 0 41 18 78 39 37 22 67 38 67 35 0 -18 -365 -265 -553
-374 -59 -34 -106 -64 -104 -66 15 -15 335 122 445 191 71 44 47 20 -45 -46
-49 -35 -99 -71 -113 -82 -25 -19 -25 -19 -2 -12 37 11 162 71 220 105 28 17
52 28 52 26 0 -6 -209 -146 -327 -220 -51 -32 -93 -60 -93 -62 0 -9 155 53
259 104 272 133 532 347 705 577 94 125 96 134 8 55 -152 -137 -174 -153 -98
-69 77 86 177 223 220 301 25 47 6 30 -164 -142 -179 -182 -215 -214 -130
-114 20 23 56 70 80 105 l45 64 -43 -33 c-23 -19 -44 -37 -47 -42 -3 -4 -33
-32 -67 -61 l-63 -54 61 70 c85 98 189 256 167 255 -5 -1 -50 -40 -102 -88z"/>
<path d="M2754 3155 c4 -11 19 -51 33 -90 30 -83 99 -229 142 -302 17 -29 30
-53 27 -53 -2 0 -40 52 -85 115 -45 63 -83 115 -86 115 -7 0 38 -102 92 -207
29 -57 50 -103 48 -103 -1 0 -47 63 -101 141 -54 77 -102 143 -106 145 -13 8
26 -84 83 -198 48 -97 49 -101 17 -63 -65 78 -86 100 -92 94 -16 -16 54 -173
119 -264 45 -64 143 -161 152 -151 3 3 -2 23 -11 46 -9 22 -14 40 -12 40 1 0
34 -42 72 -92 71 -96 276 -309 354 -369 53 -41 50 -34 -53 101 -44 58 -85 112
-91 120 -6 8 30 -26 79 -76 86 -85 236 -214 250 -214 4 0 -17 28 -46 63 -44
53 -261 321 -308 382 -8 11 27 -22 80 -72 52 -51 98 -93 103 -93 7 0 -27 52
-121 183 -51 70 -33 57 28 -20 71 -90 175 -201 273 -292 88 -81 287 -233 295
-225 3 2 -26 37 -65 77 -38 40 -89 94 -114 121 -44 48 -43 47 31 -15 83 -70
211 -162 274 -199 27 -15 -31 48 -175 194 -118 119 -210 216 -204 216 6 0 19
-10 30 -21 16 -18 118 -102 174 -143 21 -16 -12 28 -129 166 l-103 123 93 -99
c113 -120 278 -262 397 -344 93 -64 252 -156 257 -150 2 2 -52 52 -121 111
-69 59 -123 107 -119 107 4 0 24 -13 44 -29 74 -59 337 -209 347 -198 2 2 -35
35 -83 73 -129 102 -373 305 -373 310 0 3 24 -13 53 -34 56 -41 169 -112 178
-112 3 0 -46 53 -110 117 -64 65 -96 99 -71 77 135 -122 279 -225 446 -317 99
-55 272 -132 280 -124 2 2 -52 41 -121 87 -69 46 -128 86 -130 90 -2 3 56 -24
128 -60 115 -57 287 -126 287 -115 0 2 -48 34 -107 71 -171 107 -383 246 -383
251 0 3 28 -11 63 -30 64 -36 177 -89 177 -82 0 1 -63 51 -140 110 -77 59
-143 112 -146 117 -3 5 34 -20 82 -56 183 -135 450 -267 661 -326 58 -17 108
-29 109 -27 2 1 -62 36 -141 77 -79 41 -142 76 -141 78 2 1 36 -12 77 -29 82
-34 310 -99 343 -98 19 0 19 1 -4 11 -74 33 -510 247 -510 251 0 2 38 -11 84
-30 88 -35 176 -64 176 -57 0 2 -65 42 -145 89 -80 47 -145 88 -145 91 0 3 15
-3 33 -14 217 -133 547 -246 806 -275 64 -8 41 4 -111 58 -76 27 -136 50 -134
52 2 2 39 -5 82 -17 93 -24 262 -50 319 -49 30 0 -27 22 -233 90 -267 89 -341
120 -189 80 80 -21 175 -37 167 -28 -3 3 -72 33 -153 67 -81 35 -146 64 -144
66 2 2 50 -15 107 -37 217 -84 460 -130 683 -128 l122 1 -110 23 c-60 13 -128
28 -150 32 -24 5 39 7 162 5 111 -3 210 -1 220 3 11 5 -37 16 -132 31 -169 27
-407 73 -415 81 -3 3 9 3 26 0 17 -3 78 -8 135 -11 l104 -6 -60 19 c-33 11
-97 29 -143 41 -46 13 -81 24 -79 26 2 3 42 -4 88 -15 150 -35 267 -44 477
-38 108 3 224 12 257 20 l60 13 -55 7 c-30 4 -95 7 -144 7 -49 0 -86 3 -83 6
4 4 53 11 109 15 106 9 308 47 308 58 0 3 -57 4 -127 3 -71 -2 -202 0 -293 4
l-165 8 114 8 c186 13 197 22 46 37 -214 22 -220 27 -22 23 142 -3 217 0 310
13 128 18 291 60 367 94 55 24 38 25 -95 6 -150 -22 -162 -17 -40 15 130 34
348 119 309 120 -6 0 -66 -11 -133 -25 -123 -25 -388 -66 -419 -64 -9 0 28 11
83 24 55 13 118 30 140 39 39 15 39 15 -45 8 -47 -4 -211 -7 -365 -7 -309 1
-422 12 -706 69 -88 17 -159 30 -159 28 0 -2 33 -18 73 -37 88 -40 244 -89
352 -109 44 -9 91 -18 105 -20 14 -3 -30 -3 -97 0 -68 2 -123 3 -123 0 0 -6
152 -46 235 -62 l70 -14 -105 6 c-58 3 -157 12 -220 19 -63 7 -116 12 -118 10
-5 -4 81 -34 178 -61 132 -37 23 -20 -170 27 -130 31 -398 115 -555 173 -49
19 130 -91 220 -134 96 -46 269 -109 303 -111 10 0 12 -3 6 -5 -6 -3 -64 7
-128 21 -65 14 -121 25 -124 25 -15 -1 79 -45 173 -81 55 -21 93 -39 84 -39
-9 0 -102 22 -208 48 -105 27 -191 47 -191 45 0 -5 152 -79 203 -98 26 -10 46
-20 44 -22 -13 -12 -363 131 -582 238 -93 46 -174 85 -180 87 -5 2 10 -15 35
-38 68 -62 198 -146 333 -216 67 -35 120 -64 116 -64 -3 0 -54 18 -114 40 -60
21 -111 37 -113 35 -5 -5 66 -50 173 -107 110 -60 89 -55 -134 33 -96 38 -176
67 -178 65 -4 -4 129 -91 207 -135 97 -55 40 -33 -79 30 -171 91 -308 170
-478 280 -84 54 -153 95 -153 91 0 -11 102 -108 185 -178 38 -32 117 -89 174
-126 58 -37 102 -68 98 -68 -4 0 -58 25 -120 55 l-112 56 45 -41 c25 -22 85
-67 134 -100 49 -33 86 -60 82 -60 -6 0 -184 94 -356 187 l-45 25 49 -46 c27
-26 79 -69 117 -98 38 -28 69 -53 69 -55 0 -15 -331 222 -519 373 -101 80
-180 140 -176 132 42 -72 243 -279 363 -372 34 -27 62 -51 62 -53 0 -4 -62 35
-159 100 -71 48 -73 49 -52 18 13 -17 65 -68 117 -113 52 -44 94 -83 94 -85 0
-4 -79 48 -238 160 -63 43 -115 77 -118 75 -3 -4 143 -152 226 -228 19 -18 10
-13 -20 11 -111 87 -269 228 -459 409 -107 102 -191 178 -186 170 67 -115 173
-249 304 -384 l86 -89 -107 86 c-60 48 -111 87 -114 87 -10 0 59 -83 140 -167
43 -46 76 -83 72 -83 -4 0 -84 66 -178 146 -205 176 -199 153 30 -106 30 -33
52 -60 49 -60 -10 0 -324 340 -456 494 -75 88 -149 174 -164 190 l-28 31 27
-55 c43 -88 129 -221 203 -317 38 -48 82 -104 97 -123 15 -19 -21 12 -81 70
-59 58 -104 98 -100 90 19 -35 92 -140 142 -205 42 -54 17 -32 -106 94 -89 90
-161 161 -161 157 0 -13 108 -176 161 -243 27 -35 47 -63 44 -63 -14 0 -343
432 -489 643 -38 54 -70 96 -72 94 -3 -2 13 -45 34 -95 44 -100 126 -245 209
-367 59 -86 55 -84 -56 48 -40 48 -75 87 -77 87 -8 0 60 -127 113 -210 62 -99
52 -87 -110 115 -66 83 -124 155 -129 160 -13 13 76 -166 109 -219 14 -23 18
-34 10 -26 -9 8 -99 145 -202 305 -102 159 -189 292 -192 295 -3 3 -3 -4 1
-15z m3349 -732 c-7 -2 -19 -2 -25 0 -7 3 -2 5 12 5 14 0 19 -2 13 -5z m54 -9
c-3 -3 -12 -4 -19 -1 -8 3 -5 6 6 6 11 1 17 -2 13 -5z m-320 -90 c-3 -3 -12
-4 -19 -1 -8 3 -5 6 6 6 11 1 17 -2 13 -5z m-977 -160 c0 -2 -9 0 -20 6 -11 6
-20 13 -20 16 0 2 9 0 20 -6 11 -6 20 -13 20 -16z"/>
<path d="M9822 3144 c-31 -21 -62 -86 -62 -129 0 -41 7 -43 45 -13 32 25 64
91 65 131 0 31 -15 34 -48 11z"/>
<path d="M2705 3057 c-9 -33 11 -75 41 -89 21 -10 27 -9 35 3 16 25 10 59 -16
84 -30 31 -53 32 -60 2z"/>
<path d="M8919 2836 c-167 -178 -230 -234 -137 -124 25 29 64 82 88 118 50 75
51 76 -120 -85 -214 -200 -446 -388 -717 -579 -84 -59 -153 -109 -153 -111 0
-2 33 10 73 26 97 40 243 119 333 180 41 27 74 48 74 45 0 -2 -52 -46 -115
-97 -63 -51 -115 -94 -115 -96 0 -6 140 67 205 107 36 22 65 38 65 36 0 -4
-211 -162 -347 -260 -29 -21 -53 -39 -53 -41 0 -19 240 104 370 189 153 100
231 165 375 310 111 112 251 287 264 329 2 6 -30 -20 -70 -58 -139 -132 -155
-143 -82 -58 88 103 258 353 240 353 -2 0 -82 -83 -178 -184z"/>
<path d="M9887 2970 c-47 -37 -61 -134 -18 -123 35 9 63 50 68 97 6 53 -7 60
-50 26z"/>
<path d="M9226 2520 c-97 -100 -176 -177 -176 -172 0 5 7 15 15 22 17 14 112
140 140 185 l19 30 -30 -26 c-16 -14 -83 -75 -149 -136 -234 -216 -484 -421
-757 -623 -48 -35 -86 -66 -84 -68 9 -9 246 117 348 184 126 83 124 77 -12
-36 -55 -46 -98 -85 -96 -87 4 -5 161 83 215 120 98 67 20 0 -156 -134 -234
-177 -235 -178 -141 -136 139 63 323 179 473 297 153 120 398 386 470 510 9
15 -70 -44 -80 -60 -3 -4 -37 -36 -77 -71 l-73 -64 53 59 c82 91 175 213 231
304 28 45 49 82 47 82 -2 0 -83 -81 -180 -180z"/>
<path d="M8286 2520 c-231 -157 -340 -220 -209 -122 62 47 169 142 160 142 -4
0 -72 -37 -150 -82 -261 -150 -585 -299 -907 -417 -144 -53 -142 -63 5 -37
103 18 183 39 292 76 48 16 88 28 90 26 2 -1 -49 -27 -112 -56 -63 -29 -113
-55 -111 -58 6 -6 130 23 200 48 33 11 64 20 70 20 15 -1 -27 -20 -249 -111
-104 -43 -179 -78 -165 -79 41 0 236 47 355 86 145 47 364 154 495 241 131 87
333 253 307 253 -3 0 -62 -34 -131 -75 -69 -41 -126 -73 -126 -71 0 2 30 26
68 53 92 68 218 180 270 242 24 28 42 51 40 50 -2 0 -88 -58 -192 -129z"/>
<path d="M8705 2286 c-135 -97 -334 -233 -315 -214 8 8 57 52 108 98 51 45 91
84 89 87 -3 2 -67 -35 -143 -83 -173 -108 -407 -240 -584 -329 -129 -65 -368
-177 -419 -196 -52 -20 -10 -17 85 5 117 29 220 63 335 110 98 41 93 36 -61
-49 -63 -36 -108 -65 -100 -64 8 0 65 17 125 38 61 21 119 41 130 45 11 3 -78
-42 -197 -102 -120 -59 -220 -111 -223 -114 -11 -11 120 23 230 58 313 103
664 311 855 510 72 74 70 74 -80 -21 -87 -55 -90 -57 -90 -52 0 2 28 26 63 53
100 78 320 297 295 294 -2 -1 -48 -34 -103 -74z"/>
<path d="M9360 2109 c-278 -245 -535 -455 -782 -638 -70 -52 -125 -97 -123
-100 3 -2 56 22 120 54 131 66 311 182 435 281 116 93 312 291 390 394 35 47
68 91 73 98 21 27 -4 8 -113 -89z"/>
<path d="M3446 2129 c6 -8 33 -43 59 -79 27 -36 81 -98 119 -138 67 -69 68
-72 33 -57 -53 22 -60 19 -42 -16 35 -67 127 -148 203 -179 40 -16 50 -8 28
24 -26 41 -19 39 47 -13 109 -85 378 -243 392 -230 2 3 -89 81 -203 174 -114
93 -301 248 -415 345 -196 164 -248 204 -221 169z"/>
<path d="M7945 2033 c-158 -68 -345 -143 -345 -138 0 2 44 27 98 55 53 28 108
60 122 70 l25 20 -30 -10 c-16 -5 -120 -38 -230 -75 -241 -79 -563 -161 -815
-206 -102 -18 -189 -37 -195 -42 -16 -15 337 -1 444 18 52 8 95 14 97 12 2 -2
-38 -14 -89 -27 -50 -13 -110 -30 -132 -37 -37 -12 -32 -13 65 -8 58 3 123 7
145 10 l40 5 -35 -11 c-19 -6 -120 -31 -225 -54 l-190 -43 120 -1 c286 -1 606
77 900 219 119 58 240 129 232 136 -4 4 -57 -14 -197 -66 -46 -17 -82 -29 -79
-26 2 3 56 31 119 63 113 57 278 161 301 189 15 18 27 22 -146 -53z"/>
<path d="M8880 1874 c-220 -154 -263 -182 -205 -134 56 47 193 184 175 174 -8
-4 -85 -51 -170 -104 -300 -187 -511 -306 -789 -444 -95 -48 -171 -89 -168
-92 14 -14 357 104 468 161 16 9 29 14 29 12 0 -3 -56 -37 -125 -77 -69 -40
-124 -75 -122 -77 5 -4 152 47 222 77 27 11 49 19 51 18 1 -2 -101 -57 -226
-123 -126 -66 -228 -121 -226 -122 5 -6 176 47 275 84 53 19 149 62 214 94 65
33 120 59 122 59 3 0 11 -12 19 -27 9 -16 15 -22 16 -12 0 8 -5 20 -11 26 -16
16 -7 26 70 72 133 79 441 324 441 351 0 5 -48 -21 -107 -58 -130 -82 -149
-92 -103 -55 108 87 250 216 298 271 30 34 53 62 50 62 -2 0 -92 -61 -198
-136z"/>
<path d="M3450 1915 c-13 -14 -19 -25 -13 -25 12 0 48 38 41 45 -2 3 -15 -6
-28 -20z"/>
<path d="M8185 1672 c-304 -141 -310 -143 -154 -51 47 28 99 61 115 74 25 21
15 19 -76 -16 -378 -148 -625 -230 -953 -320 -183 -50 -195 -54 -148 -57 64
-4 264 22 378 48 47 11 87 19 89 18 1 -2 -54 -23 -122 -47 -69 -24 -123 -45
-121 -48 4 -3 104 10 237 32 61 10 5 -9 -205 -70 -110 -32 -204 -62 -209 -66
-11 -10 94 -1 222 17 246 36 505 119 732 235 125 63 295 167 288 175 -2 1 -59
-19 -127 -47 -67 -27 -126 -49 -129 -49 -4 0 38 25 92 56 138 78 338 215 310
213 -5 0 -103 -44 -219 -97z"/>
<path d="M7605 1630 c-84 -22 -441 -100 -454 -100 -9 1 35 18 97 39 62 21 117
42 123 48 5 5 -71 -3 -168 -18 -330 -50 -592 -74 -927 -85 -122 -4 -201 -11
-188 -15 44 -16 232 -39 372 -46 80 -3 141 -7 135 -9 -5 -1 -64 -8 -130 -15
-140 -15 -125 -23 65 -36 l115 -7 -70 -7 c-38 -4 -133 -10 -210 -14 -194 -11
-213 -18 -90 -36 146 -20 488 -18 635 5 200 31 539 130 575 168 7 7 4 9 -10 5
-11 -3 -73 -15 -139 -27 -122 -22 -168 -22 -74 0 94 22 388 139 388 154 0 7
-5 7 -45 -4z"/>
<path d="M5565 1371 c27 -25 266 -88 440 -116 l90 -14 -133 3 c-73 1 -129 0
-125 -4 10 -9 127 -36 221 -51 40 -7 71 -14 68 -16 -4 -4 -402 24 -451 32 -48
9 -16 -11 50 -30 33 -9 107 -28 165 -41 58 -13 83 -21 55 -18 -87 9 -441 83
-674 139 -123 30 -226 54 -228 52 -14 -15 348 -157 475 -187 126 -29 3 -15
-208 25 -51 10 52 -37 169 -76 133 -45 129 -45 -153 16 -116 24 -211 43 -213
41 -5 -4 168 -80 220 -96 21 -7 37 -14 34 -16 -2 -2 -66 16 -143 40 -121 38
-496 159 -531 171 -27 9 -10 -5 46 -39 66 -41 244 -130 279 -141 13 -4 22 -9
20 -11 -2 -2 -64 15 -137 37 -73 22 -135 38 -138 35 -5 -4 38 -28 187 -102 36
-18 62 -33 59 -33 -4 -1 -104 33 -223 74 -119 41 -216 73 -216 71 0 -6 113
-73 178 -105 34 -17 62 -33 62 -36 0 -2 -33 10 -72 26 -124 51 -340 130 -345
126 -5 -5 78 -66 157 -115 65 -41 66 -41 -125 37 -136 55 -147 58 -115 31 19
-16 79 -55 132 -87 96 -57 125 -82 51 -45 -67 34 -325 143 -329 139 -3 -2 41
-35 96 -72 55 -38 100 -70 100 -72 0 -2 -30 12 -67 31 -75 37 -213 89 -220 82
-4 -4 87 -83 137 -119 25 -17 25 -17 -10 -3 -19 8 -68 28 -109 46 -40 17 -75
30 -77 28 -3 -4 84 -75 150 -122 48 -33 43 -32 -93 29 -57 25 -105 44 -107 42
-15 -15 171 -150 298 -217 51 -27 90 -50 87 -50 -4 0 -59 23 -124 50 -65 28
-120 49 -122 46 -9 -9 196 -137 323 -202 68 -35 121 -64 118 -64 -4 0 -50 15
-103 34 -143 51 -153 53 -106 20 22 -16 74 -47 115 -71 41 -24 72 -43 68 -43
-3 0 -66 24 -140 54 -170 70 -268 106 -268 101 0 -6 108 -79 188 -127 81 -48
80 -48 -132 41 -93 39 -171 70 -173 67 -6 -6 184 -129 287 -186 52 -28 88 -50
79 -47 -91 29 -162 48 -165 44 -6 -6 115 -86 174 -116 23 -12 42 -23 42 -26 0
-2 -21 2 -47 10 -58 18 -97 19 -87 4 3 -6 33 -28 66 -49 l59 -39 -58 5 -58 6
37 -36 c34 -33 36 -36 15 -36 -38 0 -49 -13 -31 -38 30 -43 114 -73 158 -56
14 5 14 8 -1 30 -15 24 -15 24 8 16 35 -13 117 -24 129 -17 5 3 -5 19 -23 35
l-32 29 46 -14 c26 -7 72 -16 104 -20 68 -9 68 1 -1 41 -24 14 -44 27 -44 29
0 2 26 -5 58 -14 32 -10 89 -23 128 -30 38 -7 77 -14 87 -16 42 -8 10 15 -80
59 -54 26 -89 45 -78 41 96 -31 368 -86 355 -72 -3 3 -66 31 -140 61 -136 56
-156 68 -65 41 71 -22 287 -65 321 -64 20 0 -7 14 -86 45 -116 45 -175 71
-136 59 47 -14 267 -54 326 -60 86 -8 70 0 -133 70 -92 32 -166 60 -164 61 2
2 48 -5 103 -15 216 -42 221 -36 26 34 -73 26 -131 49 -129 51 1 2 44 -10 95
-26 51 -16 130 -37 177 -46 82 -18 112 -34 60 -34 -32 0 -32 -13 1 -39 37 -29
91 -44 141 -38 67 7 72 20 21 52 l-43 27 35 -6 c82 -12 225 -18 215 -9 -5 6
-56 23 -112 38 -57 16 -101 30 -99 32 2 2 34 -1 72 -6 91 -14 269 -20 284 -11
6 4 -60 25 -149 46 -88 21 -159 40 -157 41 1 2 38 -1 82 -7 93 -11 264 -17
264 -9 0 3 -48 17 -107 32 -60 14 -90 24 -68 21 22 -2 88 -7 147 -11 l107 -6
-25 -20 -25 -19 22 -24 c27 -29 40 -30 70 -5 l24 19 -24 26 -24 26 86 0 c47 0
88 4 91 9 3 5 -40 18 -97 29 l-102 20 130 1 c142 1 237 10 230 21 -2 4 -44 12
-92 20 -157 22 -154 26 28 32 197 6 261 21 138 32 -308 29 -720 82 -1052 136
-71 12 -134 19 -140 17 -17 -5 205 -81 328 -112 61 -15 112 -29 114 -31 4 -4
-76 2 -167 11 -64 7 -43 -9 53 -40 47 -16 84 -29 83 -31 -2 -1 -62 6 -133 16
-191 27 -251 33 -243 25 4 -4 47 -22 95 -41 48 -18 82 -33 75 -34 -18 0 -425
109 -588 158 -71 22 -146 43 -165 46 -81 17 146 -96 346 -171 50 -19 77 -31
60 -27 -130 27 -210 42 -214 38 -4 -4 147 -76 187 -89 13 -4 22 -9 19 -11 -2
-2 -26 3 -53 11 -137 40 -356 93 -346 83 6 -6 59 -35 119 -64 59 -29 105 -54
102 -54 -10 0 -463 181 -469 187 -3 4 4 3 15 -1 53 -19 190 -56 198 -53 6 2
-22 22 -62 46 -39 24 -70 45 -69 47 2 1 42 -11 88 -27 112 -40 247 -72 229
-54 -8 7 -88 52 -179 100 -91 47 -156 84 -145 81 59 -16 105 -23 105 -17 0 3
-27 24 -59 46 -33 22 -58 41 -57 43 2 1 39 -15 82 -37 150 -74 440 -168 570
-186 27 -4 58 -9 69 -12 48 -13 -8 17 -115 62 -63 26 -117 50 -120 53 -3 3 4
2 15 -2 87 -32 408 -96 421 -84 2 3 -92 41 -210 84 -118 43 -214 79 -212 81 1
1 34 -4 72 -12 118 -25 128 -19 44 26 -82 44 -80 44 65 -1 181 -56 372 -91
560 -104 112 -8 98 1 -68 44 -70 18 -126 35 -124 37 2 1 47 -3 100 -11 120
-19 380 -30 352 -17 -11 6 -92 26 -180 46 -206 46 -322 76 -270 70 111 -12
209 -16 195 -7 -8 5 -66 24 -128 42 -118 34 -150 53 -41 24 156 -40 283 -55
519 -60 129 -3 253 -2 275 3 37 9 32 10 -70 22 -191 24 -201 29 -58 30 136 1
333 19 333 30 0 4 -100 15 -223 25 -323 26 -364 33 -195 35 75 0 139 5 142 9
3 5 -67 19 -154 32 -174 25 -213 39 -53 19 224 -28 582 -10 783 40 l75 19
-155 2 c-150 3 -152 3 -76 12 125 14 425 82 414 93 -2 2 -100 -3 -218 -10
-118 -8 -240 -14 -270 -14 -53 1 -52 1 30 14 47 8 110 20 140 28 52 13 35 14
-270 20 -350 7 -781 39 -975 72 -18 3 -26 2 -20 -4z m-520 -499 c-3 -3 -11 0
-18 7 -9 10 -8 11 6 5 10 -3 15 -9 12 -12z m662 -388 c-3 -3 -12 -4 -19 -1 -8
3 -5 6 6 6 11 1 17 -2 13 -5z"/>
<path d="M7850 1259 c-111 -33 -401 -109 -414 -109 -6 1 23 14 64 29 41 16
100 40 130 55 65 31 56 30 -147 -14 -275 -59 -760 -133 -1016 -156 -43 -4 -80
-10 -82 -14 -8 -14 181 -23 359 -18 l171 4 -115 -22 c-63 -13 -126 -24 -140
-25 -15 -1 -4 -5 25 -10 28 -5 96 -7 153 -3 56 3 102 4 102 1 0 -2 -111 -20
-247 -38 -281 -38 -283 -46 -13 -48 289 -2 530 36 797 125 135 45 277 103 269
111 -2 3 -57 -7 -122 -21 -65 -14 -122 -26 -128 -25 -6 0 37 17 95 38 145 52
386 168 332 160 -5 -1 -37 -10 -73 -20z"/>
<path d="M8110 1218 c-63 -22 -299 -103 -525 -179 l-410 -139 85 4 c71 4 190
24 310 51 22 5 21 4 -5 -10 -16 -8 -55 -26 -85 -40 l-55 -25 68 5 c37 3 82 8
100 10 18 3 -58 -26 -168 -65 -217 -76 -217 -75 -15 -54 25 2 41 2 35 0 -11
-5 -599 -136 -610 -136 -3 0 -3 -5 1 -11 8 -13 222 -5 333 12 35 5 65 8 67 6
2 -2 -42 -16 -98 -31 -109 -28 -154 -51 -83 -42 22 3 83 8 135 11 52 3 115 10
139 16 76 17 54 3 -49 -30 -55 -19 -100 -37 -100 -41 0 -17 298 14 355 36 8 4
15 4 15 1 0 -3 -42 -19 -92 -36 -112 -38 -140 -53 -83 -46 149 19 212 29 299
51 55 13 101 22 103 20 2 -1 -40 -20 -92 -40 -52 -21 -97 -41 -99 -45 -6 -9
108 5 193 25 35 8 65 13 67 12 1 -2 -59 -27 -134 -57 -75 -30 -131 -56 -124
-59 12 -4 184 23 219 34 10 3 -9 -9 -41 -28 -33 -19 -62 -40 -64 -46 -8 -25
121 -11 213 22 11 5 -1 -6 -27 -23 -27 -17 -48 -34 -48 -37 0 -4 30 -4 66 -1
48 3 63 2 55 -6 -16 -16 -13 -44 5 -51 31 -12 53 -6 74 21 20 26 20 28 4 40
-21 15 -21 16 40 38 59 23 166 90 166 105 0 6 -8 9 -17 7 -10 -3 -40 -8 -67
-12 -27 -4 -85 -19 -128 -34 l-78 -28 37 33 38 33 -45 1 c-44 1 -44 2 50 35
52 19 97 34 100 34 3 1 -16 -13 -42 -29 -27 -17 -48 -33 -48 -36 0 -13 108 6
181 31 40 13 74 23 76 21 2 -1 -6 -11 -17 -21 -30 -28 -24 -38 18 -31 27 5 9
-8 -73 -49 -60 -30 -123 -66 -140 -79 l-30 -25 25 0 c14 0 43 4 65 9 22 5 41
8 43 6 1 -2 -22 -16 -51 -30 -30 -15 -67 -39 -83 -52 l-29 -24 50 6 c28 3 72
12 99 20 66 19 66 19 26 -15 -19 -16 -32 -33 -27 -37 12 -13 139 16 202 46 33
16 76 45 95 65 l35 37 -55 -7 -55 -7 62 42 c96 64 92 70 -27 45 -23 -5 -24 -5
-6 7 45 31 117 90 114 93 -2 2 -23 -1 -47 -6 -24 -5 -45 -8 -47 -6 -2 1 18 18
43 37 67 50 68 65 4 57 -28 -3 -51 -5 -51 -3 0 1 20 17 45 35 25 18 45 36 45
41 0 9 -87 -10 -160 -34 -50 -17 -49 -16 70 56 46 28 79 53 74 55 -6 2 -62
-14 -124 -37 -62 -22 -116 -40 -119 -40 -3 0 28 20 70 44 92 52 172 106 166
112 -4 4 -186 -58 -279 -95 -49 -19 -30 -2 34 30 77 39 190 110 185 116 -2 2
-48 -12 -102 -32 -53 -19 -100 -35 -104 -35 -3 0 18 14 48 30 58 32 161 107
161 117 0 5 -30 1 -85 -13 -24 -6 -22 -2 22 40 l48 48 -50 -5 c-27 -3 -59 -8
-70 -12 -11 -5 0 10 25 33 36 33 41 41 25 42 -16 0 -120 -34 -230 -75 -11 -4
17 15 62 41 44 27 92 57 105 67 l23 18 -25 -7 c-14 -3 -74 -23 -134 -45 -60
-21 -111 -37 -113 -36 -1 2 34 24 80 49 87 49 157 98 141 98 -5 0 -70 -20
-144 -45 -74 -25 -137 -45 -140 -45 -3 0 31 20 75 43 80 43 165 96 165 103 0
7 -14 3 -130 -38z m-70 -252 c0 -2 -28 -21 -62 -42 l-63 -39 32 -3 c36 -4 168
29 213 53 43 22 46 18 14 -12 l-29 -28 33 -5 c31 -5 28 -7 -60 -52 -51 -26
-106 -59 -123 -72 l-30 -25 25 0 c14 0 43 4 65 9 75 17 45 3 -92 -45 -180 -63
-181 -63 -90 -15 42 22 77 42 77 44 0 6 -60 -3 -135 -20 -32 -7 -61 -12 -62
-10 -2 2 25 13 59 26 116 42 326 145 316 155 -2 2 -105 -25 -228 -60 -123 -35
-226 -63 -227 -61 -2 2 22 13 54 25 68 26 173 80 157 81 -6 0 -62 -11 -124
-25 -62 -14 -115 -24 -117 -21 -2 2 11 7 29 11 52 12 248 80 308 108 62 29 60
28 60 23z"/>
<path d="M4630 1180 c-13 -8 -13 -13 0 -37 13 -23 24 -29 58 -31 37 -3 42 -1
42 17 0 45 -61 76 -100 51z"/>
<path d="M4512 1158 c-14 -14 -16 -44 -2 -53 18 -11 51 15 48 38 -3 25 -28 33
-46 15z"/>
<path d="M3897 914 c-9 -9 18 -53 47 -76 19 -16 15 -16 -36 2 -32 10 -58 16
-58 12 0 -3 19 -26 43 -50 39 -41 40 -43 12 -29 -33 17 -105 33 -105 23 0 -3
14 -21 32 -41 l31 -36 -29 6 c-16 4 -37 9 -46 12 -31 8 -20 -25 22 -67 22 -22
38 -40 36 -40 -2 0 -20 7 -39 15 -20 8 -41 15 -47 15 -20 0 8 -37 61 -79 28
-23 50 -41 47 -41 -2 0 -33 11 -67 25 -35 15 -68 24 -73 23 -10 -4 33 -46 102
-101 38 -30 41 -31 -77 17 -35 13 -63 21 -63 16 0 -4 27 -30 61 -57 109 -87
109 -87 70 -68 -18 10 -63 28 -100 41 l-66 25 45 -43 c25 -24 61 -55 80 -70
39 -31 38 -30 -77 16 -35 13 -63 21 -63 16 0 -7 37 -39 135 -116 l20 -16 -20
8 c-11 4 -48 17 -82 30 -92 35 -85 21 47 -85 l25 -20 -38 10 c-70 19 -77 7
-26 -43 54 -53 138 -96 206 -105 l48 -6 -30 33 c-23 26 -26 31 -10 25 63 -25
188 -65 203 -65 18 1 -11 30 -74 77 -24 18 -15 16 61 -12 50 -18 106 -35 125
-39 l35 -6 -30 26 c-16 14 -59 43 -95 65 -36 23 -56 38 -45 34 85 -28 134 -43
160 -49 l30 -6 -30 25 c-16 14 -56 42 -88 62 -31 20 -56 38 -54 40 2 2 24 -4
48 -12 66 -24 120 -35 113 -23 -4 5 -47 36 -96 69 -50 32 -89 59 -87 59 2 0
33 -9 67 -20 35 -11 71 -20 80 -20 21 0 0 18 -108 92 -41 28 -64 48 -50 44 14
-4 41 -9 60 -12 l35 -5 -40 36 c-51 47 -106 85 -172 120 -29 15 -53 29 -53 32
0 2 16 1 35 -3 39 -7 42 -3 19 31 l-16 25 42 -15 c45 -16 90 -20 90 -8 0 4
-10 18 -22 31 -13 14 -18 23 -13 20 6 -2 33 -14 60 -27 61 -28 133 -51 160
-50 17 0 14 5 -15 30 -47 41 -134 100 -195 133 -49 26 -50 26 -17 26 20 0 32
5 32 13 0 17 -59 77 -85 87 -37 14 -81 21 -88 14z"/>
<path d="M6785 878 c-82 -5 -336 -7 -562 -5 -227 3 -413 3 -413 2 0 -15 353
-75 440 -75 30 0 62 -5 70 -10 10 -7 -27 -10 -115 -10 -76 0 -125 -4 -120 -9
9 -8 186 -37 262 -43 15 -1 -84 -5 -222 -8 l-250 -5 120 -23 c184 -34 273 -42
480 -42 192 0 351 14 500 45 97 20 216 52 224 61 3 3 -30 3 -74 0 -44 -4 -114
-8 -155 -11 l-75 -4 75 15 c185 36 427 103 403 111 -7 3 -99 -5 -205 -17 -106
-11 -220 -23 -253 -25 -57 -5 -55 -4 30 15 49 11 110 26 135 34 l45 14 -95 -1
c-52 0 -162 -4 -245 -9z"/>
<path d="M7300 493 c0 -15 5 -35 10 -43 7 -11 10 -6 10 22 0 20 -4 40 -10 43
-6 4 -10 -6 -10 -22z"/>
<path d="M7475 478 c-11 -6 -25 -19 -32 -27 -27 -35 51 -56 95 -25 27 19 28
40 3 54 -25 13 -41 12 -66 -2z"/>
<path d="M4282 58 c-15 -15 -16 -45 -2 -53 16 -10 40 15 40 41 0 26 -19 31
-38 12z"/>
</g>
</svg>
