<?xml version="1.0" standalone="no"?>
<!DOCTYPE svg PUBLIC "-//W3C//DTD SVG 20010904//EN"
 "http://www.w3.org/TR/2001/REC-SVG-20010904/DTD/svg10.dtd">
<svg version="1.0" xmlns="http://www.w3.org/2000/svg"
 width="1280.000000pt" height="1097.000000pt" viewBox="0 0 1280.000000 1097.000000"
 preserveAspectRatio="xMidYMid meet">
<metadata>
Created by potrace 1.15, written by Peter Selinger 2001-2017
</metadata>
<g transform="translate(0.000000,1097.000000) scale(0.100000,-0.100000)"
fill="#000000" stroke="none">
<path d="M9160 10740 c-110 -24 -228 -118 -283 -227 -67 -131 -92 -343 -63
-533 14 -94 80 -383 138 -608 20 -77 24 -84 50 -89 37 -7 40 -13 27 -54 -6
-19 -10 -64 -10 -100 l0 -66 -162 -5 c-148 -5 -169 -8 -237 -34 -72 -28 -76
-31 -102 -84 -15 -30 -28 -65 -28 -78 l0 -23 -32 24 c-81 61 -171 82 -270 65
-125 -21 -206 -91 -239 -207 -15 -52 -15 -60 2 -107 23 -69 66 -132 102 -150
24 -13 28 -20 23 -42 -34 -157 -38 -212 -32 -392 8 -267 64 -878 87 -947 7
-24 7 -38 -2 -55 -19 -36 -15 -129 6 -166 11 -18 22 -32 26 -32 4 0 17 -30 29
-67 48 -147 115 -250 300 -463 l115 -132 -4 -167 c-3 -157 -2 -169 20 -214 21
-42 29 -49 76 -64 l52 -16 -37 -17 c-80 -36 -142 -111 -142 -172 0 -22 -2 -23
-104 -23 -102 0 -105 -1 -185 -41 l-81 -42 -1 37 c-1 70 -20 101 -87 141 -82
50 -301 120 -395 127 -53 3 -135 -5 -312 -32 -312 -47 -331 -52 -368 -85 l-32
-28 -3 -140 -4 -141 -62 -6 c-44 -5 -78 -2 -115 9 -49 14 -59 14 -107 0 -30
-8 -73 -26 -97 -39 -80 -44 -84 -43 -89 20 -3 31 -10 61 -15 66 -6 6 -37 18
-70 25 -111 28 -721 16 -1228 -22 -110 -8 -284 -19 -387 -23 -211 -10 -224
-14 -213 -69 6 -31 4 -34 -12 -27 -47 19 -90 27 -126 22 l-39 -5 7 44 c8 55 0
66 -74 104 -89 44 -206 82 -588 190 -549 156 -1135 340 -1338 420 l-79 31 -16
-21 -16 -21 -24 27 c-29 31 -100 64 -138 64 -26 0 -27 2 -24 45 3 38 -1 53
-24 87 -33 47 -132 131 -145 123 -16 -11 -79 -132 -143 -276 -80 -183 -98
-217 -216 -424 -155 -271 -306 -584 -296 -612 14 -35 243 16 315 71 12 9 13 7
7 -9 -13 -35 -26 -116 -26 -165 l0 -48 -82 -6 c-46 -3 -164 -10 -263 -16 -380
-23 -682 -57 -769 -86 -26 -9 -54 -27 -63 -40 -8 -13 -24 -24 -34 -24 -10 0
-23 -8 -28 -18 -5 -9 -11 -115 -13 -234 -2 -184 -1 -220 12 -232 19 -19 104
-36 181 -36 l59 0 0 -65 c0 -65 -6 -75 -28 -53 -9 9 -12 3 -12 -30 0 -23 5
-42 10 -42 6 0 10 5 10 10 0 6 5 10 10 10 6 0 10 -18 10 -40 0 -22 -4 -40 -10
-40 -5 0 -10 5 -10 10 0 6 -4 10 -10 10 -5 0 -10 -19 -10 -42 0 -33 3 -39 12
-30 7 7 16 12 20 12 4 0 8 -520 8 -1155 0 -763 -3 -1155 -10 -1155 -5 0 -10 5
-10 10 0 6 -4 10 -10 10 -5 0 -10 -19 -10 -42 0 -33 3 -39 12 -30 20 20 28 14
28 -24 0 -31 -3 -35 -20 -29 -18 6 -20 2 -20 -36 0 -34 3 -40 12 -31 23 23 28
12 28 -63 0 -68 2 -75 20 -75 20 0 20 -7 20 -410 0 -267 -3 -410 -10 -410 -6
0 -10 -28 -10 -65 l0 -65 135 0 135 0 0 60 c0 42 -4 61 -15 67 -13 8 -15 68
-13 478 l3 469 1015 632 c558 348 1026 639 1040 646 14 7 45 26 69 42 l44 29
2347 0 2347 0 44 -29 c24 -16 55 -35 69 -42 14 -7 179 -109 365 -225 l340
-213 8 -154 c6 -132 3 -1085 -5 -1367 -3 -91 -3 -92 29 -125 l31 -33 -24 -35
c-24 -34 -69 -159 -60 -167 2 -2 35 -11 72 -19 94 -19 512 -20 538 -1 17 13
17 16 -5 68 -48 111 -103 189 -153 216 -15 8 -16 14 -7 31 16 29 14 118 -3
150 -12 23 -13 54 -5 177 13 213 76 936 82 941 3 3 52 -23 109 -59 l103 -64 3
-271 c2 -227 0 -275 -12 -294 -22 -33 -30 -98 -17 -142 8 -32 7 -45 -9 -76
-27 -52 -60 -142 -60 -161 0 -9 15 -39 33 -65 63 -93 70 -130 39 -215 -20 -55
-20 -55 0 -83 20 -27 132 -107 195 -140 49 -25 202 -23 235 3 51 40 108 126
108 162 0 37 -52 153 -98 222 -17 25 -32 62 -36 92 -3 28 -13 72 -22 99 -16
47 -16 50 4 65 11 9 25 26 31 37 17 35 24 125 12 174 -9 40 1 276 14 317 3 8
43 -12 112 -55 l108 -68 3 -469 c2 -410 0 -470 -13 -478 -11 -6 -15 -25 -15
-67 l0 -60 135 0 135 0 0 65 c0 37 -4 65 -10 65 -7 0 -10 143 -10 410 0 403 0
410 20 410 18 0 20 7 20 75 0 75 5 86 28 63 9 -9 12 -3 12 31 0 38 -2 42 -20
36 -17 -6 -20 -2 -20 29 0 38 8 44 28 24 9 -9 12 -2 12 32 0 34 -3 41 -12 32
-7 -7 -16 -12 -20 -12 -4 0 -8 520 -8 1155 0 635 4 1155 8 1155 4 0 13 -5 20
-12 9 -9 12 -2 12 32 0 34 -3 41 -12 32 -21 -21 -28 -13 -28 28 0 22 5 40 10
40 6 0 10 -4 10 -10 0 -5 5 -10 10 -10 6 0 10 19 10 42 0 33 -3 39 -12 30 -22
-22 -28 -12 -28 52 l0 63 93 6 c106 6 147 19 154 47 5 20 6 20 29 -4 14 -13
37 -27 52 -31 35 -10 1669 -19 1790 -10 143 11 136 -3 140 267 4 262 1 285
-36 300 -15 7 -36 23 -48 36 -19 23 -27 25 -162 30 -138 5 -142 5 -137 26 18
87 16 157 -6 226 -20 61 -34 83 -95 149 -84 90 -152 130 -264 156 -62 15 -139
18 -440 22 -201 2 -412 1 -470 -4 l-104 -8 -9 -37 -9 -38 -42 25 c-71 42 -147
48 -248 21 l-26 -8 5 100 c7 115 1 145 -31 175 l-24 22 43 -3 c57 -5 149 15
168 36 20 22 50 211 45 276 -3 28 -21 88 -41 134 -20 46 -37 91 -37 100 0 9
11 40 24 68 13 27 45 135 72 240 48 188 48 189 48 359 1 122 -4 201 -18 280
-15 93 -19 177 -21 535 -4 496 -17 665 -64 783 -9 24 -7 33 19 68 16 22 36 65
45 96 15 51 15 59 -1 105 -27 83 -64 133 -120 166 -107 62 -246 60 -357 -4
l-57 -34 -27 54 c-29 61 -34 63 -178 112 -79 27 -122 35 -210 40 l-110 7 0 81
c0 44 -4 91 -8 104 -7 19 -5 22 16 22 34 0 41 12 69 125 14 55 56 206 92 335
77 271 91 350 82 475 -18 277 -126 459 -306 516 -75 23 -232 33 -300 19z
m-646 -2348 c23 -269 132 -646 238 -825 31 -54 53 -77 99 -107 33 -21 65 -40
70 -42 6 -2 -1 -24 -15 -49 -77 -136 -70 -320 15 -446 l28 -43 -29 0 c-54 0
-115 -38 -146 -91 -15 -27 -32 -49 -36 -49 -4 0 -15 15 -24 33 -52 101 -133
198 -228 275 -11 9 -13 17 -6 30 16 28 41 444 47 780 7 342 -1 435 -43 552
-22 60 -22 66 -6 83 15 17 16 17 23 0 3 -10 9 -56 13 -101z m1567 -18 c-16
-109 -14 -212 10 -396 23 -182 89 -585 114 -693 21 -92 21 -92 -17 -177 l-33
-73 1 -185 c0 -166 14 -454 29 -583 l5 -48 -63 -62 c-75 -75 -95 -126 -104
-267 l-6 -95 39 -38 c22 -21 71 -54 109 -73 39 -19 61 -33 50 -30 -35 8 -136
17 -293 25 -84 4 -157 12 -163 18 -6 6 9 15 44 26 47 15 55 22 75 62 19 39 22
62 22 163 0 238 -31 438 -100 653 -63 196 -111 260 -209 277 l-40 7 29 47 c74
119 82 296 19 421 -11 21 -17 42 -14 47 3 5 26 21 50 35 109 65 270 396 339
700 21 92 56 319 56 361 0 7 14 -1 31 -17 l31 -29 -11 -76z m-8064 -2655 c43
-47 89 -69 148 -69 33 0 44 -4 48 -18 2 -11 18 -22 38 -27 33 -8 33 -8 -22
-16 -114 -16 -268 -90 -333 -158 -41 -43 -49 -39 -26 15 16 37 61 173 97 297
3 9 7 17 9 17 2 0 21 -18 41 -41z m7069 -51 c-39 -6 -67 -6 -80 1 -16 7 -1 10
59 9 l80 0 -59 -10z m-5956 -418 c67 -34 486 -213 680 -291 l195 -78 -320 0
c-176 -1 -369 2 -430 5 l-110 7 -1 86 c-2 94 -26 182 -71 259 l-26 44 24 -7
c13 -4 40 -16 59 -25z m3410 -371 c0 -5 -4 -9 -10 -9 -5 0 -10 7 -10 16 0 8 5
12 10 9 6 -3 10 -10 10 -16z m3872 -9 c25 -7 66 -9 100 -6 50 6 57 5 52 -8 -4
-9 1 -18 10 -22 20 -8 11 -24 -15 -24 -10 0 -27 -9 -36 -20 -11 -13 -24 -18
-39 -14 -28 7 -54 -28 -54 -76 -1 -29 -2 -32 -11 -17 -5 9 -18 17 -28 17 -33
0 -51 43 -51 121 0 58 3 70 14 66 8 -3 34 -11 58 -17z m-4902 -96 c0 -18 -46
-74 -61 -74 -33 0 -39 -33 -39 -220 0 -118 -3 -179 -10 -175 -6 4 -10 75 -10
181 0 180 -6 214 -39 214 -9 0 -29 18 -44 40 l-26 41 114 -2 c63 -1 115 -3
115 -5z m-82 -583 c9 -5 47 -12 85 -16 l67 -7 0 -54 0 -54 64 0 c41 0 66 4 68
12 4 11 1957 -1270 1958 -1284 0 -8 -809 -13 -2265 -13 -1453 0 -2275 5 -2275
13 1 14 1954 1295 1958 1284 2 -8 27 -12 68 -12 l64 0 0 54 0 55 58 6 c91 10
102 14 114 43 11 26 12 26 15 4 3 -12 12 -26 21 -31z m-609 -109 c-74 -49
-519 -343 -989 -653 -470 -311 -874 -576 -897 -588 l-41 -24 -199 114 c-475
271 -944 560 -1445 891 -231 153 -318 215 -318 229 0 11 -4 19 -10 19 -5 0
-10 -4 -10 -10 0 -5 -7 -10 -15 -10 -12 0 -15 13 -15 60 l0 60 2037 0 2036 0
-134 -88z m3715 36 c3 -29 10 -136 16 -238 15 -269 41 -543 52 -557 6 -7 18
-13 28 -13 16 0 16 -4 5 -37 -11 -34 -26 -46 -141 -116 -71 -43 -232 -137
-357 -209 l-229 -131 -41 24 c-23 13 -487 317 -1031 676 l-988 653 1340 0
1341 0 5 -52z m789 -90 c4 -79 7 -190 7 -248 l0 -105 -118 -76 c-64 -42 -118
-76 -119 -75 -3 3 28 599 33 624 4 21 9 22 98 22 l93 0 6 -142z m597 82 c0
-48 -3 -60 -16 -60 -11 0 -14 5 -10 16 3 9 6 36 6 60 0 24 5 44 10 44 6 0 10
-27 10 -60z m-9010 -110 c0 -5 5 -10 12 -10 6 0 147 -89 312 -199 487 -321
960 -613 1429 -880 175 -100 196 -115 180 -126 -41 -28 -1937 -1207 -1949
-1212 -12 -4 -14 194 -14 1216 0 1079 2 1221 15 1221 8 0 15 -4 15 -10z m9010
-1210 c0 -671 -3 -1220 -6 -1220 -4 0 -51 27 -105 61 -68 42 -99 67 -99 79 0
36 50 597 77 855 32 314 37 612 12 660 -19 38 -19 192 0 205 17 10 23 48 55
305 35 278 35 275 51 275 13 0 15 -159 15 -1220z m-586 818 c3 -13 6 -47 6
-77 0 -34 6 -61 15 -71 14 -15 14 -21 -1 -56 -10 -24 -14 -53 -11 -77 4 -27 1
-40 -8 -43 -17 -7 -24 -24 -43 -109 -12 -56 -16 -182 -21 -638 l-6 -568 -98
62 -99 62 6 56 c16 159 29 441 30 646 1 243 -4 275 -44 275 -24 0 -24 -1 -5
43 20 49 19 103 -5 155 -18 40 -18 43 -2 49 27 10 32 24 32 90 0 37 5 67 13
73 17 16 220 148 228 149 4 1 9 -9 13 -21z m-701 -500 c4 -30 2 -37 -13 -41
-11 -3 -23 -20 -30 -43 -19 -68 -32 -293 -26 -456 3 -87 3 -158 0 -158 -6 0
-523 320 -592 365 l-33 22 258 149 c142 81 294 169 338 196 89 54 83 56 98
-34z"/>
</g>
</svg>
