<?xml version="1.0" standalone="no"?>
<!DOCTYPE svg PUBLIC "-//W3C//DTD SVG 20010904//EN"
 "http://www.w3.org/TR/2001/REC-SVG-20010904/DTD/svg10.dtd">
<svg version="1.0" xmlns="http://www.w3.org/2000/svg"
 width="1280.000000pt" height="878.000000pt" viewBox="0 0 1280.000000 878.000000"
 preserveAspectRatio="xMidYMid meet">
<metadata>
Created by potrace 1.15, written by Peter Selinger 2001-2017
</metadata>
<g transform="translate(0.000000,878.000000) scale(0.100000,-0.100000)"
fill="#000000" stroke="none">
<path d="M285 8757 c-116 -55 -210 -221 -261 -459 -27 -123 -25 -407 3 -543
30 -142 140 -502 169 -552 64 -109 124 -144 295 -168 122 -17 188 -34 231 -63
23 -15 39 -17 93 -11 116 12 201 87 241 212 21 66 30 294 15 397 -5 41 -7 78
-2 83 4 4 93 14 198 22 105 8 221 22 259 32 l69 17 -45 7 c-25 4 -90 8 -145
10 -57 1 -87 4 -70 8 32 6 41 32 15 42 -33 14 158 22 390 16 135 -3 253 -2
262 1 22 9 12 25 -32 48 -32 17 -74 19 -450 28 -228 5 -416 10 -418 11 -1 1 5
19 14 41 42 98 7 278 -83 423 -75 121 -148 186 -307 275 -191 108 -256 136
-329 142 -52 4 -70 1 -112 -19z"/>
<path d="M5873 8711 c-73 -59 -103 -94 -204 -241 -107 -157 -165 -230 -184
-230 -23 0 -55 56 -126 217 -76 174 -98 207 -165 252 -63 41 -119 43 -156 4
-44 -49 -51 -84 -56 -306 l-4 -207 -66 61 c-42 39 -93 75 -141 98 -69 33 -84
36 -162 36 -78 0 -91 -3 -161 -38 -89 -44 -140 -96 -200 -204 -48 -89 -83
-120 -145 -129 -114 -17 -351 25 -477 84 -34 16 -128 71 -211 122 -219 136
-276 159 -478 190 -164 25 -220 41 -318 90 -175 89 -297 105 -403 55 -130 -61
-218 -230 -201 -383 4 -31 23 -118 43 -192 l37 -135 1 -305 c1 -378 12 -447
99 -620 93 -185 261 -399 357 -454 41 -24 66 -30 127 -34 105 -6 206 17 444
99 405 140 722 198 1077 199 344 0 550 -46 847 -192 172 -84 189 -98 215 -178
l14 -44 -57 -38 c-32 -20 -65 -47 -73 -61 -36 -54 -90 -493 -181 -1467 -95
-1014 -210 -1935 -301 -2420 -81 -430 -177 -827 -240 -997 -108 -293 -340
-561 -527 -610 -132 -34 -344 7 -547 105 -85 41 -107 57 -210 161 -119 120
-210 240 -373 493 l-88 137 10 132 c31 381 -2 755 -75 861 -34 48 -53 103 -54
153 -1 22 -4 58 -8 80 -7 38 -4 46 84 180 148 226 198 341 198 455 0 111 -37
164 -246 353 -75 68 -104 101 -125 145 -25 55 -29 58 -103 89 -50 22 -92 33
-124 33 -60 0 -93 17 -147 78 -48 53 -104 131 -98 135 2 1 35 17 72 36 119 59
207 155 238 259 8 28 18 42 29 42 31 0 48 35 65 135 24 144 33 335 24 496 -9
142 -18 179 -44 179 -7 0 -21 8 -30 17 -15 14 -16 29 -11 103 7 86 7 86 -29
150 -43 75 -73 112 -163 191 -141 126 -295 217 -442 263 -69 22 -86 31 -87 47
-3 31 -22 49 -55 49 -22 0 -33 -7 -46 -29 -13 -24 -37 -37 -132 -71 -218 -79
-370 -173 -455 -282 -44 -55 -105 -170 -105 -196 0 -17 -8 -19 -152 -37 -261
-31 -421 -80 -526 -158 l-34 -26 34 -18 c30 -16 61 -18 315 -18 154 0 284 -2
286 -5 3 -3 -3 -55 -13 -115 -11 -61 -22 -158 -26 -217 -6 -99 -5 -108 15
-134 25 -32 45 -99 62 -207 11 -74 14 -79 51 -105 25 -17 51 -51 74 -93 65
-123 185 -232 301 -275 27 -10 49 -18 51 -20 2 -1 -10 -15 -25 -31 -15 -16
-35 -43 -44 -59 -13 -25 -36 -39 -116 -73 -129 -54 -166 -80 -193 -136 -21
-44 -49 -72 -170 -167 -30 -24 -69 -66 -87 -93 -17 -28 -45 -69 -62 -93 -27
-37 -31 -51 -31 -109 0 -56 4 -71 26 -100 14 -19 48 -82 76 -141 27 -59 67
-143 87 -187 21 -44 55 -102 75 -128 l37 -49 -21 -43 c-11 -24 -32 -96 -46
-161 -14 -65 -39 -152 -55 -193 -42 -102 -46 -172 -19 -291 20 -90 21 -111 15
-370 -6 -256 -5 -280 14 -351 23 -90 61 -169 127 -265 32 -46 48 -80 49 -105
1 -20 12 -50 25 -67 l23 -31 -23 -61 c-13 -34 -54 -114 -93 -178 -87 -146
-132 -240 -152 -317 -19 -73 -20 -238 -2 -253 6 -5 44 -19 82 -30 39 -11 117
-35 175 -52 65 -20 136 -34 187 -37 76 -5 87 -3 139 23 73 37 180 142 243 239
59 89 69 128 50 193 -10 32 -14 106 -14 238 l0 191 36 34 c45 42 77 125 90
233 6 45 25 145 44 222 40 166 55 251 55 319 0 32 4 45 9 35 29 -52 105 -429
122 -610 10 -98 15 -119 35 -141 33 -35 32 -106 -6 -300 -32 -167 -36 -219
-18 -252 6 -12 54 -79 106 -149 81 -111 101 -131 145 -152 78 -37 164 -50 275
-43 162 11 422 74 422 102 0 8 14 56 30 106 50 149 28 200 -154 372 -146 137
-171 178 -171 282 l0 69 37 9 c36 9 37 10 54 84 12 56 15 97 10 157 -4 49 -3
77 2 71 5 -6 42 -59 82 -120 168 -252 317 -423 470 -539 78 -59 217 -126 337
-163 78 -23 105 -27 238 -27 130 -1 157 2 207 20 202 77 421 337 548 650 43
105 96 284 129 434 60 276 174 885 205 1095 58 399 176 1366 266 2180 47 422
118 1007 123 1011 9 6 71 23 74 21 5 -6 54 -209 139 -577 41 -179 122 -509
179 -735 57 -225 169 -705 249 -1065 157 -709 301 -1301 366 -1501 80 -252
152 -411 280 -619 113 -185 174 -314 216 -465 9 -33 41 -122 71 -198 35 -90
53 -149 51 -170 l-3 -32 -100 0 c-150 0 -174 -25 -197 -210 -14 -108 -1 -220
31 -284 49 -95 148 -135 259 -107 78 21 76 21 117 -15 32 -28 40 -31 79 -25
52 8 109 43 150 93 16 20 44 42 62 49 43 18 144 17 264 -1 146 -22 192 -20
223 11 51 51 62 109 61 324 0 164 -4 210 -22 287 -30 128 -29 176 4 202 31 24
69 26 194 10 68 -8 119 -7 255 7 180 18 280 15 338 -10 42 -17 102 -90 170
-208 43 -76 46 -84 30 -93 -10 -5 -37 -28 -60 -50 -106 -103 -93 -336 26 -455
43 -43 52 -47 124 -59 43 -7 90 -10 106 -6 24 5 32 1 56 -31 66 -87 131 -81
405 40 l115 50 175 1 c166 0 177 1 213 23 81 51 86 132 19 323 -144 408 -172
494 -170 508 2 9 26 24 53 35 55 22 139 24 560 16 240 -5 324 5 580 70 195 50
529 159 669 219 209 88 383 205 553 372 262 255 440 580 540 984 35 142 39
353 9 480 -85 366 -320 709 -686 1004 -263 212 -448 299 -890 421 -124 34
-227 64 -228 65 -2 2 15 31 38 64 101 150 126 258 74 320 -23 27 -32 31 -77
31 -32 0 -84 -12 -137 -31 -114 -40 -266 -85 -372 -109 -71 -16 -118 -19 -260
-17 -168 2 -174 1 -218 -23 -29 -16 -51 -38 -63 -62 -31 -64 -13 -102 154
-333 166 -228 257 -381 308 -515 68 -178 121 -250 185 -250 80 0 122 100 146
350 6 63 13 120 15 127 7 23 230 -45 409 -126 77 -35 471 -243 499 -263 10 -7
25 -40 33 -72 22 -83 35 -99 114 -135 81 -37 80 -34 54 -166 -10 -47 -14 -98
-10 -118 8 -44 47 -83 90 -91 32 -6 34 -9 38 -57 3 -31 19 -78 42 -122 33 -65
35 -73 20 -82 -96 -58 -118 -133 -75 -257 l19 -57 -56 -6 c-161 -19 -205 -67
-171 -188 15 -55 7 -69 -31 -55 -67 23 -149 -25 -206 -120 -10 -18 -26 -32
-35 -32 -9 0 -37 18 -62 40 -81 71 -136 82 -197 39 -26 -17 -26 -17 -45 12
-41 60 -121 67 -224 19 -35 -17 -64 -29 -65 -28 -13 35 -54 101 -78 127 -58
62 -129 76 -206 41 -31 -14 -44 -16 -46 -7 -48 182 -66 222 -119 259 -45 32
-118 30 -181 -5 -27 -15 -50 -26 -51 -25 -1 2 -14 45 -29 97 -48 171 -102 240
-194 249 -31 2 -61 -2 -86 -12 -22 -9 -40 -15 -41 -14 -1 2 -7 38 -14 81 -14
87 -29 129 -61 170 -64 81 -164 77 -295 -12 -36 -25 -78 -27 -95 -6 -7 9 -17
59 -22 113 -15 174 -63 228 -190 218 l-66 -6 -11 32 c-36 104 20 207 148 273
58 29 91 67 91 106 0 16 -11 63 -25 106 -45 141 -34 221 56 407 69 144 64 228
-18 262 -67 29 -214 12 -376 -42 -43 -14 -81 -24 -83 -21 -8 8 14 84 53 181
58 145 55 199 -10 244 -63 42 -176 22 -327 -60 -246 -134 -749 -518 -917 -701
l-51 -56 -23 26 c-27 29 -77 53 -112 53 -21 0 -100 -24 -151 -45 -17 -7 -18
-5 -12 20 4 16 48 115 98 219 79 169 148 343 148 375 0 7 -11 23 -25 36 -20
21 -34 25 -79 25 -58 0 -211 -27 -333 -59 -40 -11 -73 -17 -73 -15 0 14 53
105 127 218 46 71 97 154 113 185 33 67 66 175 74 246 l6 50 -87 -3 c-49 -2
-167 -19 -263 -37 -190 -36 -250 -45 -250 -34 0 3 49 74 109 157 177 247 225
361 184 442 -37 72 -136 98 -306 81 -60 -7 -122 -14 -139 -18 l-30 -6 51 75
c68 101 120 207 133 272 10 45 9 61 -6 100 -34 89 -94 116 -257 118 -120 2
-122 -2 61 114 107 68 280 212 280 233 0 4 -60 42 -132 86 -236 140 -337 214
-364 267 -15 29 -14 32 39 121 117 196 197 384 197 461 0 94 -72 130 -205 101
-76 -16 -267 -85 -347 -126 -69 -35 -69 -36 -32 195 31 195 29 284 -9 368 -41
91 -94 103 -174 39z m-562 -2544 c4 -27 1 -41 -11 -52 -21 -19 -30 -19 -30 2
0 9 -7 25 -16 35 -16 16 -15 19 7 37 32 27 43 22 50 -22z"/>
<path d="M1444 8031 c-224 -36 -134 -78 189 -88 149 -4 207 -3 207 5 0 21 -44
52 -95 68 -59 18 -229 26 -301 15z"/>
</g>
</svg>
