<?xml version="1.0" standalone="no"?>
<!DOCTYPE svg PUBLIC "-//W3C//DTD SVG 20010904//EN"
 "http://www.w3.org/TR/2001/REC-SVG-20010904/DTD/svg10.dtd">
<svg version="1.0" xmlns="http://www.w3.org/2000/svg"
 width="976.000000pt" height="1280.000000pt" viewBox="0 0 976.000000 1280.000000"
 preserveAspectRatio="xMidYMid meet">
<metadata>
Created by potrace 1.15, written by Peter Selinger 2001-2017
</metadata>
<g transform="translate(0.000000,1280.000000) scale(0.100000,-0.100000)"
fill="#000000" stroke="none">
<path d="M2120 12778 c-58 -30 -85 -85 -115 -233 -32 -159 -46 -306 -44 -458
l3 -132 -68 -7 c-280 -28 -705 -451 -792 -788 -17 -68 -15 -195 7 -380 14
-112 22 -136 75 -216 l44 -68 0 -100 c0 -62 -8 -144 -22 -214 -16 -82 -19
-118 -11 -130 5 -9 43 -25 84 -35 98 -25 111 -37 107 -101 -3 -47 -1 -51 25
-64 21 -10 27 -18 21 -30 -4 -10 -9 -31 -12 -49 -5 -42 30 -67 81 -58 50 10
63 -9 72 -102 9 -97 24 -128 71 -143 49 -16 92 -4 249 71 184 88 236 89 238 7
1 -47 -23 -229 -34 -256 -5 -13 -9 -42 -9 -65 0 -62 -26 -158 -62 -234 -28
-60 -60 -96 -272 -308 -449 -447 -536 -576 -524 -773 6 -93 20 -133 110 -327
136 -291 177 -409 208 -592 4 -25 19 -56 38 -78 18 -19 32 -37 32 -39 0 -2 5
-28 10 -57 6 -30 20 -121 30 -204 39 -303 73 -416 151 -511 84 -101 374 -441
476 -556 133 -151 217 -256 283 -352 111 -165 358 -364 627 -508 50 -27 97
-55 103 -63 22 -27 23 -92 2 -182 -30 -129 -35 -216 -15 -280 14 -45 15 -63 5
-125 -42 -259 -66 -410 -97 -613 -48 -313 -45 -297 -58 -292 -7 3 -11 9 -10
15 2 6 -4 9 -11 6 -9 -3 -24 7 -37 26 -19 26 -28 30 -52 24 -16 -3 -34 -1 -43
7 -12 10 -13 9 -8 -6 5 -13 15 -16 41 -12 32 6 33 5 18 -16 -8 -12 -15 -28
-15 -37 1 -8 7 0 15 19 l15 33 48 -42 c26 -24 49 -45 52 -48 3 -2 -13 -1 -35
2 -39 6 -40 6 -7 -5 32 -10 33 -11 31 -61 -2 -27 -9 -57 -17 -64 -11 -11 -11
-18 -3 -28 9 -10 9 -42 2 -118 -5 -56 -13 -147 -17 -201 -6 -93 -8 -98 -28
-95 -11 2 -20 9 -18 17 1 7 -6 15 -17 18 -21 5 -35 50 -17 56 6 3 0 16 -15 32
l-27 27 1 -26 c0 -15 -2 -29 -4 -31 -2 -2 -27 -5 -54 -7 l-50 -3 -5 40 c-3 27
-10 41 -22 43 -15 3 -18 -4 -18 -33 0 -28 -5 -38 -20 -42 -28 -8 -27 -49 2
-57 32 -8 9 -29 -28 -24 -23 2 -29 8 -30 28 -1 50 -4 60 -18 60 -31 0 -37 -85
-7 -95 10 -3 21 -15 24 -25 7 -28 67 -28 74 0 3 11 12 20 20 20 8 0 17 9 20
20 4 17 14 20 55 20 41 0 51 -3 55 -20 3 -11 12 -20 19 -20 10 0 14 -16 14
-60 0 -53 -2 -60 -20 -60 -17 0 -20 -7 -20 -40 0 -23 -5 -40 -11 -40 -6 0 -9
7 -6 15 4 8 2 17 -3 20 -6 4 -10 14 -10 24 0 11 -9 21 -21 24 -33 9 -17 32 24
35 29 3 37 7 37 23 0 10 -7 19 -15 19 -9 0 -20 12 -25 26 -12 31 -33 27 -40
-7 -3 -13 -18 -39 -34 -56 -28 -31 -30 -32 -57 -17 -24 12 -36 13 -68 3 -35
-10 -42 -9 -70 11 -22 15 -30 28 -26 39 5 17 -62 107 -73 97 -2 -3 9 -21 27
-41 17 -20 31 -46 31 -60 0 -14 11 -32 28 -45 23 -19 35 -21 85 -15 60 6 67 3
42 -21 -21 -21 -19 -31 10 -50 24 -16 49 -15 88 1 12 5 17 3 17 -8 0 -8 6 -18
13 -20 6 -3 -2 -6 -20 -6 -37 -1 -65 -25 -61 -54 5 -35 31 -43 64 -19 16 12
48 25 72 31 l42 9 0 -39 c0 -28 4 -39 15 -39 12 0 15 -13 15 -59 0 -51 -3 -59
-21 -64 -31 -8 -18 -31 22 -41 50 -12 63 -48 55 -144 -12 -132 -12 -132 -60
-132 -48 0 -66 -13 -66 -50 0 -36 17 -50 62 -50 37 0 37 0 31 -32 -3 -18 -8
-35 -10 -38 -3 -3 -39 -5 -81 -5 l-77 0 -5 85 -5 85 -37 3 c-37 3 -38 4 -38
42 l0 39 123 3 122 3 3 43 3 42 -82 0 c-61 0 -85 4 -93 15 -6 8 -33 18 -59 21
-43 6 -51 4 -77 -21 -21 -20 -30 -38 -30 -60 0 -38 -8 -49 -26 -34 -10 8 -21
5 -44 -11 -16 -12 -30 -26 -30 -31 0 -14 -35 -46 -59 -54 -12 -3 -21 -13 -21
-22 0 -9 -8 -22 -17 -28 -17 -13 -17 -14 0 -33 11 -12 17 -31 15 -49 -3 -27
-6 -28 -63 -34 -88 -9 -101 -15 -119 -59 -14 -34 -20 -40 -46 -40 l-30 0 -1
-65 c-1 -36 -2 -70 -3 -77 0 -7 -15 -15 -32 -18 -46 -10 -54 -18 -54 -56 0
-32 -2 -34 -35 -36 -19 -1 -42 -2 -52 -2 -9 -1 -18 6 -20 14 -4 13 -3 13 6 0
9 -12 11 -11 11 8 0 30 -13 28 -48 -8 -41 -41 -62 -40 -57 2 2 18 6 43 10 56
5 14 3 22 -4 22 -7 0 -9 -5 -6 -10 4 -6 1 -17 -5 -25 -7 -8 -10 -24 -7 -35 3
-11 1 -22 -3 -25 -5 -3 -12 14 -16 37 -4 24 -9 37 -11 31 -6 -17 -38 -16 -73
2 -21 11 -30 24 -33 47 -4 32 -4 32 -5 -5 -2 -34 1 -39 28 -48 25 -9 30 -16
30 -44 0 -25 -5 -34 -23 -39 -43 -11 -54 -7 -61 24 -8 40 -48 57 -82 35 -20
-13 -24 -13 -24 -1 0 7 -9 24 -19 37 -17 21 -28 24 -82 24 -53 0 -65 3 -74 20
-22 43 -24 44 -61 33 -27 -7 -45 -6 -75 6 -37 15 -69 13 -69 -5 0 -20 -21 -7
-31 18 -16 42 -39 63 -68 63 -25 -1 -25 -1 6 -15 19 -8 38 -26 44 -42 27 -68
44 -79 59 -39 11 31 12 31 52 10 21 -11 45 -14 73 -11 39 6 42 4 53 -25 l11
-31 70 5 69 5 18 -33 c15 -27 16 -35 4 -48 -22 -28 -4 -28 28 -1 16 14 39 25
50 25 25 0 45 -23 32 -36 -7 -7 -4 -16 7 -27 15 -12 29 -14 68 -9 42 6 50 11
56 35 4 15 3 25 -1 22 -5 -3 -11 -1 -14 4 -7 11 12 26 21 17 4 -3 10 -31 14
-62 9 -68 23 -86 43 -59 13 18 15 19 33 3 10 -9 29 -18 43 -20 25 -3 25 -4 28
-121 2 -76 -1 -118 -7 -115 -6 1 -44 31 -85 66 -67 57 -79 63 -113 60 -52 -4
-45 -19 16 -36 57 -16 67 -40 26 -62 -20 -11 -28 -10 -49 4 -14 9 -33 16 -42
16 -9 0 -18 9 -21 21 -3 12 -11 18 -19 15 -7 -3 -20 2 -29 10 -18 18 -35 10
-35 -17 0 -23 -17 -25 -41 -3 -24 22 -49 11 -49 -21 0 -31 -8 -31 -54 0 -31
21 -40 23 -56 13 -16 -11 -24 -8 -48 15 -35 34 -46 34 -93 1 -44 -30 -54 -27
-63 20 -7 39 -35 55 -52 32 -20 -27 -54 -20 -66 15 -9 25 -14 29 -32 24 -11
-4 -51 -10 -88 -15 -37 -4 -77 -14 -90 -22 -32 -20 -76 -27 -123 -19 -36 6
-40 9 -37 32 3 26 2 26 -84 32 -58 4 -92 11 -104 22 -16 15 -22 14 -75 -10
-63 -27 -104 -32 -123 -13 -9 9 -12 9 -12 0 0 -7 12 -17 27 -23 23 -8 40 -5
94 16 60 23 68 24 100 11 19 -7 62 -17 97 -21 51 -6 62 -10 62 -25 0 -25 8
-29 78 -36 51 -6 66 -3 95 15 23 14 51 21 85 21 28 0 62 5 75 11 21 9 28 7 55
-21 31 -30 32 -30 61 -15 l31 15 14 -35 c19 -45 38 -52 75 -26 37 26 55 26 91
0 19 -15 36 -20 53 -15 17 4 33 -1 50 -14 28 -22 67 -27 67 -7 0 6 4 18 9 26
7 11 12 11 31 -2 21 -15 25 -15 48 4 23 18 27 18 46 4 30 -22 105 -55 125 -55
20 0 51 30 51 48 0 18 8 15 58 -26 l45 -37 -69 -5 -69 -5 -3 -39 c-2 -24 2
-42 10 -47 7 -5 45 -9 85 -9 l72 0 3 -37 c3 -38 3 -38 48 -38 45 0 45 0 48 38
3 37 4 38 40 35 l37 -3 3 -54 c6 -98 3 -101 -83 -101 -92 0 -125 -11 -125 -44
0 -35 22 -48 94 -53 95 -8 113 -1 121 46 6 37 9 40 43 43 l37 3 0 85 0 85 -35
5 c-29 4 -35 10 -41 36 -9 46 -17 54 -55 54 -19 0 -34 5 -34 10 0 6 -1 13 -2
17 -7 18 52 19 88 2 56 -26 72 -24 110 18 38 41 51 37 56 -17 3 -33 6 -35 43
-40 l40 -5 5 -60 5 -60 40 0 40 0 3 63 c2 50 0 63 -13 68 -14 6 -14 8 1 25 9
11 14 26 10 36 -6 16 -5 17 6 1 7 -9 18 -23 23 -31 6 -9 33 -17 73 -20 62 -5
62 -5 63 21 1 20 3 17 10 -15 13 -57 29 -68 61 -43 19 14 34 18 60 14 31 -5
36 -3 41 17 7 25 -8 49 -29 49 -19 0 -18 -26 1 -34 33 -12 14 -26 -27 -20 -33
6 -44 4 -55 -11 -18 -26 -29 -11 -42 59 -15 83 -14 139 1 130 7 -5 21 -9 32
-10 11 0 21 -5 23 -11 2 -6 10 -19 18 -29 11 -15 16 -17 26 -7 18 18 30 16 27
-3 -4 -24 19 -29 31 -6 5 10 11 44 12 76 2 44 6 56 17 51 7 -3 20 -5 29 -5 9
0 13 -8 11 -22 -4 -30 -26 -34 -31 -6 -4 20 -4 20 -6 -4 -1 -32 18 -37 42 -10
17 18 13 67 -4 56 -17 -10 -49 7 -49 27 0 16 5 19 20 14 13 -4 22 -1 26 8 4
12 10 12 30 3 14 -6 22 -17 19 -25 -3 -7 0 -20 6 -28 9 -10 9 -20 0 -39 -6
-14 -11 -27 -11 -29 0 -12 26 -3 44 14 12 10 32 22 45 26 l24 7 -7 -76 c-4
-43 -11 -89 -17 -103 -9 -25 -12 -26 -72 -19 -46 4 -68 2 -82 -8 -11 -7 -26
-11 -35 -8 -12 4 -13 2 -3 -8 10 -11 17 -11 35 -2 13 7 53 11 90 9 l68 -2 0
-46 c0 -25 -3 -80 -6 -122 -7 -76 -7 -76 -38 -80 l-31 -4 33 -1 c30 -2 32 -4
32 -42 0 -33 10 -49 23 -37 2 1 16 -6 31 -17 34 -22 152 -32 173 -15 18 16 26
6 25 -30 -1 -37 28 -50 62 -27 23 15 24 14 35 -30 6 -25 9 -49 6 -54 -12 -19
19 -21 34 -2 12 15 23 19 44 15 18 -3 26 -10 23 -18 -5 -15 21 -28 36 -19 6 4
9 1 6 -7 -3 -8 -15 -13 -26 -11 -28 4 -28 -13 -1 -32 25 -17 74 -12 100 10 8
8 23 14 33 14 9 0 19 7 22 15 10 26 23 17 34 -24 8 -31 7 -56 -5 -113 -9 -40
-20 -104 -25 -141 -5 -38 -12 -72 -15 -78 -4 -5 13 -9 38 -9 42 0 44 1 39 26
-7 36 19 245 29 238 5 -3 9 -1 9 5 0 5 -4 12 -9 15 -5 3 -7 25 -5 48 2 24 11
126 20 228 14 166 35 324 50 373 4 12 17 17 45 18 62 2 63 3 69 29 6 27 50 43
50 18 0 -8 6 -22 13 -32 18 -25 45 -10 49 27 2 24 8 32 23 32 15 0 21 -8 23
-32 2 -24 9 -33 25 -35 17 -2 22 -10 22 -33 0 -29 -2 -30 -47 -33 -47 -3 -48
-4 -48 -38 0 -30 -3 -34 -25 -34 -21 0 -25 5 -25 29 0 17 -4 32 -8 35 -5 3
-41 2 -81 -1 l-72 -6 3 -71 c3 -62 6 -71 23 -75 31 -5 35 -19 35 -113 0 -82
-1 -87 -22 -90 -19 -2 -23 -9 -23 -38 0 -35 0 -35 50 -40 48 -5 50 -6 53 -38
l3 -33 77 3 77 3 0 35 c0 28 -4 36 -22 38 -39 6 -41 72 -3 72 14 0 20 9 22 33
2 24 8 33 25 35 18 3 22 -2 25 -30 2 -25 8 -34 25 -36 16 -2 25 -13 31 -35 12
-45 46 -45 50 0 3 27 -1 33 -22 39 -19 4 -26 13 -28 37 -2 27 -7 32 -28 32
-24 0 -25 3 -30 70 -5 63 -7 70 -27 73 -25 4 -25 4 -27 -83 -1 -53 -3 -60 -21
-60 -18 0 -21 9 -27 90 -9 117 -7 121 40 117 42 -4 58 8 64 48 2 17 9 25 23
25 18 0 20 -8 25 -100 l5 -100 27 -3 28 -3 -5 67 c-3 36 -1 71 3 78 34 42 9
136 -35 136 -20 0 -24 4 -20 19 3 13 -7 33 -29 58 -19 21 -34 41 -34 46 0 4
-9 16 -20 27 -18 18 -22 19 -36 6 -26 -26 -41 -8 -48 56 -5 43 -4 63 5 68 6 4
8 13 5 19 -10 15 1 14 29 -5 13 -8 38 -14 56 -12 35 3 47 19 66 83 4 16 23 40
42 52 29 19 31 23 13 23 -29 0 -71 -48 -78 -90 -3 -19 -7 -41 -9 -47 -7 -20
-59 -15 -85 7 -13 11 -31 20 -42 20 -15 0 -17 -5 -12 -25 7 -29 2 -31 -31 -9
-15 10 -25 26 -25 41 0 20 -4 23 -20 18 -12 -4 -20 -2 -20 5 0 7 -8 9 -20 5
-22 -7 -25 1 -10 25 5 8 22 14 37 14 20 -1 22 0 6 3 -29 5 -30 23 -2 23 18 0
19 3 9 14 -9 12 -7 17 9 28 12 7 21 23 21 36 0 28 53 173 130 352 144 339 311
953 439 1618 70 363 97 535 111 722 6 74 16 151 22 170 18 58 127 210 209 293
98 99 137 117 524 242 281 91 581 204 790 298 274 123 936 483 1151 628 207
138 471 345 697 546 133 120 417 419 492 519 153 204 127 509 -65 766 -66 88
-328 351 -427 429 -221 174 -893 773 -1183 1055 -124 120 -304 292 -400 381
-291 268 -775 768 -1021 1053 -74 85 -196 220 -272 300 -76 80 -171 185 -210
235 -40 49 -121 150 -180 225 -60 74 -129 172 -155 218 -55 98 -61 105 -182
182 -110 70 -154 78 -189 34 -17 -21 -20 -35 -15 -68 9 -54 98 -311 158 -453
47 -111 51 -142 18 -124 -37 19 -170 59 -220 66 -40 5 -65 3 -103 -11 l-50
-18 -67 34 c-87 44 -224 180 -399 395 -249 306 -357 409 -1130 1078 -71 61
-144 101 -253 137 -102 34 -157 36 -210 8z m844 -1283 c38 -27 159 -122 269
-210 109 -88 225 -180 257 -205 32 -25 87 -69 122 -99 70 -60 196 -145 273
-184 53 -26 158 -53 345 -88 63 -12 140 -28 170 -35 30 -8 105 -21 165 -30 61
-8 135 -20 165 -28 52 -12 55 -14 69 -57 17 -52 18 -301 2 -497 -12 -142 -4
-206 35 -292 32 -72 87 -125 146 -141 38 -10 57 -8 175 21 150 36 172 35 293
-11 149 -57 284 -190 501 -493 152 -211 233 -342 425 -682 183 -324 279 -480
384 -619 187 -249 408 -432 619 -511 69 -26 81 -33 61 -38 -133 -27 -251 -61
-455 -131 -424 -146 -782 -299 -1130 -483 -390 -207 -473 -237 -595 -214 -71
13 -234 98 -300 157 -61 54 -285 168 -381 194 -155 42 -305 47 -414 14 -112
-34 -286 -147 -388 -252 -88 -89 -137 -108 -218 -82 -62 21 -73 34 -89 112
-12 54 -11 67 4 109 18 50 15 82 -12 135 -24 47 -52 247 -45 322 5 57 10 67
39 91 47 39 57 72 38 128 -16 48 -21 175 -9 216 4 12 21 34 37 48 22 19 34 43
49 105 11 44 34 122 50 173 18 54 28 102 25 115 -6 21 41 181 69 237 7 14 25
76 40 139 25 105 27 125 22 260 -4 102 -11 170 -26 226 -18 67 -20 96 -15 177
13 190 -43 578 -114 798 -55 171 -137 323 -346 644 -106 161 -204 324 -224
369 -34 81 -77 236 -132 483 -16 72 -32 139 -36 149 -9 23 -3 20 80 -40z m646
-6738 c0 -2 -10 -12 -22 -23 l-23 -19 19 23 c18 21 26 27 26 19z m-710 -2354
c0 -14 -44 -53 -59 -53 -29 1 -61 24 -52 38 7 11 9 10 14 -2 9 -23 54 -20 60
4 5 18 37 30 37 13z m224 -65 c11 -43 7 -57 -15 -51 -15 4 -19 11 -15 27 3 11
6 27 6 34 0 21 17 13 24 -10z m-44 -22 c0 -22 -14 -26 -63 -20 -33 5 -44 10
-40 20 7 20 103 19 103 0z m-155 -26 c18 -8 17 -9 -7 -9 -16 -1 -28 -4 -28 -8
-1 -19 -18 -33 -33 -27 -17 6 -23 35 -10 47 9 9 54 8 78 -3z m364 -297 c-10
-50 -19 -68 -19 -36 0 33 12 83 20 83 4 0 3 -21 -1 -47z m-24 -238 c-4 -53
-11 -108 -15 -123 l-8 -27 -1 31 c-1 16 -5 34 -11 40 -6 6 -6 34 1 79 12 86
15 95 30 95 8 0 9 -26 4 -95z m-465 -80 l5 -80 40 -5 c30 -4 40 -9 39 -22 -3
-57 -3 -58 -39 -58 -44 0 -47 -10 -43 -155 l3 -110 85 0 85 0 3 35 c4 38 22
67 22 34 0 -57 -13 -93 -34 -96 -15 -2 -22 -11 -24 -30 -2 -16 2 -28 8 -28 6
0 8 10 4 25 -5 19 -2 25 11 25 15 0 16 -6 10 -47 -4 -27 -8 -60 -9 -75 -6 -73
-6 -72 -18 -60 -7 7 -22 12 -33 12 -12 0 -30 9 -39 19 -10 11 -28 22 -42 25
-25 7 -29 35 -6 58 31 31 -5 63 -38 33 -10 -9 -29 -15 -42 -13 -22 3 -23 6
-26 117 -1 63 -7 120 -13 127 -6 7 -25 14 -42 16 -29 3 -32 6 -32 38 0 27 4
35 20 38 61 9 65 12 65 46 0 39 -13 53 -55 58 -26 3 -30 7 -30 33 0 26 5 31
40 41 31 8 41 16 43 35 6 45 11 50 44 47 l33 -3 5 -80z m416 63 c-3 -13 -6
-31 -6 -40 0 -21 -30 -24 -48 -6 -13 13 -16 50 -5 61 3 4 20 7 36 7 26 0 29
-3 23 -22z m-96 -104 c0 -38 -3 -45 -16 -40 -9 3 -20 6 -25 6 -12 0 -11 37 1
61 20 36 40 23 40 -27z m26 -32 c-11 -10 -14 3 -7 38 l6 35 3 -33 c2 -19 1
-36 -2 -40z m807 -49 c-7 -2 -19 -2 -25 0 -7 3 -2 5 12 5 14 0 19 -2 13 -5z
m-157 -40 c-7 -17 -8 -17 -17 0 -12 21 -2 44 13 29 6 -6 8 -19 4 -29z m275
-10 c-12 -20 -14 -14 -5 12 4 9 9 14 11 11 3 -2 0 -13 -6 -23z m-969 -213 c-5
-63 -13 -90 -27 -90 -8 0 -17 5 -20 11 -5 7 -13 5 -25 -6 -25 -22 -33 -5 -25
48 12 67 21 79 63 75 35 -4 37 -5 34 -38z m58 18 c0 -29 -19 -158 -26 -180 -3
-10 -9 -18 -13 -18 -9 0 -8 46 2 56 4 4 7 12 7 18 0 6 -5 4 -11 -4 -8 -11 -9
5 -5 58 2 39 8 77 11 82 12 19 35 10 35 -12z m50 -12 c0 -17 -3 -61 -6 -98 -6
-57 -10 -67 -28 -70 -21 -4 -21 -3 -14 76 10 105 14 123 33 123 10 0 15 -10
15 -31z m-777 -82 c2 -13 0 -24 -5 -24 -5 0 -6 -5 -3 -10 4 -6 -7 -13 -23 -16
-17 -3 -35 -16 -41 -28 -11 -20 -11 -19 -6 6 3 15 1 30 -5 33 -19 12 -10 26
16 23 17 -2 29 3 32 12 3 12 2 12 -8 3 -7 -6 -18 -9 -25 -6 -8 2 -22 0 -33 -6
-16 -8 -21 -6 -30 15 l-12 24 69 -1 c64 -1 69 -3 74 -25z m67 5 c15 -27 5 -37
-21 -21 -11 7 -24 10 -29 7 -6 -4 -10 3 -10 14 0 29 45 29 60 0z m30 -10 c0
-43 -17 -69 -45 -69 -29 0 -53 36 -36 53 8 8 15 5 25 -9 14 -18 16 -18 33 -1
15 14 16 21 5 37 -10 17 -10 20 3 20 10 0 15 -10 15 -31z m-533 -6 c-9 -9 -19
-14 -23 -11 -10 10 6 28 24 28 15 0 15 -1 -1 -17z m291 -43 c-12 -17 -23 -28
-25 -26 -7 6 31 64 39 60 4 -3 -2 -18 -14 -34z m42 -25 c-22 -24 -14 -40 14
-29 10 4 16 1 16 -9 0 -17 -21 -27 -55 -27 -17 0 -24 -7 -28 -27 -9 -47 7 -63
63 -63 42 0 50 -3 50 -19 0 -36 -60 -42 -112 -11 -23 13 -38 16 -48 10 -28
-18 -31 -10 -28 88 3 95 4 97 28 100 20 3 23 1 13 -9 -21 -21 -15 -39 12 -39
17 0 25 6 25 17 0 9 10 27 22 40 16 18 24 20 35 11 11 -9 10 -15 -7 -33z m500
31 c0 -21 -21 -31 -30 -15 -5 7 -6 17 -4 21 9 14 34 9 34 -6z m-198 -16 l77 0
-1 -35 c-1 -19 -5 -35 -10 -35 -5 0 -7 4 -4 8 2 4 1 14 -5 22 -7 13 -9 12 -9
-2 0 -11 -8 -18 -19 -18 -11 0 -23 -5 -27 -11 -4 -6 -20 -9 -39 -6 -42 7 -53
-1 -57 -43 -3 -31 -6 -35 -35 -38 -38 -4 -46 15 -41 88 3 41 4 43 20 27 9 -9
23 -14 31 -11 8 3 18 1 22 -5 3 -6 11 -11 16 -11 5 0 0 13 -11 28 -22 29 -19
75 3 53 6 -6 46 -11 89 -11z m135 -149 c1 -35 4 -70 7 -78 4 -10 1 -11 -14 -3
-10 5 -29 10 -42 10 -26 0 -68 25 -68 41 0 5 13 9 29 9 26 0 29 4 36 46 5 39
9 45 28 42 20 -3 22 -10 24 -67z m-159 -52 c2 -17 -3 -29 -12 -32 -9 -4 -16
-1 -16 5 0 6 -7 16 -17 23 -21 15 -8 37 20 33 15 -2 23 -11 25 -29z m-38 -40
c0 -6 -4 -7 -10 -4 -5 3 -10 11 -10 16 0 6 5 7 10 4 6 -3 10 -11 10 -16z m647
-301 c-3 -8 -6 -5 -6 6 -1 11 2 17 5 13 3 -3 4 -12 1 -19z"/>
<path d="M2867 1173 c-4 -3 -7 -15 -7 -25 0 -10 -4 -18 -10 -18 -5 0 -10 -4
-10 -10 0 -19 19 -10 26 13 14 41 14 54 1 40z"/>
<path d="M2887 1146 c-4 -10 -7 -25 -6 -34 0 -11 4 -9 10 7 5 13 8 29 6 35 -2
5 -6 2 -10 -8z"/>
<path d="M2905 1100 c3 -5 8 -10 11 -10 2 0 4 5 4 10 0 6 -5 10 -11 10 -5 0
-7 -4 -4 -10z"/>
<path d="M2935 1081 c-3 -6 -11 -9 -16 -6 -5 4 -9 -1 -9 -9 0 -21 26 -20 34 0
8 20 1 30 -9 15z"/>
<path d="M2550 1130 c-13 -8 -12 -10 3 -10 9 0 17 5 17 10 0 12 -1 12 -20 0z"/>
<path d="M28 5862 c12 -8 22 -22 22 -31 1 -14 3 -13 15 3 19 24 13 33 -27 38
-32 5 -32 5 -10 -10z"/>
<path d="M50 5800 c0 -6 7 -25 16 -41 14 -28 19 -30 52 -24 22 3 46 17 59 33
25 30 30 27 62 -33 23 -44 27 -85 10 -116 -8 -16 -7 -26 5 -44 9 -14 16 -33
16 -43 0 -10 19 -37 43 -60 35 -34 43 -48 39 -70 -3 -20 4 -34 24 -52 l28 -25
-22 29 c-26 34 -27 44 -7 66 15 16 12 20 -29 44 -33 19 -48 36 -56 63 -7 21
-19 46 -28 56 -14 15 -13 19 3 37 22 24 15 69 -22 140 -22 42 -29 49 -47 44
-23 -7 -36 -22 -36 -41 0 -7 -9 -13 -19 -13 -11 0 -26 -3 -34 -6 -11 -4 -21 6
-32 30 -18 37 -25 44 -25 26z"/>
<path d="M195 5621 c-10 -17 12 -21 25 -6 10 12 10 15 -3 15 -9 0 -18 -4 -22
-9z"/>
<path d="M116 5555 c-5 -18 0 -40 15 -70 21 -43 22 -46 6 -82 -27 -63 -28 -97
-12 -393 8 -157 15 -302 15 -323 0 -37 1 -38 36 -35 22 1 39 -3 44 -12 11 -16
14 -678 4 -704 -3 -9 -15 -16 -26 -16 -19 0 -20 -5 -14 -77 3 -43 8 -136 11
-208 3 -71 8 -156 11 -188 l6 -59 47 8 c25 4 78 10 116 13 l70 6 3 75 c3 84
20 113 61 108 35 -4 51 -40 51 -115 0 -86 33 -116 87 -78 19 13 22 26 25 119
1 57 5 106 8 109 3 2 16 7 30 10 46 11 54 -4 60 -110 3 -54 9 -104 13 -110 5
-7 21 -13 36 -13 16 0 34 -6 40 -14 15 -18 26 -133 17 -180 l-7 -36 -57 0
c-106 0 -130 -8 -143 -47 -7 -21 -8 -60 -4 -101 4 -41 2 -78 -4 -96 -10 -24
-15 -27 -39 -21 -45 11 -50 21 -54 119 -2 60 -8 99 -17 109 -11 14 -36 17
-156 17 l-143 0 -13 -37 c-12 -39 -8 -431 6 -465 4 -11 21 -18 48 -20 l42 -3
8 -331 c9 -366 7 -384 -43 -384 -17 0 -38 -4 -48 -9 -9 -5 -25 -12 -35 -15 -9
-3 -17 -15 -17 -26 0 -28 -14 -25 -29 6 -11 24 -15 26 -55 20 -41 -6 -47 -4
-76 26 l-31 33 17 -37 c13 -28 24 -38 40 -38 13 0 26 -5 30 -11 5 -8 10 -6 16
5 13 23 37 20 47 -7 11 -27 39 -53 48 -43 4 4 7 19 8 33 0 14 5 28 11 30 8 3
13 -29 15 -105 3 -71 9 -115 18 -125 9 -12 35 -17 99 -19 l87 -3 10 -110 c6
-60 14 -115 18 -122 8 -13 291 -12 304 1 5 4 10 62 13 129 l5 122 29 10 c22 7
30 7 34 -3 8 -25 34 -42 63 -42 24 0 29 -4 29 -24 0 -14 5 -28 10 -31 6 -3 10
-14 10 -24 0 -10 11 -23 24 -29 13 -6 27 -20 31 -31 7 -23 25 -27 42 -10 8 8
8 18 1 35 -6 13 -9 27 -5 30 8 9 49 -16 70 -43 18 -23 67 -33 67 -13 0 6 -6
10 -12 10 -7 0 -33 14 -58 30 -62 41 -80 40 -80 -6 l0 -36 -35 34 c-24 22 -38
45 -42 71 -6 38 -26 57 -61 57 -10 0 -27 9 -37 20 -22 24 -58 26 -75 5 -9 -11
-16 -13 -24 -5 -5 5 -25 10 -43 10 -43 0 -53 21 -53 107 0 96 6 113 40 113 47
0 60 22 60 103 1 132 26 188 75 165 31 -14 37 -44 29 -131 -5 -63 -4 -75 14
-97 11 -13 35 -29 53 -35 l34 -12 5 -99 c3 -54 9 -104 13 -111 4 -6 22 -15 39
-18 51 -12 68 19 67 114 -2 118 -7 132 -54 145 -47 14 -53 28 -54 139 -1 101
-11 120 -56 111 -51 -9 -55 7 -55 241 0 230 -9 275 -53 275 -13 0 -32 -10 -43
-21 -17 -20 -19 -39 -19 -248 0 -124 -4 -232 -8 -239 -11 -16 -62 -16 -75 1
-6 7 -12 153 -17 357 -7 388 -7 390 53 369 39 -13 128 -7 145 10 7 7 13 56 15
121 l4 110 43 0 c33 0 45 -4 48 -17 3 -10 5 -159 6 -332 0 -203 4 -325 11
-347 11 -31 15 -34 50 -34 27 0 42 5 48 17 5 10 8 117 6 237 -4 203 -3 223 16
257 15 29 21 68 26 166 7 135 4 154 -40 258 -23 56 -27 60 -59 61 -18 0 -39 4
-45 8 -17 10 -15 56 3 76 14 16 14 21 1 51 -9 19 -20 53 -26 76 -6 24 -19 47
-30 53 -11 6 -20 21 -20 33 0 12 -12 40 -25 62 -15 25 -25 55 -25 80 0 44 -6
55 -35 71 -10 6 -23 26 -28 45 -13 51 -22 54 -35 11 -7 -22 -18 -45 -25 -51
-19 -15 -77 8 -82 34 -2 11 -6 103 -8 205 -4 209 -9 230 -76 295 -37 35 -41
44 -41 88 0 32 4 46 11 41 6 -3 8 -17 5 -30 -7 -25 0 -29 28 -18 18 7 22 49 6
59 -5 3 -10 15 -10 27 0 15 -5 19 -20 15 -13 -3 -20 0 -20 8 0 21 -17 27 -40
15 -16 -9 -32 -8 -67 4 -26 9 -57 16 -70 16 -22 0 -23 4 -24 68 0 89 -13 162
-29 172 -7 5 -24 4 -37 -1 -40 -15 -51 19 -54 166 -4 137 3 173 28 140 7 -11
13 -27 13 -37 0 -10 5 -18 10 -18 6 0 10 6 10 13 0 39 -128 359 -154 385 -11
12 -14 10 -20 -13z"/>
<path d="M410 5354 c0 -13 3 -14 14 -5 20 16 58 -4 54 -27 -2 -13 -12 -16 -37
-14 -38 4 -51 -9 -51 -50 0 -31 32 -58 67 -58 15 0 27 -8 32 -24 5 -13 22 -32
37 -44 27 -19 28 -22 14 -46 -8 -15 -29 -45 -48 -67 -37 -43 -37 -69 2 -69 23
0 24 -3 19 -35 -6 -36 10 -67 31 -63 6 1 21 -3 34 -10 16 -10 21 -19 16 -36
-8 -32 19 -52 50 -38 12 5 28 7 35 2 17 -10 -10 -20 -53 -20 -57 0 -84 -50
-46 -85 11 -10 22 -27 26 -39 3 -11 24 -37 45 -57 22 -21 39 -46 39 -59 0 -11
5 -30 11 -41 12 -23 88 -59 124 -59 20 0 23 -5 22 -27 -2 -26 1 -28 41 -31 45
-3 47 -7 32 -48 -13 -33 0 -52 38 -56 22 -2 26 -7 24 -28 -2 -18 0 -21 6 -11
11 15 27 11 119 -30 l63 -28 0 -46 c0 -29 5 -45 13 -46 6 -1 18 -2 25 -3 7 0
18 -13 26 -27 13 -25 12 -27 -26 -43 -48 -22 -87 -88 -67 -113 9 -10 23 -13
46 -10 23 4 33 2 33 -7 0 -7 9 -21 19 -30 11 -10 23 -32 27 -50 3 -17 15 -41
26 -53 11 -12 18 -29 15 -37 -9 -23 18 -40 41 -25 20 13 52 7 52 -10 0 -6 -16
-22 -35 -37 -39 -29 -43 -45 -19 -65 13 -11 21 -11 45 3 19 12 41 15 66 11 58
-9 74 -20 67 -47 -4 -16 3 -37 21 -66 21 -34 29 -39 41 -30 12 11 13 8 8 -17
-6 -33 7 -49 46 -55 21 -2 26 -9 28 -40 3 -33 7 -38 28 -38 30 0 84 -26 84
-41 0 -6 -11 -24 -25 -41 -50 -59 -17 -101 76 -96 50 3 54 1 63 -24 8 -24 6
-32 -15 -55 -34 -38 -59 -79 -59 -98 0 -20 27 -30 43 -16 10 7 18 5 30 -9 22
-26 43 -25 72 4 l24 24 3 -36 c2 -26 10 -40 29 -51 14 -9 38 -24 52 -34 50
-35 127 11 127 76 0 16 4 26 10 22 6 -3 10 -31 10 -61 0 -49 3 -59 30 -82 17
-15 30 -31 30 -36 0 -6 -5 -5 -12 2 -18 18 -63 14 -81 -6 -10 -10 -17 -31 -17
-45 0 -21 7 -30 33 -41 37 -15 40 -15 31 8 -5 13 -14 16 -30 12 -20 -5 -24 -3
-24 17 0 26 28 57 52 57 22 0 39 -24 36 -51 -2 -18 2 -24 19 -25 21 -1 22 2
17 40 -5 29 -17 50 -42 74 -33 30 -34 35 -29 81 6 54 -3 71 -42 71 -19 0 -22
-3 -13 -12 34 -34 -14 -98 -73 -98 -19 0 -35 5 -35 10 0 6 -16 20 -36 32 -27
16 -34 26 -30 41 7 29 -5 77 -20 77 -7 0 -14 -14 -16 -32 -3 -29 -7 -33 -35
-36 -28 -3 -33 0 -33 17 0 25 -37 29 -46 6 -7 -16 -24 -21 -24 -6 0 18 54 91
67 91 19 0 17 84 -2 100 -10 9 -31 10 -66 6 -41 -6 -55 -4 -70 10 -26 24 -24
39 11 64 41 29 41 67 1 81 -16 6 -32 20 -35 32 -6 21 -7 21 -20 5 -22 -30 -37
-21 -34 20 3 36 2 37 -34 40 -36 3 -38 5 -38 38 0 23 6 38 20 46 20 13 28 38
12 38 -5 0 -21 -13 -37 -30 l-29 -30 -24 42 c-17 28 -21 43 -14 46 36 12 -6
57 -58 64 -19 3 -42 8 -51 12 -11 5 -24 0 -37 -15 -12 -12 -27 -19 -36 -16
-26 10 -19 25 24 53 53 36 52 66 -3 79 -21 6 -31 3 -42 -11 -12 -15 -14 -16
-15 -3 0 8 5 20 11 26 15 15 3 33 -20 33 -19 0 -31 26 -31 68 0 15 -9 26 -25
32 -29 11 -32 26 -9 52 27 29 -8 35 -45 7 -17 -12 -36 -19 -46 -16 -14 6 -13
11 5 47 21 41 72 76 92 64 7 -5 8 -3 3 6 -5 9 -4 11 3 6 9 -5 8 -12 -1 -27
-10 -17 -9 -23 12 -40 13 -10 29 -19 37 -19 22 0 16 37 -6 43 -11 3 -20 14
-20 25 0 10 -9 27 -21 38 -11 10 -18 26 -16 36 4 15 -1 18 -26 18 l-32 0 2 56
c3 47 1 55 -13 50 -8 -3 -42 8 -74 24 -33 17 -68 30 -79 30 -11 0 -23 9 -26
21 -6 17 -13 20 -36 15 -33 -6 -37 6 -17 50 11 23 10 28 -7 41 -13 9 -31 12
-54 8 -29 -5 -33 -4 -27 10 3 9 6 19 6 21 0 11 71 2 84 -11 21 -22 43 -20 24
3 -9 9 -19 27 -23 40 -5 17 -11 21 -23 16 -10 -4 -37 -11 -62 -17 -39 -8 -51
-6 -95 14 -43 21 -50 29 -50 53 0 16 -6 31 -12 33 -7 3 -13 16 -13 29 0 17 -6
24 -19 24 -26 0 -51 26 -51 53 0 12 -12 31 -27 43 -25 20 -26 24 -13 37 8 8
42 19 74 26 62 12 80 21 57 29 -7 2 -22 13 -32 23 -23 23 -29 24 -29 5 0 -23
-20 -30 -38 -12 -14 14 -14 17 3 35 19 22 22 19 -31 36 -9 3 -18 14 -21 25 -3
11 -9 17 -14 15 -4 -3 -6 -12 -2 -20 3 -8 1 -15 -5 -15 -11 0 -25 58 -16 71 3
5 17 9 32 9 43 0 12 18 -38 22 -49 3 -65 30 -22 36 14 2 22 10 22 22 0 11 14
35 30 54 l31 34 -36 27 c-19 15 -41 39 -48 54 -9 19 -20 26 -42 26 -38 1 -55
11 -55 35 0 41 10 50 50 44 33 -5 39 -3 45 16 9 29 -20 60 -57 60 -19 0 -28
-5 -28 -16z m527 -940 c2 -7 -8 -9 -28 -6 -22 3 -27 7 -18 13 17 11 41 7 46
-7z"/>
<path d="M340 5250 c0 -5 5 -10 10 -10 6 0 10 5 10 10 0 6 -4 10 -10 10 -5 0
-10 -4 -10 -10z"/>
<path d="M397 5193 c-12 -11 -8 -23 8 -23 8 0 15 7 15 15 0 16 -12 20 -23 8z"/>
<path d="M405 5120 c-7 -12 2 -30 16 -30 12 0 12 27 0 35 -5 3 -12 1 -16 -5z"/>
<path d="M603 5012 c-21 -53 -21 -55 -3 -33 11 13 20 29 20 37 0 17 20 19 20
2 0 -7 9 -24 20 -38 21 -26 26 -55 11 -64 -4 -3 -22 -1 -39 3 -24 7 -32 6 -36
-6 -9 -24 5 -36 19 -16 11 15 15 15 30 3 15 -13 19 -12 36 9 24 29 24 31 -4
73 -13 19 -27 46 -31 61 -3 15 -10 27 -14 27 -4 0 -17 -26 -29 -58z"/>
<path d="M7590 4757 c-21 -11 -24 -18 -21 -59 2 -38 -1 -49 -21 -62 -12 -9
-41 -16 -64 -16 -68 0 -74 -5 -74 -66 0 -64 -9 -60 169 -69 69 -3 131 -11 138
-17 21 -17 18 -251 -3 -272 -12 -13 -41 -16 -150 -16 -75 0 -144 5 -155 10
-15 8 -19 21 -19 60 0 64 -16 80 -85 80 -61 0 -65 -5 -65 -80 0 -59 -14 -70
-88 -70 -31 0 -54 -5 -62 -15 -15 -18 -14 -233 1 -252 8 -9 38 -13 95 -13 l84
0 0 -60 c0 -70 -17 -86 -80 -75 -23 4 -46 2 -57 -5 -14 -8 -2 -10 55 -8 86 4
92 10 92 90 l0 56 118 4 c158 5 162 3 162 -69 0 -84 -5 -87 -105 -92 -73 -3
-85 -1 -85 13 0 9 -4 16 -10 16 -5 0 -10 -7 -10 -15 0 -12 -24 -15 -132 -17
l-133 -3 -3 -62 c-3 -62 -3 -62 -37 -69 -19 -3 -51 -2 -72 3 l-38 9 0 64 0 64
35 9 c40 10 50 21 50 60 0 22 5 27 24 27 19 0 26 -7 33 -37 4 -20 15 -38 23
-40 10 -3 11 -2 3 4 -6 4 -13 24 -15 43 -3 32 -6 35 -40 38 -36 3 -37 2 -40
-35 -3 -38 -6 -41 -75 -59 -9 -2 -13 -26 -13 -72 0 -89 8 -96 95 -90 l65 6 0
-49 0 -48 -77 -3 -78 -3 -5 -165 -5 -165 -42 -3 -43 -3 0 73 c0 44 -5 79 -12
86 -18 18 -32 14 -17 -4 8 -10 16 -49 19 -88 l5 -71 123 0 c148 0 154 4 151
98 -1 32 2 62 7 67 5 5 43 10 84 12 l75 3 3 33 c5 54 -11 64 -98 60 l-75 -3 3
33 c4 26 8 32 29 32 45 0 63 17 62 58 -2 34 -2 34 -6 7 -6 -41 -20 -55 -54
-55 -28 0 -29 1 -29 51 l0 51 39 -4 c22 -2 37 0 35 4 -3 5 -21 8 -40 8 l-34 0
0 50 c0 45 3 52 27 61 38 14 218 8 219 -8 3 -30 4 -33 14 -33 6 0 10 11 10 25
0 25 1 25 84 25 80 0 86 1 106 28 18 22 21 35 16 76 -10 84 -20 90 -165 82
-114 -5 -124 -4 -140 14 -12 15 -34 21 -88 26 -67 6 -73 9 -73 29 0 18 7 24
35 29 27 5 36 13 41 34 3 15 7 33 10 40 2 8 30 12 86 13 82 1 82 1 31 10 -29
5 -70 5 -90 1 -33 -7 -39 -12 -43 -42 -4 -28 -10 -35 -39 -43 -40 -10 -51 1
-51 50 0 62 14 81 67 88 76 10 91 19 98 62 14 85 12 83 54 83 46 0 57 -11 64
-70 8 -66 19 -70 188 -70 164 0 173 3 185 65 3 18 4 77 2 129 -4 129 -2 127
-169 136 -111 7 -135 11 -146 26 -31 43 -12 68 62 79 63 9 85 28 85 75 0 69 8
73 173 72 84 0 147 4 147 9 0 14 -280 11 -310 -4z m-332 -823 c6 -2 12 -8 12
-14 0 -13 -110 -13 -144 0 -50 19 -28 30 47 24 39 -3 78 -7 85 -10z m-178
-518 l0 -75 -37 -3 c-31 -2 -39 -7 -41 -27 -2 -12 -1 -34 3 -48 5 -22 10 -25
41 -21 35 4 35 4 32 -31 l-3 -36 -72 -3 -73 -3 0 154 c0 84 3 157 7 160 3 4
37 7 75 7 l68 0 0 -74z"/>
<path d="M917 4204 c-14 -14 -7 -35 11 -32 9 2 17 10 17 17 0 16 -18 25 -28
15z"/>
<path d="M1070 4141 c0 -11 61 -63 67 -57 11 10 -29 66 -47 66 -11 0 -20 -4
-20 -9z"/>
<path d="M1005 3999 c-10 -16 0 -22 42 -23 28 -1 38 3 41 17 3 14 -4 17 -37
17 -22 0 -43 -5 -46 -11z"/>
<path d="M1087 3863 c-4 -3 -7 -11 -7 -17 0 -6 5 -5 12 2 6 6 9 14 7 17 -3 3
-9 2 -12 -2z"/>
<path d="M1240 3740 c0 -5 5 -10 10 -10 6 0 10 5 10 10 0 6 -4 10 -10 10 -5 0
-10 -4 -10 -10z"/>
<path d="M9445 3650 c3 -5 8 -10 11 -10 2 0 4 5 4 10 0 6 -5 10 -11 10 -5 0
-7 -4 -4 -10z"/>
<path d="M6740 3527 c0 -20 25 -56 46 -66 34 -15 30 0 -11 39 -19 19 -35 31
-35 27z"/>
<path d="M1404 3512 c3 -5 0 -26 -6 -46 -10 -33 -10 -40 5 -51 9 -7 17 -18 17
-26 0 -8 4 -20 9 -28 7 -11 12 -7 24 15 15 28 14 30 -11 57 -23 24 -25 31 -14
47 17 28 15 40 -9 40 -11 0 -18 -4 -15 -8z"/>
<path d="M2850 3484 c-18 -10 -20 -14 -8 -14 9 0 20 5 24 11 4 8 13 4 26 -12
17 -23 19 -23 32 -6 16 20 29 9 40 -35 3 -14 9 -33 12 -42 4 -11 -5 -22 -30
-37 -46 -27 -41 -37 5 -11 25 14 34 25 33 43 -3 48 -15 84 -35 104 -20 20 -20
20 -25 -2 -8 -28 -20 -30 -27 -3 -6 23 -12 23 -47 4z"/>
<path d="M6842 3437 c36 -14 41 -31 43 -152 3 -116 3 -115 13 -115 11 0 3 252
-9 267 -6 7 -26 13 -43 12 l-31 -1 27 -11z"/>
<path d="M2934 3414 c3 -9 6 -21 6 -27 0 -8 3 -8 11 0 13 13 5 43 -12 43 -6 0
-8 -7 -5 -16z"/>
<path d="M6750 3350 c6 -11 16 -20 22 -20 6 0 3 9 -7 20 -10 11 -20 20 -22 20
-2 0 1 -9 7 -20z"/>
<path d="M2893 3325 c0 -22 2 -30 4 -17 2 12 2 30 0 40 -3 9 -5 -1 -4 -23z"/>
<path d="M1610 3327 c0 -8 9 -22 21 -33 21 -19 21 -19 17 11 -3 30 -38 51 -38
22z"/>
<path d="M2830 3323 c0 -25 15 -38 25 -22 4 6 0 18 -9 27 -15 15 -16 15 -16
-5z"/>
<path d="M9320 3327 c0 -18 27 -53 34 -46 9 9 -11 59 -24 59 -5 0 -10 -6 -10
-13z"/>
<path d="M2990 3305 c-11 -13 -10 -14 4 -9 22 8 21 -23 -1 -50 -18 -21 -18
-21 5 -2 13 12 22 30 22 48 0 31 -11 36 -30 13z"/>
<path d="M9406 3294 c-34 -34 -3 -58 48 -38 32 12 13 54 -24 54 -5 0 -16 -7
-24 -16z"/>
<path d="M2930 3290 c20 -13 33 -13 25 0 -3 6 -14 10 -23 10 -15 0 -15 -2 -2
-10z"/>
<path d="M1586 3254 c-10 -27 -7 -34 19 -44 21 -8 24 -14 19 -35 -4 -15 -2
-25 5 -25 16 0 13 -31 -4 -54 -31 -41 -8 -50 30 -11 18 17 25 35 25 63 0 23 6
45 15 52 24 20 18 28 -25 40 -21 6 -42 15 -45 20 -9 15 -32 12 -39 -6z"/>
<path d="M3120 3258 c0 -7 5 -20 11 -28 9 -12 10 -12 5 4 -5 14 -2 17 10 12
14 -5 15 -4 4 9 -15 18 -30 20 -30 3z"/>
<path d="M9296 3248 c-9 -5 -27 -8 -37 -5 -13 3 -19 1 -16 -6 6 -18 62 -20 76
-3 15 18 1 27 -23 14z"/>
<path d="M7272 3208 c2 -18 8 -33 13 -33 6 0 11 15 13 33 3 24 -1 32 -13 32
-12 0 -16 -8 -13 -32z"/>
<path d="M3090 3200 c0 -5 7 -7 15 -4 8 4 15 8 15 10 0 2 -7 4 -15 4 -8 0 -15
-4 -15 -10z"/>
<path d="M9385 3200 c-4 -6 -3 -14 0 -20 3 -5 -3 -17 -15 -27 -23 -20 -26 -33
-6 -33 15 0 56 50 56 68 0 14 -28 23 -35 12z"/>
<path d="M3050 3120 c-13 -8 -12 -10 3 -10 9 0 17 5 17 10 0 12 -1 12 -20 0z"/>
<path d="M9210 3076 c0 -14 29 -31 38 -22 2 3 2 12 -1 21 -8 19 -37 20 -37 1z"/>
<path d="M3090 3070 c0 -5 7 -10 15 -10 8 0 15 5 15 10 0 6 -7 10 -15 10 -8 0
-15 -4 -15 -10z"/>
<path d="M6761 3071 c-12 -8 -12 -15 1 -47 17 -41 40 -53 63 -34 16 13 21 66
8 73 -20 11 -60 15 -72 8z"/>
<path d="M1740 3061 c0 -5 5 -13 10 -16 6 -3 10 -2 10 4 0 5 -4 13 -10 16 -5
3 -10 2 -10 -4z"/>
<path d="M7277 3063 c-17 -16 -3 -23 43 -23 49 0 66 12 34 24 -21 8 -69 8 -77
-1z"/>
<path d="M2905 2960 c-3 -5 1 -10 9 -10 9 0 16 5 16 10 0 6 -4 10 -9 10 -6 0
-13 -4 -16 -10z"/>
<path d="M6921 2806 c-7 -8 -11 -30 -9 -48 3 -32 4 -33 48 -33 l45 0 3 39 c2
24 -2 42 -10 47 -21 14 -64 10 -77 -5z"/>
<path d="M8955 2760 c-10 -11 -15 -20 -11 -20 14 0 46 21 46 30 0 16 -16 11
-35 -10z"/>
<path d="M1966 2741 c-4 -7 -5 -15 -2 -18 9 -9 19 4 14 18 -4 11 -6 11 -12 0z"/>
<path d="M2095 2740 c3 -5 11 -10 16 -10 6 0 7 5 4 10 -3 6 -11 10 -16 10 -6
0 -7 -4 -4 -10z"/>
<path d="M2025 2712 c-25 -17 -47 -64 -36 -75 6 -6 11 -19 11 -28 0 -19 36
-49 58 -49 10 0 12 8 7 29 -3 17 -1 39 5 51 18 34 -18 92 -45 72z"/>
<path d="M2450 2625 c0 -21 -3 -24 -27 -19 -16 3 -39 1 -53 -5 -23 -9 -23 -10
-4 -10 12 -1 27 -8 34 -16 11 -13 10 -20 -7 -42 -24 -34 -34 -37 -58 -19 -16
12 -18 17 -7 27 6 7 12 19 12 26 0 14 -67 46 -84 40 -6 -2 6 -11 26 -20 34
-14 37 -19 32 -46 -6 -26 -3 -32 21 -43 31 -14 52 -4 75 35 11 21 12 31 4 45
-10 15 -8 18 15 17 16 0 30 -8 36 -20 16 -30 50 -30 76 -1 17 19 28 24 50 19
31 -6 41 10 13 21 -32 12 -55 6 -66 -19 -16 -36 -62 -32 -65 5 0 14 -1 31 -2
38 -2 23 -21 12 -21 -13z"/>
<path d="M6824 2616 c-12 -48 2 -64 62 -72 31 -3 70 -2 87 3 29 8 32 12 32 48
l0 40 -87 3 c-86 3 -88 2 -94 -22z"/>
<path d="M8770 2609 c-14 -4 -38 -11 -53 -14 -37 -7 -68 -58 -66 -110 2 -61 1
-62 -32 -69 -19 -4 -38 0 -53 9 -32 21 -59 10 -43 -16 10 -17 8 -23 -13 -39
-21 -17 -23 -21 -10 -29 11 -8 17 -3 27 22 8 17 11 37 8 45 -4 10 -1 12 12 7
38 -17 74 -17 98 -1 21 14 25 24 25 70 0 44 4 58 26 80 28 27 49 33 59 16 9
-14 21 -12 39 6 30 30 21 39 -24 23z"/>
<path d="M9232 2580 c-18 -23 -30 -30 -57 -30 -18 0 -36 -4 -39 -8 -8 -13 81
3 97 17 12 10 30 51 23 51 -1 0 -12 -13 -24 -30z"/>
<path d="M7350 2531 c0 -11 5 -23 10 -26 6 -4 10 5 10 19 0 14 -4 26 -10 26
-5 0 -10 -9 -10 -19z"/>
<path d="M8892 2498 c-21 -47 -19 -64 4 -33 8 11 23 30 34 42 10 12 16 24 13
27 -16 15 -34 2 -51 -36z"/>
<path d="M2530 2498 c0 -15 -5 -30 -11 -34 -6 -3 -8 -16 -5 -28 3 -12 -1 -32
-9 -43 -13 -18 -13 -22 0 -27 18 -7 44 30 55 79 6 28 4 40 -11 58 l-18 22 -1
-27z"/>
<path d="M8700 2510 c0 -5 7 -10 15 -10 8 0 15 5 15 10 0 6 -7 10 -15 10 -8 0
-15 -4 -15 -10z"/>
<path d="M9143 2513 c9 -2 17 -8 17 -13 0 -5 3 -15 6 -23 3 -9 -3 -16 -16 -20
-12 -3 -20 -12 -18 -19 6 -18 46 -22 64 -8 20 17 18 -4 -2 -24 -8 -9 -21 -16
-28 -16 -8 0 -16 -17 -20 -38 -3 -21 -15 -47 -26 -57 -11 -10 -25 -35 -30 -56
-6 -21 -22 -51 -35 -67 -14 -17 -25 -41 -25 -54 0 -13 -5 -29 -12 -36 -9 -9
-9 -12 -1 -12 17 0 28 22 24 49 -2 14 7 33 22 50 14 14 30 43 35 64 6 20 22
51 36 68 14 17 26 41 26 55 0 17 7 25 24 30 13 3 29 17 35 31 14 31 0 51 -19
28 -14 -17 -60 -21 -60 -5 0 6 10 10 21 10 17 0 20 4 15 23 -3 12 -6 28 -6 35
0 6 -10 11 -22 11 -17 -1 -19 -2 -5 -6z"/>
<path d="M2424 2465 c-3 -8 -3 -19 1 -25 9 -14 35 6 35 26 0 19 -29 18 -36 -1z"/>
<path d="M8700 2430 c0 -22 1 -23 24 -14 23 9 20 34 -4 34 -13 0 -20 -7 -20
-20z"/>
<path d="M8570 2375 c0 -8 7 -15 15 -15 9 0 12 6 9 15 -4 8 -10 15 -15 15 -5
0 -9 -7 -9 -15z"/>
<path d="M6042 2343 c-5 -10 -12 -52 -14 -94 -3 -42 -8 -81 -12 -87 -4 -7 -27
-12 -51 -12 -42 0 -44 -1 -50 -34 -11 -56 0 -74 51 -82 43 -6 44 -7 44 -45 0
-50 -10 -54 -113 -43 l-82 9 0 110 c0 61 -4 116 -8 123 -10 14 -83 16 -92 2
-11 -17 -28 -186 -22 -212 5 -20 16 -27 49 -34 43 -9 43 -9 48 -59 l5 -50 98
-9 c111 -10 124 -5 129 52 3 35 5 37 43 40 49 4 65 17 65 51 0 58 10 61 165
48 l140 -12 5 -50 5 -50 47 -3 c58 -4 63 -15 49 -117 -6 -42 -11 -96 -11 -121
l0 -44 -60 30 c-64 32 -99 37 -133 18 l-22 -12 25 -7 c14 -4 42 -7 62 -8 20
-1 39 -5 43 -11 6 -10 -14 -48 -30 -54 -15 -5 -105 18 -113 30 -4 5 -18 10
-32 12 -14 1 -31 3 -38 4 -9 1 -12 13 -10 37 l3 36 105 0 105 0 3 52 c3 56 2
57 -68 65 -22 3 -26 9 -30 53 l-5 50 -49 3 c-60 4 -65 -3 -67 -83 -1 -33 -4
-73 -8 -90 -6 -27 -10 -30 -42 -27 -46 4 -69 -18 -69 -64 0 -20 -5 -34 -12
-35 -7 -1 -42 -2 -77 -2 -61 -2 -65 -4 -73 -29 -12 -34 -67 -98 -85 -98 -7 0
-19 16 -27 35 -17 39 -50 48 -59 15 -7 -28 -41 -25 -65 5 -24 30 -33 31 -56 6
-10 -11 -35 -22 -55 -26 -34 -6 -51 -14 -130 -67 -16 -11 -45 -18 -73 -18 -42
0 -48 3 -48 21 0 18 -4 20 -47 14 -27 -3 -67 -8 -90 -11 -23 -3 -51 0 -63 6
-17 9 -29 4 -75 -31 -46 -35 -61 -41 -91 -37 -32 4 -34 3 -18 -9 27 -20 44
-16 102 24 52 36 54 36 162 39 87 1 110 -1 110 -11 0 -22 17 -27 76 -19 41 5
65 15 94 39 21 18 56 36 77 40 21 4 52 15 69 26 31 19 31 19 49 -1 10 -11 26
-20 35 -20 10 0 16 -8 16 -20 -1 -10 4 -18 9 -17 6 1 10 12 10 24 0 12 6 28
13 35 11 11 18 7 40 -20 15 -18 31 -32 37 -32 5 0 23 14 41 31 32 31 32 31 43
10 10 -19 20 -21 84 -20 109 2 131 9 135 42 2 15 6 27 10 27 24 -1 31 -23 34
-95 l3 -80 48 -9 c44 -9 48 -12 45 -35 -3 -23 -9 -27 -47 -31 -57 -6 -65 -27
-14 -35 21 -3 62 -10 91 -15 67 -12 80 -6 88 38 3 21 7 41 8 46 1 5 72 10 156
10 l155 1 5 30 c5 28 8 30 50 30 43 0 45 -2 48 -30 5 -43 19 -55 62 -55 44 0
57 13 62 60 3 32 6 35 38 38 41 4 60 -16 60 -65 0 -33 4 -36 65 -45 17 -3 20
-11 20 -48 l0 -45 -97 4 c-86 3 -97 1 -106 -16 -6 -10 -8 -30 -5 -44 7 -36
-16 -52 -59 -41 -30 7 -33 12 -36 51 -4 54 -11 57 -184 66 l-138 7 -10 -28
c-6 -15 -9 -64 -8 -108 l3 -81 45 -5 45 -5 -4 -135 c-1 -74 -7 -143 -12 -152
-7 -13 -22 -18 -54 -18 -39 0 -45 -3 -51 -25 -10 -39 4 -75 32 -85 14 -6 52
-10 84 -10 80 0 90 -5 90 -49 0 -61 3 -62 166 -71 82 -5 152 -6 156 -4 14 9
20 72 9 93 -7 12 -22 21 -36 21 -26 0 -50 32 -41 55 3 8 0 15 -6 17 -23 8 4
30 28 24 36 -9 64 10 64 42 0 41 44 84 65 64 6 -7 10 -8 36 -11 7 -1 9 -13 5
-37 -9 -45 5 -62 55 -70 37 -6 39 -8 39 -43 0 -46 8 -57 47 -65 51 -12 75 7
71 57 -3 40 -4 41 -48 52 -42 10 -45 13 -48 47 -3 29 1 36 18 41 21 5 20 27
-1 27 -6 0 -7 -4 -4 -10 3 -5 2 -10 -4 -10 -5 0 -11 5 -13 12 -3 8 -22 11 -52
9 -29 -1 -45 2 -42 8 4 5 3 12 -2 15 -5 3 -5 29 -1 58 16 112 5 138 -55 138
-48 0 -56 -15 -56 -101 0 -43 -3 -84 -6 -93 -7 -20 -79 -22 -91 -3 -10 16 -4
254 8 285 7 19 14 22 41 18 108 -17 146 -17 162 -1 9 9 16 32 16 51 l0 34 51
0 51 0 -6 -52 c-10 -86 -10 -238 0 -247 13 -14 77 -23 91 -13 7 4 13 44 16
101 3 76 7 97 22 107 10 7 24 37 31 65 12 47 12 56 -2 78 -35 55 -56 71 -95
71 -41 0 -61 17 -36 32 14 8 14 12 -5 44 -12 20 -28 38 -36 42 -24 9 -71 65
-72 85 0 9 -7 17 -15 17 -8 0 -25 11 -37 25 l-22 25 -22 -21 c-19 -18 -28 -20
-61 -12 l-38 9 -3 67 c-3 64 -2 68 23 77 17 6 33 6 50 -2 35 -16 59 5 51 46
l-6 31 28 -34 c24 -30 31 -32 49 -22 12 6 37 11 56 11 45 0 49 6 31 48 -19 46
-6 33 21 -20 33 -65 60 -74 78 -24 2 5 19 9 39 8 23 -1 38 4 42 13 3 8 13 15
22 15 9 0 27 9 41 20 17 13 41 20 69 20 35 0 49 5 66 25 13 15 32 25 48 25 15
0 54 11 88 25 66 27 102 31 132 15 24 -13 44 11 35 40 -6 19 -5 21 13 11 12
-6 23 -7 26 -3 2 4 -9 14 -26 21 -25 11 -32 11 -38 1 -5 -8 -2 -19 6 -27 8 -8
14 -18 14 -23 0 -17 -18 -20 -31 -4 -16 20 -76 11 -143 -23 -31 -15 -59 -22
-73 -19 -16 5 -31 -2 -53 -24 -25 -25 -39 -30 -77 -30 -34 0 -53 -6 -69 -21
-21 -20 -24 -20 -46 -5 -25 18 -58 21 -58 7 0 -10 39 -27 53 -23 5 1 6 -2 2
-8 -3 -5 -24 -10 -46 -10 -32 0 -41 -4 -51 -25 -6 -14 -14 -25 -18 -25 -4 0
-20 27 -36 60 -16 33 -35 62 -42 65 -24 9 -32 -5 -18 -28 8 -12 17 -31 20 -43
6 -19 2 -20 -50 -18 -46 2 -61 7 -85 30 -21 20 -32 25 -40 17 -8 -8 -6 -18 6
-37 14 -21 15 -29 5 -41 -10 -12 -16 -13 -26 -4 -8 7 -29 9 -49 6 -25 -4 -35
-2 -35 7 0 17 -63 66 -84 66 -16 0 -18 4 -20 55 -1 24 -5 29 -21 27 -11 -1
-55 3 -97 10 l-78 12 0 42 c0 49 -12 61 -65 66 l-39 3 -2 63 c-2 51 0 62 13
62 9 0 22 -8 29 -17 13 -17 13 -17 14 -1 0 16 -95 135 -132 166 -23 19 -34 -4
-14 -27 20 -22 20 -31 0 -45 -9 -7 -19 -28 -23 -46 -7 -35 -7 -35 -66 -38 -33
-1 -100 1 -150 5 l-90 8 4 99 c4 110 1 116 -61 116 -26 0 -40 -6 -46 -17z
m378 -683 c12 -8 12 -10 -5 -9 -11 0 -29 4 -40 9 -18 8 -18 9 5 9 14 0 32 -4
40 -9z m110 -62 c0 -4 -18 -8 -41 -8 -33 0 -40 3 -35 16 3 9 6 20 6 25 0 5 16
1 35 -8 19 -9 35 -20 35 -25z m-380 -12 c-6 -8 -10 -25 -8 -38 2 -15 -2 -23
-12 -23 -16 0 -25 36 -16 61 3 8 15 14 27 14 18 0 19 -3 9 -14z m50 -8 c0 -6
-6 -5 -15 2 -8 7 -15 14 -15 16 0 2 7 1 15 -2 8 -4 15 -11 15 -16z m216 -21
c2 -1 0 -41 -4 -87 l-7 -85 -30 -3 c-52 -5 -61 12 -57 107 l4 83 46 -6 c25 -3
47 -7 48 -9z"/>
<path d="M2746 2324 c-10 -39 9 -52 29 -21 9 15 14 31 10 37 -12 19 -33 10
-39 -16z"/>
<path d="M8782 2338 c7 -19 38 -22 38 -4 0 10 -9 16 -21 16 -12 0 -19 -5 -17
-12z"/>
<path d="M2580 2320 c0 -5 7 -7 15 -4 8 4 15 8 15 10 0 2 -7 4 -15 4 -8 0 -15
-4 -15 -10z"/>
<path d="M8610 2320 c0 -5 5 -10 10 -10 6 0 10 5 10 10 0 6 -4 10 -10 10 -5 0
-10 -4 -10 -10z"/>
<path d="M8510 2312 c0 -7 -16 -9 -48 -5 -61 7 -73 -12 -41 -64 30 -48 15 -61
-48 -41 -33 10 -52 23 -61 42 -11 22 -16 24 -33 16 -28 -16 -24 -31 21 -75 21
-21 37 -42 34 -46 -3 -5 -24 -6 -47 -3 -37 5 -48 2 -75 -21 -31 -26 -33 -26
-57 -11 -24 16 -27 15 -69 -9 -24 -14 -51 -34 -61 -45 -10 -11 -26 -20 -37
-20 -20 0 -21 -5 -8 -35 6 -14 9 -15 9 -5 1 13 76 79 119 104 6 4 27 2 46 -5
32 -11 37 -10 66 15 28 23 38 26 75 21 59 -9 66 13 18 65 -20 23 -33 43 -29
47 3 4 12 -1 19 -10 15 -21 78 -47 112 -47 34 0 42 25 20 65 -23 43 -13 57 34
49 36 -6 63 8 47 23 -3 4 -6 1 -6 -5z"/>
<path d="M2625 2259 c-4 -6 -5 -13 -2 -16 7 -7 27 6 27 18 0 12 -17 12 -25 -2z"/>
<path d="M9140 2229 c0 -11 5 -17 10 -14 6 3 10 13 10 21 0 8 -4 14 -10 14 -5
0 -10 -9 -10 -21z"/>
<path d="M9090 2149 c0 -5 5 -7 10 -4 6 3 10 8 10 11 0 2 -4 4 -10 4 -5 0 -10
-5 -10 -11z"/>
<path d="M8969 2063 c-13 -17 -13 -17 6 -3 11 8 22 16 24 17 2 2 0 3 -6 3 -6
0 -17 -8 -24 -17z"/>
<path d="M8210 2040 c0 -5 7 -10 16 -10 8 0 12 5 9 10 -3 6 -10 10 -16 10 -5
0 -9 -4 -9 -10z"/>
<path d="M8956 2030 c4 -8 14 -23 22 -32 13 -15 13 -20 1 -35 -11 -15 -10 -15
9 1 25 22 28 36 8 36 -7 0 -21 10 -30 23 -9 12 -14 15 -10 7z"/>
<path d="M9025 2030 c-3 -5 -1 -10 4 -10 6 0 11 5 11 10 0 6 -2 10 -4 10 -3 0
-8 -4 -11 -10z"/>
<path d="M8157 2013 c-12 -11 -8 -23 8 -23 8 0 15 7 15 15 0 16 -12 20 -23 8z"/>
<path d="M9010 1935 c0 -8 5 -15 10 -15 6 0 10 7 10 15 0 8 -4 15 -10 15 -5 0
-10 -7 -10 -15z"/>
<path d="M8948 1933 c6 -2 12 -9 12 -15 0 -19 38 -59 43 -46 4 9 6 8 6 -2 1
-9 -12 -21 -29 -27 -16 -6 -30 -16 -30 -22 0 -18 16 -13 49 15 l31 26 -22 38
c-23 40 -39 49 -18 10 6 -12 9 -24 7 -27 -3 -3 -13 9 -22 26 -8 17 -21 31 -28
30 -9 0 -9 -2 1 -6z"/>
<path d="M9066 1933 c-11 -11 -6 -23 9 -23 8 0 15 4 15 9 0 13 -16 22 -24 14z"/>
<path d="M8935 1890 c-5 -24 -11 -30 -26 -25 -19 6 -42 -22 -72 -87 -6 -16
-16 -28 -22 -28 -12 0 16 -20 29 -20 4 0 5 7 2 16 -7 17 39 114 54 114 6 0 10
-4 10 -10 0 -5 4 -10 9 -10 11 0 36 69 28 76 -3 3 -8 -9 -12 -26z"/>
<path d="M7832 1834 c1 -9 9 -19 16 -22 9 -3 13 2 10 14 -1 9 -9 19 -16 22 -9
3 -13 -2 -10 -14z"/>
<path d="M9175 1830 c3 -5 8 -10 11 -10 2 0 4 5 4 10 0 6 -5 10 -11 10 -5 0
-7 -4 -4 -10z"/>
<path d="M9000 1801 c0 -5 -3 -16 -6 -25 -4 -11 -1 -16 10 -16 18 0 22 35 6
45 -5 3 -10 2 -10 -4z"/>
<path d="M9105 1790 c-3 -5 -3 -15 0 -20 7 -12 45 5 45 20 0 13 -37 13 -45 0z"/>
<path d="M7535 1780 c3 -5 8 -10 11 -10 2 0 4 5 4 10 0 6 -5 10 -11 10 -5 0
-7 -4 -4 -10z"/>
<path d="M8960 1744 c0 -8 5 -12 10 -9 6 4 8 11 5 16 -9 14 -15 11 -15 -7z"/>
<path d="M8784 1735 c-4 -8 -3 -26 0 -39 4 -18 1 -26 -11 -29 -11 -3 -7 -5 10
-6 25 -1 27 1 16 20 -6 12 -9 32 -6 45 5 27 -1 32 -9 9z"/>
<path d="M7230 1700 c0 -5 7 -10 15 -10 8 0 15 5 15 10 0 6 -7 10 -15 10 -8 0
-15 -4 -15 -10z"/>
<path d="M8780 1633 c0 -17 19 -35 29 -29 18 12 12 36 -9 36 -11 0 -20 -3 -20
-7z"/>
<path d="M8732 1615 c-11 -12 -10 -15 3 -15 8 0 15 7 15 15 0 18 -2 18 -18 0z"/>
<path d="M8649 1537 c-15 -33 -23 -36 -83 -21 -29 7 -29 7 -22 -30 6 -29 4
-36 -9 -36 -9 0 -13 -4 -10 -10 3 -5 13 -10 22 -10 13 0 14 8 9 40 -7 43 0 49
34 28 24 -15 50 -3 65 30 11 26 21 28 29 7 8 -23 26 -18 25 8 0 12 -3 16 -6 9
-4 -11 -9 -10 -22 2 -16 15 -19 13 -32 -17z"/>
<path d="M8737 1543 c-13 -12 -7 -33 8 -33 8 0 15 9 15 20 0 20 -11 26 -23 13z"/>
<path d="M4225 1510 c-3 -5 1 -10 9 -10 8 0 18 5 21 10 3 6 -1 10 -9 10 -8 0
-18 -4 -21 -10z"/>
<path d="M1899 1454 c-23 -23 -29 -24 -47 -13 -18 11 -24 11 -34 0 -11 -11
-10 -13 2 -9 8 3 23 1 33 -4 13 -6 26 -3 48 12 24 18 32 20 45 9 12 -9 17 -10
27 0 9 10 8 11 -4 6 -10 -4 -19 0 -22 9 -9 22 -18 20 -48 -10z"/>
<path d="M5535 1470 c3 -5 10 -10 16 -10 5 0 9 5 9 10 0 6 -7 10 -16 10 -8 0
-12 -4 -9 -10z"/>
<path d="M4370 1450 c0 -14 26 -23 41 -15 8 6 7 10 -2 16 -19 12 -39 11 -39
-1z"/>
<path d="M8478 1435 c-8 -19 -8 -32 1 -52 12 -25 10 -30 -13 -50 -16 -13 -33
-20 -43 -16 -11 4 -14 3 -9 -5 11 -18 32 -14 62 11 25 22 26 25 13 60 -11 32
-11 38 6 57 10 11 13 20 6 20 -6 0 -17 -11 -23 -25z"/>
<path d="M1525 1439 c-10 -15 3 -25 16 -12 7 7 7 13 1 17 -6 3 -14 1 -17 -5z"/>
<path d="M8570 1435 c0 -8 5 -15 10 -15 6 0 10 7 10 15 0 8 -4 15 -10 15 -5 0
-10 -7 -10 -15z"/>
<path d="M4600 1431 c0 -7 25 -24 56 -38 60 -27 81 -22 69 16 -5 16 -15 21
-43 21 -20 0 -47 3 -59 6 -14 4 -23 2 -23 -5z"/>
<path d="M4110 1414 c0 -10 5 -26 10 -34 8 -11 9 -7 4 15 -8 37 -14 45 -14 19z"/>
<path d="M4137 1393 c8 -50 13 -55 13 -10 0 20 -4 38 -9 42 -6 3 -7 -10 -4
-32z"/>
<path d="M5180 1405 c0 -28 15 -33 24 -8 5 12 9 14 18 5 16 -16 38 -15 38 2 0
16 -21 26 -56 26 -19 0 -24 -5 -24 -25z"/>
<path d="M1810 1410 c0 -5 5 -10 10 -10 6 0 10 5 10 10 0 6 -4 10 -10 10 -5 0
-10 -4 -10 -10z"/>
<path d="M4437 1403 c-23 -4 -26 -7 -16 -19 19 -24 69 -11 69 18 0 8 -4 8 -53
1z"/>
<path d="M9420 1377 c0 -23 17 -47 32 -47 4 0 8 16 8 35 0 28 -4 35 -20 35
-14 0 -20 -7 -20 -23z"/>
<path d="M4191 1338 c-14 -5 -32 -6 -40 -3 -8 3 -12 2 -7 -2 10 -10 86 -12 86
-2 0 14 -15 17 -39 7z"/>
<path d="M8356 1316 c-22 -12 -42 -28 -44 -36 -4 -12 -1 -12 14 1 10 9 29 20
41 23 11 4 24 13 27 21 3 8 4 15 3 14 -1 -1 -20 -11 -41 -23z"/>
<path d="M8254 1306 c-3 -8 -4 -25 -1 -38 4 -21 4 -20 6 5 2 40 19 33 23 -10
2 -31 7 -39 26 -41 23 -3 32 21 12 33 -5 3 -10 -1 -10 -10 0 -9 -4 -13 -10
-10 -5 3 -10 17 -10 30 0 47 -23 74 -36 41z"/>
<path d="M8950 1240 c0 -15 5 -20 18 -18 9 2 17 10 17 18 0 8 -8 16 -17 18
-13 2 -18 -3 -18 -18z"/>
<path d="M8194 1213 c-11 -53 -13 -55 -39 -49 -14 4 -25 2 -25 -4 0 -11 69
-14 71 -2 3 24 5 82 3 82 -2 0 -6 -12 -10 -27z"/>
<path d="M8220 1228 c0 -21 36 -43 45 -28 3 5 1 18 -5 27 -11 17 -11 17 -6 1
3 -10 1 -18 -4 -18 -5 0 -14 8 -19 18 -10 16 -10 16 -11 0z"/>
<path d="M8310 1199 c0 -5 5 -7 10 -4 6 3 10 8 10 11 0 2 -4 4 -10 4 -5 0 -10
-5 -10 -11z"/>
<path d="M7990 1124 c-6 -14 -10 -33 -11 -42 0 -10 -7 -3 -15 16 -8 17 -18 32
-24 32 -5 0 0 -16 11 -35 22 -37 55 -49 44 -16 -3 10 -1 30 4 45 6 14 8 26 6
26 -3 0 -10 -12 -15 -26z"/>
<path d="M8040 1145 c0 -2 10 -10 23 -16 20 -11 21 -11 8 4 -13 16 -31 23 -31
12z"/>
<path d="M9632 1123 c4 -40 33 -42 33 -3 0 22 -5 30 -18 30 -14 0 -18 -6 -15
-27z"/>
<path d="M7696 1103 c-3 -3 -6 -17 -6 -31 l0 -24 -19 23 -18 23 -8 -23 c-4
-13 -2 -28 3 -33 8 -8 9 -4 5 11 -3 12 -1 21 6 21 6 0 11 -7 11 -15 0 -8 7
-15 15 -15 10 0 15 11 16 33 0 28 1 29 9 10 5 -12 16 -25 25 -30 9 -5 22 -20
28 -33 7 -12 23 -29 37 -38 22 -12 22 -12 -2 8 -16 12 -28 28 -28 35 0 8 -11
22 -25 33 -14 11 -25 25 -25 30 0 14 -15 23 -24 15z"/>
<path d="M7913 1083 c9 -11 17 -26 17 -33 0 -7 7 -22 17 -32 15 -17 15 -18 -3
-18 -11 0 -34 4 -52 9 -17 5 -32 6 -32 1 0 -10 108 -25 117 -16 4 4 -3 13 -15
22 -12 8 -22 26 -22 39 0 15 -9 29 -22 36 -22 12 -22 11 -5 -8z"/>
<path d="M7570 1005 c-8 -9 -8 -15 -2 -15 6 0 12 5 14 12 5 15 68 -30 68 -49
0 -15 28 -17 49 -4 11 7 9 11 -7 20 -19 10 -21 9 -15 -6 3 -10 -11 -2 -33 20
-44 41 -55 44 -74 22z"/>
<path d="M7708 983 c26 -27 38 -34 41 -23 2 8 -2 16 -9 18 -7 3 -21 13 -31 23
-11 11 -23 19 -29 19 -5 0 7 -17 28 -37z"/>
<path d="M9157 1006 c-7 -16 1 -26 20 -26 7 0 13 9 13 20 0 23 -25 27 -33 6z"/>
<path d="M7823 964 c-12 -26 -3 -33 15 -11 6 7 8 18 4 24 -5 7 -11 3 -19 -13z"/>
<path d="M7570 968 c0 -9 5 -20 11 -23 17 -11 18 -2 3 19 -12 17 -14 17 -14 4z"/>
<path d="M8150 970 c0 -5 7 -10 16 -10 8 0 12 5 9 10 -3 6 -10 10 -16 10 -5 0
-9 -4 -9 -10z"/>
<path d="M7763 933 l-2 -36 15 27 c7 16 11 32 8 37 -11 18 -19 8 -21 -28z"/>
<path d="M7542 951 c-7 -4 -14 -14 -16 -22 -1 -8 -7 -23 -14 -34 -10 -17 -11
-18 -12 -3 0 23 -29 36 -60 29 -18 -5 -21 -9 -12 -15 8 -5 18 -4 24 2 16 16
38 2 38 -24 0 -29 16 -32 25 -5 10 31 35 35 35 5 0 -14 4 -23 9 -19 16 9 8 48
-12 53 -17 4 -17 6 -1 23 18 20 17 24 -4 10z"/>
<path d="M7736 908 c-7 -29 9 -47 27 -29 10 10 8 11 -6 5 -15 -6 -17 -3 -11
20 3 14 4 26 1 26 -2 0 -7 -10 -11 -22z"/>
<path d="M9237 910 c-21 -25 -22 -32 0 -28 9 2 18 13 19 26 5 27 3 27 -19 2z"/>
<path d="M9484 916 c-6 -17 12 -56 26 -56 6 0 10 16 10 35 0 25 -4 35 -15 35
-9 0 -18 -6 -21 -14z"/>
<path d="M9726 921 c-8 -13 11 -61 24 -61 5 0 10 16 10 35 0 34 -20 49 -34 26z"/>
<path d="M7395 909 c-4 -5 0 -18 9 -28 9 -10 16 -23 16 -29 0 -6 8 -15 18 -21
14 -8 15 -12 5 -22 -7 -7 -13 -20 -13 -28 -1 -20 -44 -52 -62 -46 -7 3 -18 15
-23 28 -6 12 -19 23 -30 24 -17 3 -17 2 3 -7 12 -5 22 -18 22 -29 0 -30 48
-40 67 -15 12 16 15 17 23 4 7 -11 10 -6 10 19 0 19 7 42 16 52 14 16 14 18
-5 24 -12 3 -21 15 -21 26 0 11 -7 22 -16 26 -8 3 -13 12 -10 19 6 17 0 19 -9
3z"/>
<path d="M7590 895 c-19 -23 -8 -26 19 -4 16 13 18 19 8 19 -8 0 -20 -7 -27
-15z"/>
<path d="M7687 884 c-4 -4 -7 -19 -7 -33 0 -23 1 -24 16 -9 11 11 13 21 7 32
-5 9 -12 13 -16 10z"/>
<path d="M7810 880 c0 -5 5 -10 10 -10 6 0 10 5 10 10 0 6 -4 10 -10 10 -5 0
-10 -4 -10 -10z"/>
<path d="M9210 852 c0 -7 -16 -34 -35 -59 -19 -25 -35 -53 -34 -62 0 -9 7 -2
14 15 8 18 36 50 62 73 26 22 43 41 36 41 -6 0 -15 -5 -19 -11 -4 -8 -9 -7
-15 2 -7 11 -9 11 -9 1z"/>
<path d="M2839 848 c-6 -12 -3 -58 4 -58 4 0 7 10 5 22 -2 13 2 23 9 23 6 0
15 3 19 8 4 4 -2 7 -14 7 -12 0 -23 -1 -23 -2z"/>
<path d="M2974 843 c-12 -2 -26 -16 -33 -31 -11 -27 -11 -27 6 -7 21 24 53 39
53 24 0 -5 -15 -32 -34 -58 -29 -43 -35 -48 -48 -35 -13 13 -16 13 -27 1 -9
-11 -7 -19 10 -38 l21 -24 -16 27 c-10 18 -12 29 -5 33 6 4 13 -2 16 -14 7
-27 15 -21 58 43 32 49 45 88 28 85 -5 -1 -18 -4 -29 -6z"/>
<path d="M2872 812 c-8 -6 -2 -9 17 -9 17 0 28 4 25 9 -7 10 -25 10 -42 0z"/>
<path d="M7360 800 c28 -22 46 -25 56 -9 9 15 -15 29 -51 29 l-30 0 25 -20z"/>
<path d="M9017 783 c-14 -13 -6 -28 20 -41 37 -17 51 0 22 27 -24 22 -32 25
-42 14z"/>
<path d="M9257 784 c-14 -15 -6 -34 14 -34 14 0 19 5 17 17 -3 18 -20 27 -31
17z"/>
<path d="M7070 760 c0 -5 -9 -10 -20 -10 -23 0 -26 -13 -7 -28 7 -6 21 -6 35
-1 24 9 25 10 16 33 -7 18 -24 22 -24 6z m15 -20 c-3 -5 -16 -10 -28 -9 -21 0
-21 1 -2 9 28 12 37 12 30 0z"/>
<path d="M3050 744 c0 -8 -15 -21 -34 -29 -31 -13 -57 -35 -41 -35 12 0 83 50
88 62 4 11 7 11 18 0 12 -11 10 -16 -11 -32 -21 -16 -22 -20 -11 -34 8 -9 16
-14 19 -11 3 2 0 11 -6 18 -9 11 -6 16 13 25 30 14 32 28 6 42 -28 14 -41 13
-41 -6z"/>
<path d="M8365 720 c3 -5 10 -10 16 -10 5 0 9 5 9 10 0 6 -7 10 -16 10 -8 0
-12 -4 -9 -10z"/>
<path d="M9043 697 c-18 -12 -32 -26 -33 -32 0 -5 -16 -25 -35 -43 -18 -19
-35 -43 -37 -55 -2 -13 -17 -29 -36 -39 -45 -22 -54 -32 -17 -18 36 14 65 39
65 56 0 17 76 106 104 121 11 6 24 9 28 7 5 -3 8 2 8 10 0 20 -8 19 -47 -7z"/>
<path d="M9110 710 c0 -5 5 -10 11 -10 5 0 7 5 4 10 -3 6 -8 10 -11 10 -2 0
-4 -4 -4 -10z"/>
<path d="M9105 680 c7 -12 32 -13 39 -2 2 4 -7 9 -20 10 -15 1 -22 -2 -19 -8z"/>
<path d="M2938 673 c7 -3 16 -2 19 1 4 3 -2 6 -13 5 -11 0 -14 -3 -6 -6z"/>
<path d="M6400 656 c0 -9 5 -16 10 -16 6 0 10 4 10 9 0 6 -4 13 -10 16 -5 3
-10 -1 -10 -9z"/>
<path d="M5433 652 c-13 -2 -23 -8 -23 -13 0 -12 47 -12 55 0 7 13 -5 18 -32
13z"/>
<path d="M6997 643 c-16 -16 -6 -35 15 -30 14 4 26 0 34 -11 12 -16 13 -16 14
0 0 31 -12 48 -34 48 -13 0 -26 -3 -29 -7z"/>
<path d="M8015 641 c-3 -5 -1 -12 5 -16 5 -3 10 1 10 9 0 18 -6 21 -15 7z"/>
<path d="M7887 615 c-3 -16 0 -24 7 -22 14 4 21 47 8 47 -5 0 -12 -11 -15 -25z"/>
<path d="M6557 583 c-4 -3 -7 -12 -7 -20 0 -11 4 -11 20 -3 11 6 18 15 15 21
-7 11 -19 12 -28 2z"/>
<path d="M6210 566 c0 -9 5 -16 10 -16 6 0 10 4 10 9 0 6 -4 13 -10 16 -5 3
-10 -1 -10 -9z"/>
<path d="M7563 572 c-9 -6 -4 -13 15 -24 29 -17 67 -9 47 10 -16 15 -49 22
-62 14z"/>
<path d="M5577 553 c-4 -3 -7 -16 -7 -27 1 -21 1 -21 15 -2 8 11 15 23 15 28
0 10 -14 11 -23 1z"/>
<path d="M6370 535 c0 -8 5 -15 10 -15 6 0 10 7 10 15 0 8 -4 15 -10 15 -5 0
-10 -7 -10 -15z"/>
<path d="M8793 494 c-48 -46 -48 -46 -4 -10 24 19 48 33 52 30 5 -3 9 2 9 10
0 23 -3 21 -57 -30z"/>
<path d="M6557 494 c-9 -10 2 -24 19 -24 8 0 14 7 14 15 0 15 -21 21 -33 9z"/>
<path d="M8215 490 c3 -5 10 -10 16 -10 5 0 9 5 9 10 0 6 -7 10 -16 10 -8 0
-12 -4 -9 -10z"/>
<path d="M8460 490 c0 -5 5 -10 10 -10 6 0 10 5 10 10 0 6 -4 10 -10 10 -5 0
-10 -4 -10 -10z"/>
<path d="M8606 484 c-3 -9 -6 -24 -6 -35 0 -21 -19 -27 -21 -6 -1 20 -28 -46
-29 -70 0 -13 5 -23 11 -23 6 0 8 7 5 16 -11 28 4 62 24 57 15 -4 19 2 22 29
2 26 7 32 23 30 16 -2 17 -1 5 7 -21 15 -27 14 -34 -5z"/>
<path d="M8680 476 c0 -2 15 -9 33 -15 29 -10 30 -9 13 4 -18 14 -46 20 -46
11z"/>
<path d="M6486 428 c-8 -32 -7 -38 4 -38 6 0 10 7 10 15 0 9 7 18 15 21 21 9
19 24 -4 24 -11 0 -21 -9 -25 -22z"/>
<path d="M7870 406 c0 -9 5 -16 10 -16 6 0 10 4 10 9 0 6 -4 13 -10 16 -5 3
-10 -1 -10 -9z"/>
<path d="M8110 405 c0 -8 5 -15 10 -15 6 0 10 7 10 15 0 8 -4 15 -10 15 -5 0
-10 -7 -10 -15z"/>
<path d="M7218 402 c-10 -2 -18 -12 -18 -22 0 -17 4 -18 30 -9 17 6 30 15 30
19 0 11 -21 17 -42 12z"/>
<path d="M7740 384 c0 -31 23 -28 28 4 2 15 -2 22 -12 22 -11 0 -16 -9 -16
-26z"/>
<path d="M7987 403 c-4 -3 -7 -15 -7 -25 0 -26 24 -17 28 10 3 21 -8 29 -21
15z"/>
<path d="M8427 356 c-4 -10 -1 -13 8 -9 8 3 33 -10 57 -28 23 -18 37 -26 32
-17 -8 14 -78 68 -88 68 -2 0 -6 -7 -9 -14z"/>
<path d="M7410 340 c-13 -8 -13 -10 1 -10 9 0 22 -6 29 -14 13 -17 40 -10 40
9 0 7 -10 15 -22 19 -30 7 -30 7 -48 -4z"/>
<path d="M7652 343 c-9 -3 -4 -10 13 -19 35 -18 55 -18 55 0 0 22 -37 32 -68
19z"/>
<path d="M8363 322 c-22 -7 -22 -7 -3 -32 11 -14 20 -20 20 -13 0 6 -5 15 -11
19 -7 4 -1 12 17 20 30 13 15 17 -23 6z"/>
<path d="M8540 320 c0 -5 4 -10 9 -10 6 0 13 5 16 10 3 6 -1 10 -9 10 -9 0
-16 -4 -16 -10z"/>
<path d="M3946 301 c-4 -5 -2 -12 4 -16 5 -3 10 -3 11 2 0 4 5 -1 10 -12 8
-18 8 -18 6 4 -2 26 -21 39 -31 22z"/>
<path d="M6767 254 c-13 -13 -7 -24 14 -24 11 0 19 5 17 12 -5 14 -22 21 -31
12z"/>
<path d="M7068 173 c-18 -4 -24 -24 -12 -36 9 -9 55 15 51 27 -4 12 -16 15
-39 9z"/>
<path d="M7306 167 c-28 -20 -12 -39 20 -25 24 11 28 28 8 35 -5 2 -18 -3 -28
-10z"/>
<path d="M6620 15 c0 -8 7 -15 15 -15 8 0 15 7 15 15 0 8 -7 15 -15 15 -8 0
-15 -7 -15 -15z"/>
<path d="M6860 15 c0 -8 9 -15 20 -15 13 0 18 5 14 15 -4 8 -12 15 -20 15 -8
0 -14 -7 -14 -15z"/>
</g>
</svg>
