<?xml version="1.0" standalone="no"?>
<!DOCTYPE svg PUBLIC "-//W3C//DTD SVG 20010904//EN"
 "http://www.w3.org/TR/2001/REC-SVG-20010904/DTD/svg10.dtd">
<svg version="1.0" xmlns="http://www.w3.org/2000/svg"
 width="1280.000000pt" height="920.000000pt" viewBox="0 0 1280.000000 920.000000"
 preserveAspectRatio="xMidYMid meet">
<metadata>
Created by potrace 1.15, written by Peter Selinger 2001-2017
</metadata>
<g transform="translate(0.000000,920.000000) scale(0.100000,-0.100000)"
fill="#000000" stroke="none">
<path d="M4189 9177 c-19 -13 -46 -46 -63 -79 -39 -78 -44 -158 -17 -321 25
-151 26 -171 7 -190 -12 -12 -24 -12 -62 -4 -41 10 -48 9 -60 -8 -28 -38 -16
-86 61 -245 41 -85 75 -165 75 -178 0 -14 24 -49 66 -93 132 -141 173 -297
204 -771 14 -234 46 -351 160 -598 59 -129 68 -156 80 -245 21 -169 25 -398
17 -954 -8 -483 -7 -544 8 -629 21 -116 83 -246 149 -313 49 -50 81 -120 117
-254 22 -85 49 -139 163 -330 92 -155 163 -356 255 -725 11 -47 30 -118 41
-158 10 -40 24 -120 31 -178 10 -93 9 -114 -6 -168 -20 -73 -38 -108 -76 -157
-21 -27 -29 -48 -29 -78 0 -38 -4 -43 -67 -93 -38 -30 -114 -86 -171 -126
-156 -111 -214 -163 -281 -253 -34 -45 -85 -129 -112 -186 -39 -80 -57 -106
-77 -114 -64 -25 -147 -40 -297 -53 -255 -24 -612 -108 -740 -175 -49 -25 -55
-26 -240 -26 -104 0 -262 3 -350 6 -144 6 -165 9 -210 31 -157 80 -310 112
-530 112 -175 0 -211 -4 -615 -69 -272 -44 -535 -78 -597 -77 -46 1 -75 24
-131 105 -85 122 -122 147 -215 147 -66 0 -127 -28 -162 -74 -15 -19 -49 -88
-76 -152 -28 -65 -59 -130 -69 -145 -11 -15 -20 -34 -20 -43 0 -9 -16 -34 -36
-55 -27 -31 -58 -49 -131 -77 -111 -43 -158 -79 -175 -136 -12 -40 -11 -42 22
-69 18 -15 70 -47 114 -69 71 -36 94 -42 184 -51 139 -14 231 -1 462 64 l185
52 250 -1 c274 -1 450 -16 755 -64 183 -29 468 -84 474 -91 1 -2 15 -29 29
-59 15 -30 48 -77 73 -104 70 -76 103 -81 734 -121 129 -9 323 -22 430 -30
278 -22 923 -31 1080 -16 148 14 350 53 411 79 143 62 338 73 469 29 132 -45
151 -48 395 -57 132 -5 319 -16 415 -25 96 -8 281 -20 410 -25 129 -5 309 -17
400 -25 91 -9 251 -20 355 -25 112 -5 274 -21 395 -39 210 -31 347 -45 551
-56 95 -6 122 -4 147 9 27 14 38 14 131 -4 440 -84 977 -125 1821 -140 482 -8
549 -14 730 -60 91 -23 202 -68 279 -112 51 -30 63 -33 141 -33 47 0 104 6
127 13 64 19 134 72 167 125 28 45 30 57 36 181 6 122 8 137 35 182 16 27 97
117 180 199 240 237 257 265 294 488 24 143 42 203 76 256 48 75 44 155 -11
220 -88 103 -231 56 -254 -83 -10 -65 -32 -105 -87 -158 -66 -65 -215 -167
-308 -212 -49 -24 -191 -103 -315 -176 -280 -165 -322 -184 -452 -205 -219
-35 -438 -30 -758 16 -118 17 -532 91 -675 120 -27 6 -102 14 -165 19 -130 11
-210 29 -457 102 -123 36 -174 56 -178 68 -6 20 -50 42 -164 82 -46 16 -118
45 -159 65 -93 43 -167 59 -354 73 -81 6 -163 17 -181 25 -18 7 -76 21 -128
30 -68 12 -129 32 -219 72 -193 85 -345 139 -515 182 -97 24 -256 51 -306 51
-30 0 -38 4 -42 22 -10 38 -39 509 -35 567 l3 54 52 13 c29 7 84 29 123 49 60
30 70 39 70 61 0 15 -29 87 -65 161 -78 163 -89 211 -72 330 21 152 7 596 -28
923 -17 156 -24 182 -73 309 -31 80 -43 99 -87 136 -27 23 -56 44 -62 46 -7 2
-48 48 -90 101 -295 368 -286 358 -444 451 -111 64 -165 119 -174 174 -4 21
-11 59 -17 85 -17 72 -8 78 119 78 113 0 160 13 187 51 21 30 21 104 -1 183
-12 42 -17 101 -17 194 l-1 134 29 24 c25 23 28 29 22 68 -4 24 -22 75 -41
115 -26 54 -36 89 -40 148 -9 116 -23 170 -64 253 -21 41 -41 88 -45 105 -12
47 -111 152 -175 185 -45 23 -66 42 -107 102 -144 207 -239 314 -634 713 -223
226 -432 439 -463 473 -71 79 -109 153 -142 277 -14 53 -36 126 -49 163 -13
37 -32 103 -41 147 -21 100 -95 278 -148 357 -39 59 -133 139 -180 154 -12 4
-35 17 -50 30 -36 30 -65 30 -108 1z m889 -1928 c38 -57 93 -144 122 -194 30
-49 81 -130 113 -179 44 -65 56 -91 46 -94 -8 -3 -55 -45 -106 -94 -75 -74
-93 -98 -102 -135 -7 -25 -14 -44 -16 -41 -3 2 -9 49 -15 104 -26 245 -91 487
-226 838 -19 48 -34 90 -34 93 0 8 148 -194 218 -298z"/>
</g>
</svg>
