<?xml version="1.0" encoding="UTF-8" standalone="no"?>
<!-- Created with Inkscape (http://www.inkscape.org/) -->

<svg
   xmlns:dc="http://purl.org/dc/elements/1.1/"
   xmlns:cc="http://creativecommons.org/ns#"
   xmlns:rdf="http://www.w3.org/1999/02/22-rdf-syntax-ns#"
   xmlns:svg="http://www.w3.org/2000/svg"
   xmlns="http://www.w3.org/2000/svg"
   xmlns:sodipodi="http://sodipodi.sourceforge.net/DTD/sodipodi-0.dtd"
   xmlns:inkscape="http://www.inkscape.org/namespaces/inkscape"
   width="4417"
   height="5010"
   viewBox="0 0 1168.6646 1325.5625"
   version="1.1"
   id="svg3813"
   inkscape:version="0.92.2 (5c3e80d, 2017-08-06)"
   sodipodi:docname="vishnu chakra.svg">
  <defs
     id="defs3807" />
  <sodipodi:namedview
     id="base"
     pagecolor="#ffffff"
     bordercolor="#666666"
     borderopacity="1.0"
     inkscape:pageopacity="0.0"
     inkscape:pageshadow="2"
     inkscape:zoom="0.020520845"
     inkscape:cx="316.85186"
     inkscape:cy="-3216.9912"
     inkscape:document-units="mm"
     inkscape:current-layer="layer1"
     showgrid="false"
     inkscape:window-width="1920"
     inkscape:window-height="1007"
     inkscape:window-x="-9"
     inkscape:window-y="-9"
     inkscape:window-maximized="1"
     units="px" />
  <metadata
     id="metadata3810">
    <rdf:RDF>
      <cc:Work
         rdf:about="">
        <dc:format>image/svg+xml</dc:format>
        <dc:type
           rdf:resource="http://purl.org/dc/dcmitype/StillImage" />
        <dc:title></dc:title>
      </cc:Work>
    </rdf:RDF>
  </metadata>
  <g
     inkscape:label="Layer 1"
     inkscape:groupmode="layer"
     id="layer1"
     transform="translate(0,1028.5625)">
    <circle
       style="fill:#ffcc00;fill-opacity:0.95686275;stroke-width:1.42576706"
       id="path805"
       cx="578.39038"
       cy="-335.07169"
       r="286.26468"
       inkscape:export-xdpi="91.965401"
       inkscape:export-ydpi="91.965401" />
    <circle
       style="fill:#ffffff;fill-opacity:0.95686275;stroke-width:1.51904154"
       id="path807"
       cx="580.52734"
       cy="-335.07144"
       r="243.53859"
       inkscape:export-xdpi="91.965401"
       inkscape:export-ydpi="91.965401" />
    <circle
       style="fill:#ffcc00;fill-opacity:0.95686275;stroke-width:1.58022511"
       id="path809"
       cx="579.45819"
       cy="-335.07169"
       r="142.06416"
       inkscape:export-xdpi="91.965401"
       inkscape:export-ydpi="91.965401" />
    <circle
       style="fill:#ffffff;fill-opacity:0.95686275;stroke-width:1.69081342"
       id="path811"
       cx="578.65802"
       cy="-331.0661"
       r="49.40202"
       inkscape:export-xdpi="91.965401"
       inkscape:export-ydpi="91.965401" />
    <circle
       style="fill:#ffcc00;fill-opacity:0.95686275;stroke-width:1.92985177"
       id="path815"
       cx="445.38"
       cy="-479.02948"
       r="19.518305"
       inkscape:export-xdpi="91.965401"
       inkscape:export-ydpi="91.965401" />
    <circle
       style="fill:#ffcc00;fill-opacity:0.95686275;stroke-width:1.92985177"
       id="path815-4"
       cx="513.49957"
       cy="-526.80481"
       r="19.518303"
       inkscape:export-xdpi="91.965401"
       inkscape:export-ydpi="91.965401" />
    <circle
       style="fill:#ffcc00;fill-opacity:0.95686275;stroke-width:1.92985177"
       id="path815-5"
       cx="593.34448"
       cy="-541.22498"
       r="19.518303"
       inkscape:export-xdpi="91.965401"
       inkscape:export-ydpi="91.965401" />
    <circle
       style="fill:#ffcc00;fill-opacity:0.95686275;stroke-width:1.92985177"
       id="path815-6"
       cx="716.01776"
       cy="-482.8053"
       r="19.518303"
       inkscape:export-xdpi="91.965401"
       inkscape:export-ydpi="91.965401" />
    <circle
       style="fill:#ffcc00;fill-opacity:0.95686275;stroke-width:1.92985177"
       id="path815-9"
       cx="766.49146"
       cy="-415.14651"
       r="19.518303"
       inkscape:export-xdpi="91.965401"
       inkscape:export-ydpi="91.965401" />
    <circle
       style="fill:#ffcc00;fill-opacity:0.95686275;stroke-width:1.92985177"
       id="path815-95"
       cx="787.53827"
       cy="-329.5932"
       r="19.518303"
       inkscape:export-xdpi="91.965401"
       inkscape:export-ydpi="91.965401" />
    <circle
       style="fill:#ffcc00;fill-opacity:0.95686275;stroke-width:1.92985177"
       id="path815-42"
       cx="763.01245"
       cy="-243.88669"
       r="19.518303"
       inkscape:export-xdpi="91.965401"
       inkscape:export-ydpi="91.965401" />
    <circle
       style="fill:#ffcc00;fill-opacity:0.95686275;stroke-width:1.92985177"
       id="path815-7"
       cx="705.34717"
       cy="-169.62997"
       r="19.518303"
       inkscape:export-xdpi="91.965401"
       inkscape:export-ydpi="91.965401" />
    <circle
       style="fill:#ffcc00;fill-opacity:0.95686275;stroke-width:1.92985177"
       id="path815-8"
       cx="531.6593"
       cy="-132.12286"
       r="19.518303"
       inkscape:export-xdpi="91.965401"
       inkscape:export-ydpi="91.965401" />
    <circle
       style="fill:#ffcc00;fill-opacity:0.95686275;stroke-width:1.92985177"
       id="path815-40"
       cx="452.88211"
       cy="-178.85451"
       r="19.518303"
       inkscape:export-xdpi="91.965401"
       inkscape:export-ydpi="91.965401" />
    <circle
       style="fill:#ffcc00;fill-opacity:0.95686275;stroke-width:1.92985177"
       id="path815-84"
       cx="397.87323"
       cy="-248.01724"
       r="19.518303"
       inkscape:export-xdpi="91.965401"
       inkscape:export-ydpi="91.965401" />
    <circle
       style="fill:#ffcc00;fill-opacity:0.95686275;stroke-width:1.92985177"
       id="path815-48"
       cx="391.8638"
       cy="-414.64893"
       r="19.518303"
       inkscape:export-xdpi="91.965401"
       inkscape:export-ydpi="91.965401" />
    <circle
       style="fill:#ffcc00;fill-opacity:0.95686275;stroke-width:1.92985177"
       id="path815-404-4"
       cx="377.84552"
       cy="-332.93536"
       r="19.518303"
       inkscape:export-xdpi="91.965401"
       inkscape:export-ydpi="91.965401" />
    <circle
       style="fill:#ffcc00;fill-opacity:0.95686275;stroke-width:1.92985177"
       id="path815-7-7"
       cx="627.52551"
       cy="-129.18521"
       r="19.518303"
       inkscape:export-xdpi="91.965401"
       inkscape:export-ydpi="91.965401" />
    <path
       style="fill:#ffcc00;fill-opacity:0.95686275;stroke-width:0.95937723"
       d="m 185.83898,-380.23474 c 15.39239,-31.84728 32.54719,-64.81577 46.04046,-89.83814 16.53747,-30.64678 32.9295,-61.16222 36.42932,-67.81198 6.5301,-12.4114 9.90083,-17.08393 12.08858,-16.76568 18.65857,21.03671 6.19557,71.12813 3.5363,85.50876 -7.82107,46.12185 -36.05141,98.76193 -19.28038,130.71433 37.74877,154.15865 -142.76482,84.69928 -78.81428,-41.80729 z"
       id="path356-3-5"
       inkscape:connector-curvature="0"
       sodipodi:nodetypes="ccccccc"
       inkscape:export-xdpi="91.965401"
       inkscape:export-ydpi="91.965401" />
    <path
       style="fill:#ffcc00;fill-opacity:0.95686275;stroke-width:0.95937723"
       d="m 130.28352,-237.60065 c -14.25217,-26.51452 -17.9895,-65.82992 -13.10017,-95.36308 8.10591,-39.03065 7.75799,-41.46794 24.90739,-69.24133 18.73645,-30.33523 39.55617,-57.30539 56.94498,-73.76599 8.70302,-8.23783 18.34676,-12.89595 17.5293,-8.46618 -0.35726,1.93905 -7.2466,18.28709 -11.26717,26.74091 -34.55105,59.03457 -68.7222,138.7737 -43.07917,192.25025 5.71812,10.66282 16.69853,19.99287 30.9807,26.32689 10.30742,4.57027 28.74374,8.0202 39.04719,7.30564 4.43111,-0.30667 10.68776,-0.73646 13.90031,-0.95358 6.25817,-0.42316 10.21963,0.80721 10.53153,3.27035 0.38385,3.02051 -4.48428,9.18058 -13.33562,16.87363 -10.13637,8.81162 -18.20626,12.71218 -30.26969,14.63123 -38.0948,6.09373 -65.17854,-9.38683 -82.78958,-39.60874 z"
       id="path358-9-3"
       inkscape:connector-curvature="0"
       sodipodi:nodetypes="ccccsccccccccc"
       inkscape:export-xdpi="91.965401"
       inkscape:export-ydpi="91.965401" />
    <path
       style="fill:#ffcc00;fill-opacity:0.95686275;stroke-width:1.01423872"
       d="m 78.873846,-265.31166 c -84.2568839,-83.16518 -19.489322,-167.58996 24.051944,-222.67878 9.82259,-12.39045 22.60089,-28.5737 28.39546,-35.96332 5.79635,-7.38928 10.71973,-13.64953 10.94242,-13.91091 27.3252,24.97352 11.25782,66.19468 0.11381,86.20277 -1.82851,3.32909 -7.1228,11.46017 -11.76329,18.06794 -18.7025,26.63215 -21.47011,35.62037 -26.75119,86.86225 -7.841729,76.10879 -8.856819,81.62571 -15.314969,83.34786 -3.155402,0.84175 -4.778922,0.51826 -9.670233,-1.92781 z"
       id="path360-6-0"
       inkscape:connector-curvature="0"
       sodipodi:nodetypes="ccccccscc"
       inkscape:export-xdpi="91.965401"
       inkscape:export-ydpi="91.965401" />
    <path
       style="fill:#ffcc00;fill-opacity:0.95686275;stroke-width:0.98010814"
       d="m 979.2971,-373.81367 c -16.06534,-31.84743 -33.96964,-64.81573 -48.0522,-89.83836 -17.25927,-30.64673 -34.36878,-61.16214 -38.02033,-67.81175 -6.81693,-12.4114 -10.33202,-17.08409 -12.61723,-16.76587 -19.47415,21.0369 -6.46515,71.12831 -3.68955,85.50874 8.16296,46.12185 37.62462,98.76215 20.12003,130.71454 -39.39457,154.15845 149.00208,84.69913 82.25928,-41.8073 z"
       id="path356-3-5-1"
       inkscape:connector-curvature="0"
       sodipodi:nodetypes="ccccccc"
       inkscape:export-xdpi="91.965401"
       inkscape:export-ydpi="91.965401" />
    <path
       style="fill:#ffcc00;fill-opacity:0.95686275;stroke-width:0.98010814"
       d="m 1037.2802,-231.17973 c 14.8755,-26.51455 18.7745,-65.82994 13.6702,-95.36311 -8.4577,-39.03047 -8.0944,-41.46777 -25.9948,-69.24134 -19.5538,-30.33518 -41.28261,-57.30538 -59.43126,-73.76594 -9.08339,-8.2379 -19.14926,-12.89598 -18.29541,-8.4662 0.37252,1.93907 7.56191,18.28705 11.75944,26.74112 36.06062,59.03456 71.72393,138.77351 44.96133,192.25 -5.96931,10.66287 -17.42881,19.99294 -32.33672,26.32695 -10.75565,4.57023 -29.99823,8.0202 -40.74995,7.30562 -4.6273,-0.30665 -11.15542,-0.73652 -14.50693,-0.95357 -6.5335,-0.42318 -10.66853,0.80714 -10.99371,3.27032 -0.39912,3.02055 4.68047,9.18061 13.91762,16.87367 10.58078,8.81159 19.00245,12.7121 31.59318,14.6312 39.7596,6.09376 68.02591,-9.38686 86.40701,-39.60872 z"
       id="path358-9-3-2"
       inkscape:connector-curvature="0"
       sodipodi:nodetypes="ccccsccccccccc"
       inkscape:export-xdpi="91.965401"
       inkscape:export-ydpi="91.965401" />
    <path
       style="fill:#ffcc00;fill-opacity:0.95686275;stroke-width:1.03615499"
       d="m 1090.9348,-258.89077 c 87.9376,-83.16517 20.3408,-167.58999 -25.103,-222.67878 -10.2522,-12.39046 -23.5883,-28.57353 -29.6371,-35.96332 -6.0472,-7.38928 -11.1873,-13.64954 -11.4195,-13.91095 -28.51891,24.97356 -11.7485,66.19477 -0.1141,86.20282 1.9107,3.32912 7.4352,11.46016 12.2768,18.06792 19.5199,26.63214 22.4092,35.62039 27.9203,86.86246 8.1857,76.10861 9.2431,81.62555 15.9856,83.3477 3.2929,0.84176 4.9864,0.51818 10.0925,-1.92785 z"
       id="path360-6-0-6"
       inkscape:connector-curvature="0"
       sodipodi:nodetypes="ccccccscc"
       inkscape:export-xdpi="91.965401"
       inkscape:export-ydpi="91.965401" />
    <path
       style="fill:#ffcc00;fill-opacity:0.95686275;stroke-width:1.4378016"
       d="m 650.20895,-640.60091 c -10.29555,-22.36381 -6.03153,-52.3604 -19.9983,-69.74246 -3.98078,-4.83581 -9.01303,-10.93691 -11.18398,-13.55862 -8.95581,-10.81777 -9.70474,-23.83293 -2.42769,-42.17476 15.18542,-38.27579 55.96796,-65.25188 81.72679,-54.05977 6.00189,2.60726 17.46318,18.01504 22.76501,30.5996 5.5964,13.29023 11.44208,41.76131 11.35835,55.34066 -0.0945,16.59217 -4.01473,28.35702 -15.36966,46.18936 -7.4727,10.23779 -50.02717,67.94657 -66.87052,47.40599 z"
       id="path408-7-4-2"
       inkscape:connector-curvature="0"
       sodipodi:nodetypes="cccsccccc"
       inkscape:export-xdpi="91.965401"
       inkscape:export-ydpi="91.965401" />
    <path
       style="fill:#ffcc00;fill-opacity:0.95686275;stroke-width:1.5917381"
       d="m 479.24244,-636.36808 c -5.03765,-1.90557 -16.27238,-13.93507 -22.88432,-24.5017 -26.83096,-60.28984 70.54478,-178.40565 109.59988,-176.38334 67.8776,67.48038 -40.26764,116.6834 -57.49097,163.41643 -8.56603,23.69077 -13.09819,32.79587 -17.97414,36.11623 -5.06432,3.44731 -5.55849,3.50644 -11.25045,1.35278 z"
       id="path410-8-7-6"
       inkscape:connector-curvature="0"
       sodipodi:nodetypes="ccccccc"
       inkscape:export-xdpi="91.965401"
       inkscape:export-ydpi="91.965401" />
    <path
       style="fill:#ffcc00;fill-opacity:0.95686275;stroke-width:1.39919269"
       d="m 601.09241,-816.64683 c -3.72997,-5.47933 -7.58112,-15.34127 -13.516,-34.60543 -9.07951,-29.46872 -12.24875,-43.984 -13.67814,-62.6396 -0.51482,-6.72423 -1.33086,-15.80669 -1.81172,-20.18304 -1.20328,-10.9299 1.80237,-21.37979 12.94791,-45.03129 10.09837,-21.42861 12.01267,-23.36641 18.35844,-18.5763 4.8913,3.6921 9.30328,11.1958 15.00854,25.5238 2.63852,6.62603 9.10017,21.80723 14.35808,33.7361 9.93883,22.5443 19.24786,52.2997 21.05571,67.29855 1.49443,12.40681 -1.58903,28.76113 -7.1308,37.81708 -5.5831,9.12504 -17.45285,20.91177 -24.06083,23.89085 -3.26231,1.47105 -7.24507,1.98411 -10.74831,1.38492 -4.83812,-0.82755 -6.24883,-1.95466 -10.78288,-8.61564 z"
       id="path412-3-0-2"
       inkscape:connector-curvature="0"
       inkscape:export-xdpi="91.965401"
       inkscape:export-ydpi="91.965401" />
    <ellipse
       style="fill:#ffcc00;fill-opacity:0.95686275;stroke-width:1.51502812"
       id="path1033-7-3"
       cx="578.53912"
       cy="-685.35876"
       rx="40.86087"
       ry="41.428387"
       inkscape:export-xdpi="91.965401"
       inkscape:export-ydpi="91.965401" />
    <path
       style="fill:#ffcc00;fill-opacity:0.95686275;stroke-width:1.16955638"
       d="m 620.64237,147.35206 c -82.54218,-19.26988 -77.35426,-163.193492 -39.79763,-181.943828 4.26949,-1.717618 4.70904,-1.687937 15.24793,1.018757 5.96946,1.532987 15.98215,4.778561 22.25164,7.213247 23.16755,8.996394 45.88864,19.720279 45.87732,24.321522 0,2.75244502 -7.21802,6.7137939 -16.6892,12.76458 -47.27276,37.608685 -16.69458,91.309532 5.84379,125.333102 4.23007,6.53361 4.36508,7.05241 2.22216,8.56049 -4.75234,3.34576 -20.75317,4.59704 -34.95404,2.73213 z"
       id="path404-3-7"
       inkscape:connector-curvature="0"
       sodipodi:nodetypes="cccccccccc"
       inkscape:export-xdpi="91.965401"
       inkscape:export-ydpi="91.965401" />
    <path
       style="fill:#ffcc00;fill-opacity:0.95686275;stroke-width:1.03396404"
       d="M 510.58677,179.71583 C 484.00663,122.83 491.50044,29.720565 499.36884,-31.492907 c 1.44071,-8.430485 3.00369,-10.526534 9.45742,-12.683839 4.36849,-1.459595 5.87424,-1.546875 10.00872,-0.579412 6.23007,1.458086 12.10045,4.824411 13.79592,7.910561 2.26213,4.118158 2.39714,17.472632 0.56271,55.617053 -3.56047,50.734312 -10.16845,85.721704 32.1618,123.986014 32.8112,24.15231 114.19987,31.09676 144.39967,12.3846 2.95383,-1.85523 5.99551,-3.37377 6.75971,-3.37377 2.46218,0 7.43721,4.1024 9.03567,7.45241 1.38797,2.90419 1.30964,4.16972 -0.72045,11.64699 -3.40667,12.55702 -8.54339,21.028 -18.18506,29.99854 -4.53998,4.22198 -11.99543,9.94006 -16.56946,12.70718 -16.24812,9.82944 -56.70548,29.66051 -76.97831,29.66051 -75.79721,-3.59575 -78.89791,-27.72677 -102.51041,-63.5181 z"
       id="path406-5-9"
       inkscape:connector-curvature="0"
       sodipodi:nodetypes="ccccccccscccccc"
       inkscape:export-xdpi="91.965401"
       inkscape:export-ydpi="91.965401" />
    <circle
       style="fill:#ffcc00;fill-opacity:0.95686275;stroke-width:1.92985177"
       id="path815-5-3"
       cx="661.84613"
       cy="-522.96667"
       r="19.518303"
       inkscape:export-xdpi="91.965401"
       inkscape:export-ydpi="91.965401" />
    <circle
       style="fill:#ffcc00;fill-opacity:0.95686275;stroke-width:2.22744346"
       id="path637-7-7-2-6-3"
       cx="-175.87764"
       cy="-868.51147"
       r="24.484673"
       transform="rotate(90)"
       inkscape:export-xdpi="91.965401"
       inkscape:export-ydpi="91.965401" />
    <circle
       style="fill:#ffcc00;fill-opacity:0.95686275;stroke-width:2.25602412"
       id="path639-4-3-8-5-1"
       cx="-95.12928"
       cy="-812.29071"
       r="25.396393"
       transform="rotate(90)"
       inkscape:export-xdpi="91.965401"
       inkscape:export-ydpi="91.965401" />
    <circle
       style="fill:#ffcc00;fill-opacity:0.95686275;stroke-width:2.23917603"
       id="path641-5-9-2-8-7"
       cx="-38.372612"
       cy="-735.44202"
       r="26.096386"
       transform="rotate(90)"
       inkscape:export-xdpi="91.965401"
       inkscape:export-ydpi="91.965401" />
    <circle
       style="fill:#ffcc00;fill-opacity:0.95686275;stroke-width:1.7188766"
       id="path637-7-7-2-6-3-9"
       cx="-727.43903"
       cy="-628.92444"
       r="18.894361"
       transform="scale(-1,1)"
       inkscape:export-xdpi="91.965401"
       inkscape:export-ydpi="91.965401" />
    <circle
       style="fill:#ffcc00;fill-opacity:0.95686275;stroke-width:1.74093163"
       id="path639-4-3-8-5-1-7"
       cx="-784.86487"
       cy="-597.4657"
       r="19.597921"
       transform="scale(-1,1)"
       inkscape:export-xdpi="91.965401"
       inkscape:export-ydpi="91.965401" />
    <circle
       style="fill:#ffcc00;fill-opacity:0.95686275;stroke-width:1.72793031"
       id="path641-5-9-2-8-7-2"
       cx="-830.86664"
       cy="-545.36914"
       r="20.138092"
       transform="scale(-1,1)"
       inkscape:export-xdpi="91.965401"
       inkscape:export-ydpi="91.965401" />
    <ellipse
       style="fill:#ffcc00;fill-opacity:0.95686275;stroke-width:1.77370787"
       id="path637-7-7-2-6-3-9-8"
       cx="620.66406"
       cy="437.2861"
       transform="rotate(-90)"
       rx="18.819836"
       ry="20.198702"
       inkscape:export-xdpi="91.965401"
       inkscape:export-ydpi="91.965401" />
    <ellipse
       style="fill:#ffcc00;fill-opacity:0.95686275;stroke-width:1.79646647"
       id="path639-4-3-8-5-1-7-4"
       cx="581.90289"
       cy="376.64984"
       transform="rotate(-90)"
       rx="19.520618"
       ry="20.950827"
       inkscape:export-xdpi="91.965401"
       inkscape:export-ydpi="91.965401" />
    <ellipse
       style="fill:#ffcc00;fill-opacity:0.95686275;stroke-width:1.78305054"
       id="path641-5-9-2-8-7-2-4"
       cx="530.01233"
       cy="327.47241"
       transform="rotate(-90)"
       rx="20.058661"
       ry="21.528292"
       inkscape:export-xdpi="91.965401"
       inkscape:export-ydpi="91.965401" />
    <circle
       style="fill:#ffcc00;fill-opacity:0.95686275;stroke-width:2.22744346"
       id="path637-7-7-2-6-3-1"
       cx="-172.95515"
       cy="285.79257"
       r="24.484673"
       transform="matrix(0,1,1,0,0,0)"
       inkscape:export-xdpi="91.965401"
       inkscape:export-ydpi="91.965401" />
    <circle
       style="fill:#ffcc00;fill-opacity:0.95686275;stroke-width:2.25602412"
       id="path639-4-3-8-5-1-3"
       cx="-92.206734"
       cy="342.01404"
       r="25.396393"
       transform="matrix(0,1,1,0,0,0)"
       inkscape:export-xdpi="91.965401"
       inkscape:export-ydpi="91.965401" />
    <circle
       style="fill:#ffcc00;fill-opacity:0.95686275;stroke-width:2.23917603"
       id="path641-5-9-2-8-7-0"
       cx="-35.45013"
       cy="418.86029"
       r="26.096386"
       transform="matrix(0,1,1,0,0,0)"
       inkscape:export-xdpi="91.965401"
       inkscape:export-ydpi="91.965401" />
  </g>
</svg>
